<svg xmlns="http://www.w3.org/2000/svg" xmlns:v="https://svgstorm.com"
viewBox = "0 0 484 484"
width="484"
height="484">
<g fill="#000000" fill-opacity="0.00" stroke="None"><path d="
M 0.00 484.00 
L 484.00 484.00
L 484.00 0.00
L 0.00 0.00
L 0.00 484.00
M 144.00 13.00 
C 144.50 12.97 145.00 13.00 145.00 13.00
C 181.41 17.56 216.94 43.39 230.00 78.00
C 232.69 83.36 235.32 88.64 238.00 94.00
C 249.53 100.83 251.87 81.03 259.00 76.00
C 259.17 75.57 259.00 75.00 259.00 75.00
C 260.64 71.19 262.74 66.72 266.00 64.00
C 267.11 62.33 268.30 60.87 269.00 59.00
C 276.48 47.35 287.64 36.59 300.00 29.00
C 300.44 28.84 301.00 29.00 301.00 29.00
C 306.59 22.64 315.15 20.22 323.00 18.00
C 323.49 17.92 324.00 18.00 324.00 18.00
C 337.70 12.66 355.09 9.48 370.00 12.00
C 370.50 12.00 371.00 12.00 371.00 12.00
C 372.28 12.28 374.50 11.24 375.00 13.00
C 375.50 12.98 376.50 13.03 377.00 13.00
C 380.43 12.98 384.58 12.63 387.00 15.00
C 388.14 15.93 389.55 16.08 391.00 16.00
C 395.87 16.45 401.66 17.47 405.00 21.00
C 405.50 21.00 406.00 21.00 406.00 21.00
C 412.12 23.19 419.44 26.95 423.00 32.00
C 424.93 32.66 425.67 35.39 428.00 35.00
C 432.99 39.18 437.89 44.04 442.00 49.00
C 442.13 49.80 443.09 50.11 443.00 51.00
C 459.51 68.86 467.79 93.23 471.00 117.00
C 470.97 117.50 471.00 118.00 471.00 118.00
C 472.87 122.26 473.14 127.88 473.00 133.00
C 473.59 158.23 471.20 182.77 464.00 206.00
C 462.29 215.94 459.49 226.82 454.00 235.00
C 453.77 235.36 454.00 236.00 454.00 236.00
C 453.04 240.92 451.14 246.17 448.00 250.00
C 442.22 264.85 433.73 278.64 427.00 293.00
C 424.60 297.75 422.28 303.52 418.00 307.00
C 417.78 307.36 418.00 308.00 418.00 308.00
C 395.87 343.63 369.09 376.56 340.00 408.00
C 323.89 424.96 306.86 441.46 289.00 456.00
C 288.60 456.20 288.00 456.00 288.00 456.00
C 284.88 461.76 276.94 465.39 272.00 469.00
C 268.58 469.62 266.31 472.90 263.00 474.00
C 244.67 488.32 218.98 474.72 205.00 460.00
C 204.20 459.87 203.89 458.91 203.00 459.00
C 201.07 457.74 199.09 456.00 198.00 454.00
C 196.75 453.70 196.29 452.17 195.00 452.00
C 177.62 438.00 161.51 421.39 146.00 405.00
C 145.19 402.96 142.73 402.03 142.00 400.00
C 133.43 391.65 125.57 382.22 118.00 373.00
C 117.80 372.60 118.00 372.00 118.00 372.00
C 116.07 370.74 114.09 369.00 113.00 367.00
C 112.80 366.60 113.00 366.00 113.00 366.00
C 102.42 355.66 94.26 343.32 86.00 331.00
C 86.55 329.18 84.25 328.53 84.00 327.00
C 64.65 302.91 50.26 275.30 38.00 247.00
C 37.89 246.53 38.00 246.00 38.00 246.00
C 35.30 243.81 34.74 240.27 34.00 237.00
C 34.05 235.24 32.47 233.93 33.00 232.00
C 30.13 230.46 29.85 226.80 29.00 224.00
C 29.62 222.06 27.80 220.87 28.00 219.00
C 27.88 218.53 28.00 218.00 28.00 218.00
C 25.50 214.80 24.20 210.25 24.00 206.00
C 24.23 204.17 23.93 202.53 23.00 201.00
C 21.40 200.47 22.28 198.25 22.00 197.00
C 22.06 196.51 22.00 196.00 22.00 196.00
C 20.44 193.67 19.85 190.13 20.00 187.00
C 20.03 186.50 20.00 186.00 20.00 186.00
C 17.52 184.30 18.01 180.77 18.00 178.00
C 18.03 177.50 18.00 176.50 18.00 176.00
C 14.67 169.06 15.28 160.09 15.00 152.00
C 15.00 143.67 15.00 135.33 15.00 127.00
C 17.15 86.75 38.27 47.23 74.00 26.00
C 74.44 25.84 75.00 26.00 75.00 26.00
C 81.25 21.01 89.99 18.03 98.00 16.00
C 98.48 15.91 99.00 16.00 99.00 16.00
C 101.74 13.43 106.16 13.09 110.00 13.00
C 112.51 12.20 115.19 11.72 118.00 12.00
C 125.71 10.28 136.67 10.10 144.00 13.00 Z"/>
</g>
<g fill="#251419" fill-opacity="0.16" stroke="None"><path d="
M 118.00 12.00 
C 118.50 12.03 119.50 12.00 120.00 12.00
C 128.13 11.87 136.19 11.85 144.00 13.00
C 136.67 10.10 125.71 10.28 118.00 12.00 Z"/>
</g>
<g fill="#301A1E" fill-opacity="0.22" stroke="None"><path d="
M 324.00 18.00 
C 330.97 16.61 337.65 14.02 345.00 14.00
C 345.49 14.05 346.00 14.00 346.00 14.00
C 353.07 11.35 361.94 12.09 370.00 12.00
C 355.09 9.48 337.70 12.66 324.00 18.00 Z"/>
</g>
<g fill="#47262B" fill-opacity="0.32" stroke="None"><path d="
M 110.00 13.00 
C 109.79 13.11 110.00 14.00 110.00 14.00
C 113.28 13.57 116.47 12.52 120.00 13.00
C 119.99 13.00 120.00 12.00 120.00 12.00
C 119.50 12.00 118.50 12.03 118.00 12.00
C 115.19 11.72 112.51 12.20 110.00 13.00 Z"/>
</g>
<g fill="#773340" fill-opacity="0.55" stroke="None"><path d="
M 120.00 13.00 
C 126.16 13.66 133.66 11.68 139.00 14.00
C 139.50 14.00 140.00 14.00 140.00 14.00
C 141.67 14.00 143.33 14.00 145.00 14.00
C 145.00 14.00 145.00 13.00 145.00 13.00
C 145.00 13.00 144.50 12.97 144.00 13.00
C 136.19 11.85 128.13 11.87 120.00 12.00
C 120.00 12.00 119.99 13.00 120.00 13.00 Z"/>
</g>
<g fill="#823547" fill-opacity="0.62" stroke="None"><path d="
M 346.00 14.00 
C 354.84 13.74 364.28 11.55 373.00 14.00
C 374.33 14.00 375.67 14.00 377.00 14.00
C 376.77 13.66 377.00 13.00 377.00 13.00
C 376.50 13.03 375.50 12.98 375.00 13.00
C 373.72 12.72 371.50 13.76 371.00 12.00
C 371.00 12.00 370.50 12.00 370.00 12.00
C 361.94 12.09 353.07 11.35 346.00 14.00 Z"/>
</g>
<g fill="#462229" fill-opacity="0.33" stroke="None"><path d="
M 375.00 13.00 
C 374.50 11.24 372.28 12.28 371.00 12.00
C 371.50 13.76 373.72 12.72 375.00 13.00 Z"/>
</g>
<g fill="#220E10" fill-opacity="0.14" stroke="None"><path d="
M 99.00 16.00 
C 102.02 15.46 104.84 14.13 108.00 14.00
C 108.49 13.94 109.51 14.06 110.00 14.00
C 110.00 14.00 109.79 13.11 110.00 13.00
C 106.16 13.09 101.74 13.43 99.00 16.00 Z"/>
</g>
<g fill="#AE3C52" fill-opacity="0.80" stroke="None"><path d="
M 110.00 14.00 
C 109.51 14.06 108.49 13.94 108.00 14.00
C 107.76 15.67 105.15 14.17 105.00 16.00
C 115.90 13.71 127.45 13.78 139.00 14.00
C 133.66 11.68 126.16 13.66 120.00 13.00
C 116.47 12.52 113.28 13.57 110.00 14.00 Z"/>
</g>
<g fill="#2D1319" fill-opacity="0.21" stroke="None"><path d="
M 145.00 14.00 
C 147.12 13.94 149.23 13.77 151.00 15.00
C 152.28 15.28 154.50 14.24 155.00 16.00
C 155.49 15.94 156.00 16.00 156.00 16.00
C 161.96 18.13 169.01 19.09 174.00 23.00
C 175.28 22.47 175.86 23.97 177.00 24.00
C 184.06 27.60 191.63 31.14 197.00 37.00
C 197.36 37.22 198.00 37.00 198.00 37.00
C 203.66 41.85 209.22 47.37 214.00 53.00
C 214.13 53.80 215.09 54.11 215.00 55.00
C 222.62 60.74 224.79 70.78 230.00 78.00
C 216.94 43.39 181.41 17.56 145.00 13.00
C 145.00 13.00 145.00 14.00 145.00 14.00 Z"/>
</g>
<g fill="#F4456B" fill-opacity="1.00" stroke="None"><path d="
M 346.00 14.00 
C 346.00 14.00 345.49 14.05 345.00 14.00
C 336.71 16.31 327.61 18.73 319.00 21.00
C 314.60 24.32 308.93 26.24 304.00 29.00
C 303.57 29.17 303.00 29.00 303.00 29.00
C 299.19 33.56 293.44 36.02 289.00 40.00
C 274.98 53.56 264.41 69.08 256.00 86.00
C 243.86 111.44 239.65 140.11 238.00 169.00 C 234.12 196.23 240.12 222.91 240.00 249.00
C 222.83 202.57 219.36 148.23 239.00 100.00
C 227.55 83.84 223.12 63.72 208.75 49.25 C 195.14 33.82 176.62 25.62 159.00 18.00
C 158.51 17.92 158.00 18.00 158.00 18.00
C 152.13 16.52 145.36 16.02 140.00 14.00
C 140.00 14.00 139.50 14.00 139.00 14.00
C 127.45 13.78 115.90 13.71 105.00 16.00
C 104.50 15.97 104.00 16.00 104.00 16.00
C 71.46 25.10 42.43 51.13 28.00 82.00
C 27.89 82.47 28.00 83.00 28.00 83.00
C 0.30 157.37 31.50 236.98 69.00 301.00
C 69.17 301.43 69.00 302.00 69.00 302.00
C 80.46 316.22 90.11 332.16 101.00 347.00
C 101.22 347.36 101.00 348.00 101.00 348.00
C 101.00 348.50 101.00 349.00 101.00 349.00
C 102.20 349.67 103.58 350.64 104.00 352.00
C 119.30 369.51 134.49 387.75 150.25 404.75 C 183.64 439.04 247.67 439.83 286.25 411.25 C 307.50 403.54 324.84 384.48 342.70 369.70 C 359.73 352.72 372.88 334.68 385.92 314.92 C 396.97 293.24 412.70 272.51 415.00 248.00
C 420.82 246.92 416.87 238.13 421.97 233.97 C 444.45 166.72 450.19 78.55 392.25 24.75 C 386.66 19.97 380.20 15.59 373.00 14.00
C 364.28 11.55 354.84 13.74 346.00 14.00 Z"/>
</g>
<g fill="#381C22" fill-opacity="0.28" stroke="None"><path d="
M 377.00 14.00 
C 377.50 14.00 378.50 14.02 379.00 14.00
C 380.28 14.28 382.50 13.24 383.00 15.00
C 383.49 14.94 384.00 15.00 384.00 15.00
C 385.00 15.00 386.00 15.00 387.00 15.00
C 384.58 12.63 380.43 12.98 377.00 13.00
C 377.00 13.00 376.77 13.66 377.00 14.00 Z"/>
</g>
<g fill="#662631" fill-opacity="0.47" stroke="None"><path d="
M 99.00 16.00 
C 99.00 16.00 98.48 15.91 98.00 16.00
C 97.92 17.26 95.94 16.56 96.00 18.00
C 98.67 17.40 101.29 16.59 104.00 16.00
C 104.00 16.00 104.50 15.97 105.00 16.00
C 105.15 14.17 107.76 15.67 108.00 14.00
C 104.84 14.13 102.02 15.46 99.00 16.00 Z"/>
</g>
<g fill="#AE3954" fill-opacity="0.78" stroke="None"><path d="
M 158.00 18.00 
C 157.92 16.74 155.94 17.44 156.00 16.00
C 156.00 16.00 155.49 15.94 155.00 16.00
C 153.72 15.72 151.50 16.76 151.00 15.00
C 149.23 13.77 147.12 13.94 145.00 14.00
C 143.33 14.00 141.67 14.00 140.00 14.00
C 145.36 16.02 152.13 16.52 158.00 18.00 Z"/>
</g>
<g fill="#873041" fill-opacity="0.63" stroke="None"><path d="
M 324.00 18.00 
C 324.00 18.00 323.49 17.92 323.00 18.00
C 322.12 20.07 318.96 19.21 318.00 21.00
C 318.50 21.00 319.00 21.00 319.00 21.00
C 327.61 18.73 336.71 16.31 345.00 14.00
C 337.65 14.02 330.97 16.61 324.00 18.00 Z"/>
</g>
<g fill="#E2395D" fill-opacity="1.00" stroke="None"><path d="
M 104.00 352.00 
C 104.30 353.25 105.83 353.71 106.00 355.00
C 106.85 357.35 110.24 358.23 110.00 361.00
C 116.22 366.15 120.41 373.20 126.00 379.00
C 126.20 379.40 126.00 380.00 126.00 380.00
C 127.93 381.26 129.91 383.00 131.00 385.00
C 131.13 385.80 132.09 386.11 132.00 387.00
C 153.48 409.15 176.00 431.46 198.00 453.00
C 200.05 454.35 201.96 455.70 204.00 457.00
C 221.72 473.65 249.03 485.14 270.00 467.00
C 270.44 466.84 271.00 467.00 271.00 467.00
C 276.08 461.33 283.11 457.79 289.00 453.00
C 290.25 452.70 290.71 451.17 292.00 451.00
C 311.71 432.21 331.07 411.83 351.00 393.00
C 362.28 378.71 374.67 365.23 386.00 351.00
C 420.32 303.89 449.50 251.52 465.00 196.00
C 465.96 191.75 466.14 186.65 468.00 183.00
C 467.97 182.50 468.00 182.00 468.00 182.00
C 468.47 180.12 466.94 177.07 469.00 176.00
C 468.95 175.51 469.00 175.00 469.00 175.00
C 469.39 173.43 468.06 170.78 470.00 170.00
C 469.94 169.51 470.00 169.00 470.00 169.00
C 470.59 166.16 468.78 162.02 471.00 160.00
C 471.00 158.33 471.00 156.67 471.00 155.00
C 471.00 148.00 471.00 141.00 471.00 134.00
C 471.00 132.67 471.00 131.33 471.00 130.00
C 468.81 114.76 465.61 98.94 461.00 84.00
C 450.99 67.80 442.67 50.13 427.00 37.00
C 414.51 26.66 398.99 19.83 384.00 15.00
C 384.00 15.00 383.49 14.94 383.00 15.00
C 381.72 14.72 379.50 15.76 379.00 14.00
C 378.50 14.02 377.50 14.00 377.00 14.00
C 375.67 14.00 374.33 14.00 373.00 14.00
C 380.20 15.59 386.66 19.97 392.25 24.75 C 450.19 78.55 444.45 166.72 421.97 233.97 C 416.87 238.13 420.82 246.92 415.00 248.00
C 412.70 272.51 396.97 293.24 385.92 314.92 C 372.88 334.68 359.73 352.72 342.70 369.70 C 324.84 384.48 307.50 403.54 286.25 411.25 C 247.67 439.83 183.64 439.04 150.25 404.75 C 134.49 387.75 119.30 369.51 104.00 352.00 Z"/>
</g>
<g fill="#7D3342" fill-opacity="0.63" stroke="None"><path d="
M 383.00 15.00 
C 382.50 13.24 380.28 14.28 379.00 14.00
C 379.50 15.76 381.72 14.72 383.00 15.00 Z"/>
</g>
<g fill="#752C3E" fill-opacity="0.54" stroke="None"><path d="
M 155.00 16.00 
C 154.50 14.24 152.28 15.28 151.00 15.00
C 151.50 16.76 153.72 15.72 155.00 16.00 Z"/>
</g>
<g fill="#882E41" fill-opacity="0.69" stroke="None"><path d="
M 427.00 37.00 
C 432.48 41.02 436.56 47.03 442.00 51.00
C 431.56 37.93 417.75 28.68 404.00 21.00
C 403.50 21.00 403.00 21.00 403.00 21.00
C 401.59 20.85 399.66 20.35 399.00 19.00
C 396.61 17.33 392.85 18.26 391.00 16.00
C 389.55 16.08 388.14 15.93 387.00 15.00
C 386.00 15.00 385.00 15.00 384.00 15.00
C 398.99 19.83 414.51 26.66 427.00 37.00 Z"/>
</g>
<g fill="#381C21" fill-opacity="0.25" stroke="None"><path d="
M 75.00 26.00 
C 76.89 26.06 78.29 24.58 80.00 24.00
C 81.68 23.29 83.08 21.99 85.00 22.00
C 87.31 19.73 90.83 18.74 94.00 18.00
C 94.49 17.94 95.51 18.07 96.00 18.00
C 95.94 16.56 97.92 17.26 98.00 16.00
C 89.99 18.03 81.25 21.01 75.00 26.00 Z"/>
</g>
<g fill="#B73D58" fill-opacity="0.84" stroke="None"><path d="
M 96.00 18.00 
C 95.51 18.07 94.49 17.94 94.00 18.00
C 91.65 20.12 88.05 20.95 85.00 22.00
C 83.08 21.99 81.68 23.29 80.00 24.00
C 76.85 27.56 71.63 28.76 68.00 32.00
C 67.64 32.22 67.00 32.00 67.00 32.00
C 65.44 34.79 62.27 35.93 60.00 38.00
C 59.68 38.24 59.00 38.00 59.00 38.00
C 45.97 51.07 34.11 64.99 28.00 82.00
C 42.43 51.13 71.46 25.10 104.00 16.00
C 101.29 16.59 98.67 17.40 96.00 18.00 Z"/>
</g>
<g fill="#7F3244" fill-opacity="0.60" stroke="None"><path d="
M 158.00 18.00 
C 158.00 18.00 158.51 17.92 159.00 18.00
C 164.14 19.18 168.98 21.42 174.00 23.00
C 169.01 19.09 161.96 18.13 156.00 16.00
C 155.94 17.44 157.92 16.74 158.00 18.00 Z"/>
</g>
<g fill="#291617" fill-opacity="0.19" stroke="None"><path d="
M 399.00 19.00 
C 400.41 19.15 402.34 19.65 403.00 21.00
C 403.00 21.00 403.50 21.00 404.00 21.00
C 404.50 21.00 405.00 21.00 405.00 21.00
C 401.66 17.47 395.87 16.45 391.00 16.00
C 392.85 18.26 396.61 17.33 399.00 19.00 Z"/>
</g>
<g fill="#752D39" fill-opacity="0.54" stroke="None"><path d="
M 85.00 22.00 
C 88.05 20.95 91.65 20.12 94.00 18.00
C 90.83 18.74 87.31 19.73 85.00 22.00 Z"/>
</g>
<g fill="#B83C56" fill-opacity="0.84" stroke="None"><path d="
M 239.00 100.00 
C 248.30 100.76 251.16 91.43 256.00 86.00
C 264.41 69.08 274.98 53.56 289.00 40.00
C 284.53 43.03 281.43 48.02 277.00 51.00
C 267.56 61.34 262.41 74.38 254.00 85.00
C 253.84 85.44 254.00 86.00 254.00 86.00
C 253.01 87.33 252.95 89.57 251.00 90.00
C 250.87 90.47 251.00 91.00 251.00 91.00
C 243.95 105.37 232.66 92.02 230.68 82.32 C 226.38 72.69 220.70 63.85 215.00 55.00
C 215.09 54.11 214.13 53.80 214.00 53.00
C 208.34 48.15 202.78 42.63 198.00 37.00
C 198.00 37.00 197.36 37.22 197.00 37.00
C 190.70 32.03 183.02 28.82 177.00 24.00
C 175.86 23.97 175.28 22.47 174.00 23.00
C 168.98 21.42 164.14 19.18 159.00 18.00
C 176.62 25.62 195.14 33.82 208.75 49.25 C 223.12 63.72 227.55 83.84 239.00 100.00 Z"/>
</g>
<g fill="#291416" fill-opacity="0.17" stroke="None"><path d="
M 301.00 29.00 
C 306.25 26.15 311.25 22.65 317.00 21.00
C 317.47 20.89 318.00 21.00 318.00 21.00
C 318.96 19.21 322.12 20.07 323.00 18.00
C 315.15 20.22 306.59 22.64 301.00 29.00 Z"/>
</g>
<g fill="#5C2B35" fill-opacity="0.45" stroke="None"><path d="
M 403.00 21.00 
C 402.34 19.65 400.41 19.15 399.00 19.00
C 399.66 20.35 401.59 20.85 403.00 21.00 Z"/>
</g>
<g fill="#612C36" fill-opacity="0.45" stroke="None"><path d="
M 301.00 29.00 
C 301.00 29.00 300.44 28.84 300.00 29.00
C 299.46 30.66 297.44 31.33 297.00 33.00
C 299.09 31.68 300.60 29.71 303.00 29.00
C 303.00 29.00 303.57 29.17 304.00 29.00
C 307.13 24.89 313.48 24.51 317.00 21.00
C 311.25 22.65 306.25 26.15 301.00 29.00 Z"/>
</g>
<g fill="#A03247" fill-opacity="0.76" stroke="None"><path d="
M 304.00 29.00 
C 308.93 26.24 314.60 24.32 319.00 21.00
C 319.00 21.00 318.50 21.00 318.00 21.00
C 318.00 21.00 317.47 20.89 317.00 21.00
C 313.48 24.51 307.13 24.89 304.00 29.00 Z"/>
</g>
<g fill="#52212B" fill-opacity="0.42" stroke="None"><path d="
M 442.00 51.00 
C 443.74 53.36 445.55 55.51 447.00 58.00
C 447.80 58.13 448.11 59.09 449.00 59.00
C 447.01 56.27 444.95 53.71 443.00 51.00
C 443.09 50.11 442.13 49.80 442.00 49.00
C 437.01 44.82 432.11 39.96 428.00 35.00
C 425.67 35.39 424.93 32.66 423.00 32.00
C 417.66 27.73 411.49 24.53 406.00 21.00
C 406.00 21.00 405.50 21.00 405.00 21.00
C 405.00 21.00 404.50 21.00 404.00 21.00
C 417.75 28.68 431.56 37.93 442.00 51.00 Z"/>
</g>
<g fill="#1D0D0E" fill-opacity="0.13" stroke="None"><path d="
M 423.00 32.00 
C 419.44 26.95 412.12 23.19 406.00 21.00
C 411.49 24.53 417.66 27.73 423.00 32.00 Z"/>
</g>
<g fill="#743745" fill-opacity="0.54" stroke="None"><path d="
M 75.00 26.00 
C 75.00 26.00 74.44 25.84 74.00 26.00
C 72.94 29.00 69.01 29.01 68.00 32.00
C 71.63 28.76 76.85 27.56 80.00 24.00
C 78.29 24.58 76.89 26.06 75.00 26.00 Z"/>
</g>
<g fill="#772537" fill-opacity="0.57" stroke="None"><path d="
M 197.00 37.00 
C 191.63 31.14 184.06 27.60 177.00 24.00
C 183.02 28.82 190.70 32.03 197.00 37.00 Z"/>
</g>
<g fill="#2F1C20" fill-opacity="0.21" stroke="None"><path d="
M 15.00 127.00 
C 17.17 123.13 15.20 116.66 18.00 113.00
C 17.77 111.17 18.07 109.53 19.00 108.00
C 19.28 106.72 18.24 104.50 20.00 104.00
C 19.94 103.51 20.00 103.00 20.00 103.00
C 25.50 78.18 38.58 54.80 59.00 38.00
C 59.00 38.00 59.68 38.24 60.00 38.00
C 61.51 35.07 64.51 33.75 67.00 32.00
C 67.00 32.00 67.64 32.22 68.00 32.00
C 69.01 29.01 72.94 29.00 74.00 26.00
C 38.27 47.23 17.15 86.75 15.00 127.00 Z"/>
</g>
<g fill="#251316" fill-opacity="0.16" stroke="None"><path d="
M 269.00 59.00 
C 275.12 53.11 279.76 45.13 287.00 40.00
C 290.43 37.75 293.08 34.06 297.00 33.00
C 297.44 31.33 299.46 30.66 300.00 29.00
C 287.64 36.59 276.48 47.35 269.00 59.00 Z"/>
</g>
<g fill="#8A3747" fill-opacity="0.65" stroke="None"><path d="
M 297.00 33.00 
C 293.08 34.06 290.43 37.75 287.00 40.00
C 284.30 44.14 279.65 46.91 277.00 51.00
C 281.43 48.02 284.53 43.03 289.00 40.00
C 293.44 36.02 299.19 33.56 303.00 29.00
C 300.60 29.71 299.09 31.68 297.00 33.00 Z"/>
</g>
<g fill="#713744" fill-opacity="0.53" stroke="None"><path d="
M 60.00 38.00 
C 62.27 35.93 65.44 34.79 67.00 32.00
C 64.51 33.75 61.51 35.07 60.00 38.00 Z"/>
</g>
<g fill="#271419" fill-opacity="0.19" stroke="None"><path d="
M 442.00 49.00 
C 437.89 44.04 432.99 39.18 428.00 35.00
C 432.11 39.96 437.01 44.82 442.00 49.00 Z"/>
</g>
<g fill="#7B3041" fill-opacity="0.57" stroke="None"><path d="
M 214.00 53.00 
C 209.22 47.37 203.66 41.85 198.00 37.00
C 202.78 42.63 208.34 48.15 214.00 53.00 Z"/>
</g>
<g fill="#B4334F" fill-opacity="0.85" stroke="None"><path d="
M 461.00 84.00 
C 460.75 83.71 461.00 83.00 461.00 83.00
C 459.53 81.51 458.26 79.22 458.00 77.00
C 457.89 76.53 458.00 76.00 458.00 76.00
C 453.31 70.93 451.41 63.54 447.00 58.00
C 445.55 55.51 443.74 53.36 442.00 51.00
C 436.56 47.03 432.48 41.02 427.00 37.00
C 442.67 50.13 450.99 67.80 461.00 84.00 Z"/>
</g>
<g fill="#6C323D" fill-opacity="0.51" stroke="None"><path d="
M 20.00 103.00 
C 23.52 97.12 23.49 88.54 28.00 83.00
C 28.00 83.00 27.89 82.47 28.00 82.00
C 34.11 64.99 45.97 51.07 59.00 38.00
C 38.58 54.80 25.50 78.18 20.00 103.00 Z"/>
</g>
<g fill="#F7728A" fill-opacity="1.00" stroke="None"><path d="
M 116.00 40.00 
C 103.53 39.10 91.64 40.96 81.25 47.25 C 57.26 65.30 36.52 101.91 54.78 128.22 C 66.06 128.86 65.71 111.44 71.03 104.03 C 76.87 84.04 95.40 70.72 111.25 60.25 C 118.94 55.28 130.38 43.79 116.00 40.00 Z"/>
</g>
<g fill="#652F3A" fill-opacity="0.47" stroke="None"><path d="
M 269.00 59.00 
C 268.30 60.87 267.11 62.33 266.00 64.00
C 263.82 67.73 262.26 72.24 259.00 75.00
C 259.00 75.00 259.17 75.57 259.00 76.00
C 257.72 79.26 255.47 81.86 254.00 85.00
C 262.41 74.38 267.56 61.34 277.00 51.00
C 279.65 46.91 284.30 44.14 287.00 40.00
C 279.76 45.13 275.12 53.11 269.00 59.00 Z"/>
</g>
<g fill="#35141B" fill-opacity="0.27" stroke="None"><path d="
M 449.00 59.00 
C 451.99 64.72 455.35 70.10 458.00 76.00
C 458.00 76.00 457.89 76.53 458.00 77.00
C 459.47 78.49 460.74 80.78 461.00 83.00
C 461.00 83.00 460.75 83.71 461.00 84.00
C 466.39 93.83 468.04 105.79 470.00 117.00
C 470.04 117.13 471.00 117.00 471.00 117.00
C 467.79 93.23 459.51 68.86 443.00 51.00
C 444.95 53.71 447.01 56.27 449.00 59.00 Z"/>
</g>
<g fill="#642230" fill-opacity="0.47" stroke="None"><path d="
M 251.00 91.00 
C 247.53 94.18 241.50 100.91 238.00 94.00
C 235.32 88.64 232.69 83.36 230.00 78.00
C 224.79 70.78 222.62 60.74 215.00 55.00
C 220.70 63.85 226.38 72.69 230.68 82.32 C 232.66 92.02 243.95 105.37 251.00 91.00 Z"/>
</g>
<g fill="#732032" fill-opacity="0.59" stroke="None"><path d="
M 458.00 76.00 
C 455.35 70.10 451.99 64.72 449.00 59.00
C 448.11 59.09 447.80 58.13 447.00 58.00
C 451.41 63.54 453.31 70.93 458.00 76.00 Z"/>
</g>
<g fill="#2D1B21" fill-opacity="0.19" stroke="None"><path d="
M 259.00 75.00 
C 262.26 72.24 263.82 67.73 266.00 64.00
C 262.74 66.72 260.64 71.19 259.00 75.00 Z"/>
</g>
<g fill="#291618" fill-opacity="0.18" stroke="None"><path d="
M 238.00 94.00 
C 241.50 100.91 247.53 94.18 251.00 91.00
C 251.00 91.00 250.87 90.47 251.00 90.00
C 251.99 88.67 252.05 86.43 254.00 86.00
C 254.00 86.00 253.84 85.44 254.00 85.00
C 255.47 81.86 257.72 79.26 259.00 76.00
C 251.87 81.03 249.53 100.83 238.00 94.00 Z"/>
</g>
<g fill="#7D1F35" fill-opacity="0.64" stroke="None"><path d="
M 461.00 83.00 
C 460.74 80.78 459.47 78.49 458.00 77.00
C 458.26 79.22 459.53 81.51 461.00 83.00 Z"/>
</g>
<g fill="#B6425B" fill-opacity="0.86" stroke="None"><path d="
M 20.00 103.00 
C 20.00 103.00 19.94 103.51 20.00 104.00
C 19.72 105.28 20.76 107.50 19.00 108.00
C 18.07 109.53 17.77 111.17 18.00 113.00
C 16.25 125.71 15.58 138.74 16.00 152.00
C 16.00 152.50 16.00 153.50 16.00 154.00
C 18.08 156.10 16.50 160.15 17.00 163.00
C 17.00 163.50 17.03 164.50 17.00 165.00
C 18.96 166.45 17.56 169.80 18.00 172.00
C 17.97 172.50 18.00 173.50 18.00 174.00
C 19.60 174.53 18.72 176.75 19.00 178.00
C 18.94 178.49 19.00 179.00 19.00 179.00
C 20.76 182.71 22.03 187.46 22.00 192.00
C 21.97 192.50 22.00 193.00 22.00 193.00
C 24.17 198.03 25.18 204.25 26.00 210.00
C 26.60 212.67 27.41 215.29 28.00 218.00
C 28.00 218.00 27.88 218.53 28.00 219.00
C 30.93 220.83 30.83 225.00 32.00 228.00
C 32.08 228.49 32.00 229.00 32.00 229.00
C 42.41 253.39 53.46 279.14 69.00 301.00
C 31.50 236.98 0.30 157.37 28.00 83.00
C 23.49 88.54 23.52 97.12 20.00 103.00 Z"/>
</g>
<g fill="#942D44" fill-opacity="0.73" stroke="None"><path d="
M 471.00 130.00 
C 471.00 128.00 471.00 126.00 471.00 124.00
C 471.00 123.00 471.00 122.00 471.00 121.00
C 469.40 120.47 470.28 118.25 470.00 117.00
C 468.04 105.79 466.39 93.83 461.00 84.00
C 465.61 98.94 468.81 114.76 471.00 130.00 Z"/>
</g>
<g fill="#582A31" fill-opacity="0.44" stroke="None"><path d="
M 251.00 90.00 
C 252.95 89.57 253.01 87.33 254.00 86.00
C 252.05 86.43 251.99 88.67 251.00 90.00 Z"/>
</g>
<g fill="#DD3357" fill-opacity="1.00" stroke="None"><path d="
M 239.00 100.00 
C 219.36 148.23 222.83 202.57 240.00 249.00
C 240.12 222.91 234.12 196.23 238.00 169.00 C 239.65 140.11 243.86 111.44 256.00 86.00
C 251.16 91.43 248.30 100.76 239.00 100.00 Z"/>
</g>
<g fill="#DF3358" fill-opacity="1.00" stroke="None"><path d="
M 220.00 100.00 
C 199.36 108.00 194.33 132.93 195.00 154.00 C 195.02 164.58 194.91 179.45 203.00 185.00
C 201.08 155.68 209.51 127.30 220.00 100.00 Z"/>
</g>
<g fill="#70333F" fill-opacity="0.55" stroke="None"><path d="
M 19.00 108.00 
C 20.76 107.50 19.72 105.28 20.00 104.00
C 18.24 104.50 19.28 106.72 19.00 108.00 Z"/>
</g>
<g fill="#643139" fill-opacity="0.48" stroke="None"><path d="
M 15.00 127.00 
C 15.00 135.33 15.00 143.67 15.00 152.00
C 15.00 151.96 16.00 152.00 16.00 152.00
C 15.58 138.74 16.25 125.71 18.00 113.00
C 15.20 116.66 17.17 123.13 15.00 127.00 Z"/>
</g>
<g fill="#60222F" fill-opacity="0.50" stroke="None"><path d="
M 471.00 121.00 
C 471.00 120.00 471.00 119.00 471.00 118.00
C 471.00 118.00 470.97 117.50 471.00 117.00
C 471.00 117.00 470.04 117.13 470.00 117.00
C 470.28 118.25 469.40 120.47 471.00 121.00 Z"/>
</g>
<g fill="#261016" fill-opacity="0.20" stroke="None"><path d="
M 471.00 121.00 
C 471.00 122.00 471.00 123.00 471.00 124.00
C 473.08 126.10 471.50 130.15 472.00 133.00
C 472.25 132.75 473.00 133.00 473.00 133.00
C 473.14 127.88 472.87 122.26 471.00 118.00
C 471.00 119.00 471.00 120.00 471.00 121.00 Z"/>
</g>
<g fill="#611F2E" fill-opacity="0.51" stroke="None"><path d="
M 471.00 130.00 
C 471.00 131.33 471.00 132.67 471.00 134.00
C 471.13 134.22 472.00 134.00 472.00 134.00
C 472.00 133.50 472.00 133.00 472.00 133.00
C 471.50 130.15 473.08 126.10 471.00 124.00
C 471.00 126.00 471.00 128.00 471.00 130.00 Z"/>
</g>
<g fill="#441B23" fill-opacity="0.36" stroke="None"><path d="
M 472.00 134.00 
C 471.34 140.83 473.32 148.99 471.00 155.00
C 471.00 156.67 471.00 158.33 471.00 160.00
C 470.41 162.84 472.22 166.98 470.00 169.00
C 470.00 169.00 469.94 169.51 470.00 170.00
C 469.61 171.57 470.94 174.22 469.00 175.00
C 469.00 175.00 468.95 175.51 469.00 176.00
C 468.53 177.88 470.06 180.93 468.00 182.00
C 468.00 182.00 467.97 182.50 468.00 183.00
C 467.46 187.69 467.60 193.24 465.00 197.00
C 464.88 200.14 463.52 202.93 463.00 206.00
C 463.34 205.77 464.00 206.00 464.00 206.00
C 471.20 182.77 473.59 158.23 473.00 133.00
C 473.00 133.00 472.25 132.75 472.00 133.00
C 472.00 133.00 472.00 133.50 472.00 134.00 Z"/>
</g>
<g fill="#8B2D40" fill-opacity="0.71" stroke="None"><path d="
M 471.00 155.00 
C 473.32 148.99 471.34 140.83 472.00 134.00
C 472.00 134.00 471.13 134.22 471.00 134.00
C 471.00 141.00 471.00 148.00 471.00 155.00 Z"/>
</g>
<g fill="#322023" fill-opacity="0.22" stroke="None"><path d="
M 18.00 176.00 
C 18.00 175.50 18.00 174.50 18.00 174.00
C 18.00 173.50 17.97 172.50 18.00 172.00
C 16.04 170.55 17.44 167.20 17.00 165.00
C 17.03 164.50 17.00 163.50 17.00 163.00
C 14.92 160.90 16.50 156.85 16.00 154.00
C 16.00 153.50 16.00 152.50 16.00 152.00
C 16.00 152.00 15.00 151.96 15.00 152.00
C 15.28 160.09 14.67 169.06 18.00 176.00 Z"/>
</g>
<g fill="#69353E" fill-opacity="0.52" stroke="None"><path d="
M 17.00 163.00 
C 16.50 160.15 18.08 156.10 16.00 154.00
C 16.50 156.85 14.92 160.90 17.00 163.00 Z"/>
</g>
<g fill="#8F2B43" fill-opacity="0.73" stroke="None"><path d="
M 470.00 169.00 
C 472.22 166.98 470.41 162.84 471.00 160.00
C 468.78 162.02 470.59 166.16 470.00 169.00 Z"/>
</g>
<g fill="#6F3642" fill-opacity="0.54" stroke="None"><path d="
M 18.00 172.00 
C 17.56 169.80 18.96 166.45 17.00 165.00
C 17.44 167.20 16.04 170.55 18.00 172.00 Z"/>
</g>
<g fill="#E03559" fill-opacity="1.00" stroke="None"><path d="
M 321.00 361.00 
C 336.34 352.64 343.61 335.61 355.75 324.75 C 378.13 295.67 394.98 260.50 405.02 225.02 C 407.44 204.75 414.79 183.89 411.00 165.00
C 395.38 236.12 363.51 300.75 321.00 361.00 Z"/>
</g>
<g fill="#8F2942" fill-opacity="0.73" stroke="None"><path d="
M 469.00 175.00 
C 470.94 174.22 469.61 171.57 470.00 170.00
C 468.06 170.78 469.39 173.43 469.00 175.00 Z"/>
</g>
<g fill="#6B3541" fill-opacity="0.51" stroke="None"><path d="
M 18.00 176.00 
C 18.00 176.50 18.03 177.50 18.00 178.00
C 18.34 178.23 19.00 178.00 19.00 178.00
C 18.72 176.75 19.60 174.53 18.00 174.00
C 18.00 174.50 18.00 175.50 18.00 176.00 Z"/>
</g>
<g fill="#932C42" fill-opacity="0.75" stroke="None"><path d="
M 468.00 182.00 
C 470.06 180.93 468.53 177.88 469.00 176.00
C 466.94 177.07 468.47 180.12 468.00 182.00 Z"/>
</g>
<g fill="#392528" fill-opacity="0.25" stroke="None"><path d="
M 20.00 186.00 
C 20.29 183.51 18.36 181.61 19.00 179.00
C 19.00 179.00 18.94 178.49 19.00 178.00
C 19.00 178.00 18.34 178.23 18.00 178.00
C 18.01 180.77 17.52 184.30 20.00 186.00 Z"/>
</g>
<g fill="#7F3C49" fill-opacity="0.62" stroke="None"><path d="
M 20.00 186.00 
C 20.00 186.00 20.03 186.50 20.00 187.00
C 22.20 187.74 19.69 191.33 22.00 192.00
C 22.03 187.46 20.76 182.71 19.00 179.00
C 18.36 181.61 20.29 183.51 20.00 186.00 Z"/>
</g>
<g fill="#7D2639" fill-opacity="0.65" stroke="None"><path d="
M 465.00 196.00 
C 464.92 196.49 465.00 197.00 465.00 197.00
C 467.60 193.24 467.46 187.69 468.00 183.00
C 466.14 186.65 465.96 191.75 465.00 196.00 Z"/>
</g>
<g fill="#432A2E" fill-opacity="0.30" stroke="None"><path d="
M 22.00 196.00 
C 22.00 195.00 22.00 194.00 22.00 193.00
C 22.00 193.00 21.97 192.50 22.00 192.00
C 19.69 191.33 22.20 187.74 20.00 187.00
C 19.85 190.13 20.44 193.67 22.00 196.00 Z"/>
</g>
<g fill="#753C48" fill-opacity="0.56" stroke="None"><path d="
M 22.00 196.00 
C 22.00 196.00 22.06 196.51 22.00 197.00
C 23.60 197.53 22.72 199.75 23.00 201.00
C 23.93 202.53 24.23 204.17 24.00 206.00
C 25.98 206.47 23.89 209.60 26.00 210.00
C 25.18 204.25 24.17 198.03 22.00 193.00
C 22.00 194.00 22.00 195.00 22.00 196.00 Z"/>
</g>
<g fill="#A7314C" fill-opacity="0.80" stroke="None"><path d="
M 386.00 351.00 
C 386.80 350.87 387.11 349.91 388.00 350.00
C 388.58 346.67 392.78 345.33 393.00 342.00
C 395.26 338.95 397.09 335.30 400.00 333.00
C 400.16 332.56 400.00 332.00 400.00 332.00
C 400.99 330.67 401.05 328.43 403.00 328.00
C 404.47 325.50 406.34 323.34 408.00 321.00
C 416.98 306.16 426.97 291.77 434.00 276.00
C 435.44 274.08 435.50 270.96 438.00 270.00
C 440.61 262.99 444.43 255.50 448.00 249.00
C 448.00 248.50 448.00 248.00 448.00 248.00
C 448.15 246.59 448.66 244.66 450.00 244.00
C 450.03 243.50 450.00 243.00 450.00 243.00
C 450.15 241.59 450.66 239.66 452.00 239.00
C 452.03 238.50 452.00 238.00 452.00 238.00
C 456.05 228.34 457.26 216.88 463.00 208.00
C 463.02 207.50 462.93 206.49 463.00 206.00
C 463.52 202.93 464.88 200.14 465.00 197.00
C 465.00 197.00 464.92 196.49 465.00 196.00
C 449.50 251.52 420.32 303.89 386.00 351.00 Z"/>
</g>
<g fill="#3B282A" fill-opacity="0.25" stroke="None"><path d="
M 23.00 201.00 
C 22.72 199.75 23.60 197.53 22.00 197.00
C 22.28 198.25 21.40 200.47 23.00 201.00 Z"/>
</g>
<g fill="#382427" fill-opacity="0.24" stroke="None"><path d="
M 28.00 218.00 
C 27.41 215.29 26.60 212.67 26.00 210.00
C 23.89 209.60 25.98 206.47 24.00 206.00
C 24.20 210.25 25.50 214.80 28.00 218.00 Z"/>
</g>
<g fill="#1B0C0F" fill-opacity="0.13" stroke="None"><path d="
M 463.00 208.00 
C 460.79 217.20 457.70 226.24 454.00 235.00
C 459.49 226.82 462.29 215.94 464.00 206.00
C 464.00 206.00 463.34 205.77 463.00 206.00
C 462.93 206.49 463.02 207.50 463.00 208.00 Z"/>
</g>
<g fill="#60212F" fill-opacity="0.49" stroke="None"><path d="
M 452.00 238.00 
C 453.26 237.92 452.56 235.94 454.00 236.00
C 454.00 236.00 453.77 235.36 454.00 235.00
C 457.70 226.24 460.79 217.20 463.00 208.00
C 457.26 216.88 456.05 228.34 452.00 238.00 Z"/>
</g>
<g fill="#E1355A" fill-opacity="1.00" stroke="None"><path d="
M 70.00 210.00 
C 62.88 213.77 70.82 227.04 71.07 232.92 C 73.92 248.73 83.73 263.92 88.01 279.99 C 105.90 315.27 127.07 349.69 157.25 377.75 C 168.65 388.69 178.83 402.09 192.00 407.00
C 184.63 395.30 171.31 382.42 163.30 372.70 C 133.95 336.70 108.76 296.12 87.97 255.03 C 83.11 239.62 71.74 224.62 70.00 210.00 Z"/>
</g>
<g fill="#6D3840" fill-opacity="0.52" stroke="None"><path d="
M 29.00 224.00 
C 30.63 224.71 30.29 227.38 32.00 228.00
C 30.83 225.00 30.93 220.83 28.00 219.00
C 27.80 220.87 29.62 222.06 29.00 224.00 Z"/>
</g>
<g fill="#331F22" fill-opacity="0.22" stroke="None"><path d="
M 33.00 232.00 
C 32.43 231.06 31.85 230.18 32.00 229.00
C 32.00 229.00 32.08 228.49 32.00 228.00
C 30.29 227.38 30.63 224.71 29.00 224.00
C 29.85 226.80 30.13 230.46 33.00 232.00 Z"/>
</g>
<g fill="#70313F" fill-opacity="0.55" stroke="None"><path d="
M 33.00 232.00 
C 32.47 233.93 34.05 235.24 34.00 237.00
C 36.12 239.35 36.95 242.95 38.00 246.00
C 38.00 246.00 37.89 246.53 38.00 247.00
C 48.09 265.92 56.78 286.89 70.00 304.00
C 69.87 303.20 68.91 302.89 69.00 302.00
C 69.00 302.00 69.17 301.43 69.00 301.00
C 53.46 279.14 42.41 253.39 32.00 229.00
C 31.85 230.18 32.43 231.06 33.00 232.00 Z"/>
</g>
<g fill="#270D15" fill-opacity="0.20" stroke="None"><path d="
M 452.00 238.00 
C 452.00 238.00 452.03 238.50 452.00 239.00
C 451.85 240.41 451.35 242.34 450.00 243.00
C 450.00 243.00 450.03 243.50 450.00 244.00
C 449.85 245.41 449.35 247.34 448.00 248.00
C 448.00 248.00 448.00 248.50 448.00 249.00
C 448.00 249.50 448.00 250.00 448.00 250.00
C 451.14 246.17 453.04 240.92 454.00 236.00
C 452.56 235.94 453.26 237.92 452.00 238.00 Z"/>
</g>
<g fill="#2E1A20" fill-opacity="0.20" stroke="None"><path d="
M 38.00 246.00 
C 36.95 242.95 36.12 239.35 34.00 237.00
C 34.74 240.27 35.30 243.81 38.00 246.00 Z"/>
</g>
<g fill="#611D2E" fill-opacity="0.51" stroke="None"><path d="
M 450.00 243.00 
C 451.35 242.34 451.85 240.41 452.00 239.00
C 450.66 239.66 450.15 241.59 450.00 243.00 Z"/>
</g>
<g fill="#601A2B" fill-opacity="0.49" stroke="None"><path d="
M 448.00 248.00 
C 449.35 247.34 449.85 245.41 450.00 244.00
C 448.66 244.66 448.15 246.59 448.00 248.00 Z"/>
</g>
<g fill="#29161A" fill-opacity="0.18" stroke="None"><path d="
M 84.00 327.00 
C 79.56 320.67 74.81 314.66 71.00 308.00
C 71.53 306.72 70.03 306.14 70.00 305.00
C 69.84 304.56 70.00 304.00 70.00 304.00
C 56.78 286.89 48.09 265.92 38.00 247.00
C 50.26 275.30 64.65 302.91 84.00 327.00 Z"/>
</g>
<g fill="#511B27" fill-opacity="0.42" stroke="None"><path d="
M 438.00 270.00 
C 436.56 271.92 436.50 275.04 434.00 276.00
C 426.97 291.77 416.98 306.16 408.00 321.00
C 412.25 317.59 413.76 311.38 418.00 308.00
C 418.00 308.00 417.78 307.36 418.00 307.00
C 421.53 302.64 423.03 296.74 427.00 293.00
C 433.73 278.64 442.22 264.85 448.00 250.00
C 448.00 250.00 448.00 249.50 448.00 249.00
C 444.43 255.50 440.61 262.99 438.00 270.00 Z"/>
</g>
<g fill="#732438" fill-opacity="0.58" stroke="None"><path d="
M 434.00 276.00 
C 436.50 275.04 436.56 271.92 438.00 270.00
C 435.50 270.96 435.44 274.08 434.00 276.00 Z"/>
</g>
<g fill="#1C0C0F" fill-opacity="0.14" stroke="None"><path d="
M 418.00 307.00 
C 422.28 303.52 424.60 297.75 427.00 293.00
C 423.03 296.74 421.53 302.64 418.00 307.00 Z"/>
</g>
<g fill="#C64562" fill-opacity="0.91" stroke="None"><path d="
M 70.00 304.00 
C 70.00 304.00 69.84 304.56 70.00 305.00
C 72.44 307.11 74.56 310.03 76.00 313.00
C 76.16 313.44 76.00 314.00 76.00 314.00
C 78.17 314.93 79.11 317.05 80.00 319.00
C 80.16 319.44 80.00 320.00 80.00 320.00
C 83.90 323.15 86.58 327.68 89.00 332.00
C 89.16 332.44 89.00 333.00 89.00 333.00
C 91.93 334.51 93.25 337.51 95.00 340.00
C 95.22 340.36 95.00 341.00 95.00 341.00
C 98.00 342.06 98.01 345.99 101.00 347.00
C 90.11 332.16 80.46 316.22 69.00 302.00
C 68.91 302.89 69.87 303.20 70.00 304.00 Z"/>
</g>
<g fill="#842F43" fill-opacity="0.65" stroke="None"><path d="
M 71.00 308.00 
C 73.70 308.74 73.57 312.14 76.00 313.00
C 74.56 310.03 72.44 307.11 70.00 305.00
C 70.03 306.14 71.53 306.72 71.00 308.00 Z"/>
</g>
<g fill="#4F262E" fill-opacity="0.39" stroke="None"><path d="
M 84.00 327.00 
C 84.25 328.53 86.55 329.18 86.00 331.00
C 88.48 332.35 89.06 336.00 92.00 337.00
C 91.46 335.34 89.44 334.67 89.00 333.00
C 89.00 333.00 89.16 332.44 89.00 332.00
C 85.50 328.60 82.96 323.99 80.00 320.00
C 80.00 320.00 80.16 319.44 80.00 319.00
C 77.99 318.02 77.36 315.64 76.00 314.00
C 76.00 314.00 76.16 313.44 76.00 313.00
C 73.57 312.14 73.70 308.74 71.00 308.00
C 74.81 314.66 79.56 320.67 84.00 327.00 Z"/>
</g>
<g fill="#35151D" fill-opacity="0.27" stroke="None"><path d="
M 408.00 321.00 
C 406.34 323.34 404.47 325.50 403.00 328.00
C 402.01 329.33 401.95 331.57 400.00 332.00
C 400.00 332.00 400.16 332.56 400.00 333.00
C 398.12 336.25 396.13 339.86 393.00 342.00
C 392.78 345.33 388.58 346.67 388.00 350.00
C 378.87 361.53 369.31 372.64 360.00 384.00
C 353.17 392.32 346.50 401.10 338.00 408.00
C 332.65 414.82 325.30 420.22 320.00 427.00
C 327.16 421.32 332.89 413.63 340.00 408.00
C 369.09 376.56 395.87 343.63 418.00 308.00
C 413.76 311.38 412.25 317.59 408.00 321.00 Z"/>
</g>
<g fill="#91334A" fill-opacity="0.71" stroke="None"><path d="
M 80.00 319.00 
C 79.11 317.05 78.17 314.93 76.00 314.00
C 77.36 315.64 77.99 318.02 80.00 319.00 Z"/>
</g>
<g fill="#903A4C" fill-opacity="0.70" stroke="None"><path d="
M 89.00 332.00 
C 86.58 327.68 83.90 323.15 80.00 320.00
C 82.96 323.99 85.50 328.60 89.00 332.00 Z"/>
</g>
<g fill="#7D263B" fill-opacity="0.64" stroke="None"><path d="
M 400.00 332.00 
C 401.95 331.57 402.01 329.33 403.00 328.00
C 401.05 328.43 400.99 330.67 400.00 332.00 Z"/>
</g>
<g fill="#281518" fill-opacity="0.18" stroke="None"><path d="
M 113.00 366.00 
C 109.34 361.80 106.63 357.17 103.00 353.00
C 102.80 352.60 103.00 352.00 103.00 352.00
C 100.07 350.49 98.75 347.49 97.00 345.00
C 96.78 344.64 97.00 344.00 97.00 344.00
C 94.44 342.81 93.60 340.04 92.00 338.00
C 91.78 337.64 92.00 337.00 92.00 337.00
C 89.06 336.00 88.48 332.35 86.00 331.00
C 94.26 343.32 102.42 355.66 113.00 366.00 Z"/>
</g>
<g fill="#943D50" fill-opacity="0.71" stroke="None"><path d="
M 92.00 337.00 
C 92.00 337.00 91.78 337.64 92.00 338.00
C 93.25 338.30 93.71 339.83 95.00 340.00
C 93.25 337.51 91.93 334.51 89.00 333.00
C 89.44 334.67 91.46 335.34 92.00 337.00 Z"/>
</g>
<g fill="#6C2435" fill-opacity="0.56" stroke="None"><path d="
M 393.00 342.00 
C 396.13 339.86 398.12 336.25 400.00 333.00
C 397.09 335.30 395.26 338.95 393.00 342.00 Z"/>
</g>
<g fill="#612D37" fill-opacity="0.47" stroke="None"><path d="
M 97.00 344.00 
C 96.70 342.75 95.17 342.29 95.00 341.00
C 95.00 341.00 95.22 340.36 95.00 340.00
C 93.71 339.83 93.25 338.30 92.00 338.00
C 93.60 340.04 94.44 342.81 97.00 344.00 Z"/>
</g>
<g fill="#93374B" fill-opacity="0.72" stroke="None"><path d="
M 97.00 344.00 
C 97.00 344.00 96.78 344.64 97.00 345.00
C 98.66 345.54 99.33 347.56 101.00 348.00
C 101.00 348.00 101.22 347.36 101.00 347.00
C 98.01 345.99 98.00 342.06 95.00 341.00
C 95.17 342.29 96.70 342.75 97.00 344.00 Z"/>
</g>
<g fill="#5B2733" fill-opacity="0.45" stroke="None"><path d="
M 103.00 352.00 
C 102.70 350.75 101.17 350.29 101.00 349.00
C 101.00 349.00 101.00 348.50 101.00 348.00
C 99.33 347.56 98.66 345.54 97.00 345.00
C 98.75 347.49 100.07 350.49 103.00 352.00 Z"/>
</g>
<g fill="#98324A" fill-opacity="0.72" stroke="None"><path d="
M 103.00 352.00 
C 103.00 352.00 102.80 352.60 103.00 353.00
C 104.25 353.30 104.71 354.83 106.00 355.00
C 105.83 353.71 104.30 353.25 104.00 352.00
C 103.58 350.64 102.20 349.67 101.00 349.00
C 101.17 350.29 102.70 350.75 103.00 352.00 Z"/>
</g>
<g fill="#882C42" fill-opacity="0.69" stroke="None"><path d="
M 386.00 351.00 
C 374.67 365.23 362.28 378.71 351.00 393.00
C 354.94 390.93 355.92 385.92 360.00 384.00
C 369.31 372.64 378.87 361.53 388.00 350.00
C 387.11 349.91 386.80 350.87 386.00 351.00 Z"/>
</g>
<g fill="#6D2A3A" fill-opacity="0.53" stroke="None"><path d="
M 113.00 366.00 
C 113.00 366.00 112.80 366.60 113.00 367.00
C 115.04 367.81 115.97 370.27 118.00 371.00
C 115.35 367.59 112.61 364.38 110.00 361.00
C 110.24 358.23 106.85 357.35 106.00 355.00
C 104.71 354.83 104.25 353.30 103.00 353.00
C 106.63 357.17 109.34 361.80 113.00 366.00 Z"/>
</g>
<g fill="#A13A51" fill-opacity="0.78" stroke="None"><path d="
M 118.00 371.00 
C 118.20 371.40 118.00 372.00 118.00 372.00
C 121.11 373.73 122.92 377.33 126.00 379.00
C 120.41 373.20 116.22 366.15 110.00 361.00
C 112.61 364.38 115.35 367.59 118.00 371.00 Z"/>
</g>
<g fill="#381F24" fill-opacity="0.26" stroke="None"><path d="
M 118.00 372.00 
C 118.00 372.00 118.20 371.40 118.00 371.00
C 115.97 370.27 115.04 367.81 113.00 367.00
C 114.09 369.00 116.07 370.74 118.00 372.00 Z"/>
</g>
<g fill="#723442" fill-opacity="0.55" stroke="None"><path d="
M 118.00 373.00 
C 125.95 378.84 129.95 388.29 138.00 394.00
C 136.58 391.24 133.35 389.73 132.00 387.00
C 132.09 386.11 131.13 385.80 131.00 385.00
C 129.07 383.74 127.09 382.00 126.00 380.00
C 126.00 380.00 126.20 379.40 126.00 379.00
C 122.92 377.33 121.11 373.73 118.00 372.00
C 118.00 372.00 117.80 372.60 118.00 373.00 Z"/>
</g>
<g fill="#3A2227" fill-opacity="0.27" stroke="None"><path d="
M 142.00 400.00 
C 141.19 397.96 138.73 397.03 138.00 395.00
C 137.80 394.60 138.00 394.00 138.00 394.00
C 129.95 388.29 125.95 378.84 118.00 373.00
C 125.57 382.22 133.43 391.65 142.00 400.00 Z"/>
</g>
<g fill="#A34155" fill-opacity="0.79" stroke="None"><path d="
M 131.00 385.00 
C 129.91 383.00 127.93 381.26 126.00 380.00
C 127.09 382.00 129.07 383.74 131.00 385.00 Z"/>
</g>
<g fill="#642533" fill-opacity="0.52" stroke="None"><path d="
M 351.00 393.00 
C 350.70 394.25 349.17 394.71 349.00 396.00
C 348.04 397.57 346.68 399.25 345.00 400.00
C 343.27 403.11 339.67 404.92 338.00 408.00
C 346.50 401.10 353.17 392.32 360.00 384.00
C 355.92 385.92 354.94 390.93 351.00 393.00 Z"/>
</g>
<g fill="#A93A53" fill-opacity="0.84" stroke="None"><path d="
M 138.00 394.00 
C 138.00 394.00 137.80 394.60 138.00 395.00
C 154.14 411.24 170.43 428.33 187.00 444.00
C 187.80 444.13 188.11 445.09 189.00 445.00
C 192.45 447.05 194.58 451.00 198.00 453.00
C 176.00 431.46 153.48 409.15 132.00 387.00
C 133.35 389.73 136.58 391.24 138.00 394.00 Z"/>
</g>
<g fill="#B43352" fill-opacity="0.89" stroke="None"><path d="
M 292.00 451.00 
C 292.16 450.77 293.00 451.00 293.00 451.00
C 294.57 448.72 296.67 446.43 299.00 445.00
C 299.80 444.87 300.11 443.91 301.00 444.00
C 303.54 440.70 306.69 437.44 310.00 435.00
C 313.11 433.27 314.92 429.67 318.00 428.00
C 324.18 421.01 331.04 414.12 338.00 408.00
C 339.67 404.92 343.27 403.11 345.00 400.00
C 345.96 398.43 347.32 396.75 349.00 396.00
C 349.17 394.71 350.70 394.25 351.00 393.00
C 331.07 411.83 311.71 432.21 292.00 451.00 Z"/>
</g>
<g fill="#682F3C" fill-opacity="0.52" stroke="None"><path d="
M 142.00 400.00 
C 142.73 402.03 145.19 402.96 146.00 405.00
C 160.14 417.39 172.34 432.57 187.00 444.00
C 170.43 428.33 154.14 411.24 138.00 395.00
C 138.73 397.03 141.19 397.96 142.00 400.00 Z"/>
</g>
<g fill="#8C2F45" fill-opacity="0.72" stroke="None"><path d="
M 345.00 400.00 
C 346.68 399.25 348.04 397.57 349.00 396.00
C 347.32 396.75 345.96 398.43 345.00 400.00 Z"/>
</g>
<g fill="#371F24" fill-opacity="0.26" stroke="None"><path d="
M 195.00 452.00 
C 193.58 449.24 190.35 447.73 189.00 445.00
C 188.11 445.09 187.80 444.13 187.00 444.00
C 172.34 432.57 160.14 417.39 146.00 405.00
C 161.51 421.39 177.62 438.00 195.00 452.00 Z"/>
</g>
<g fill="#7F273D" fill-opacity="0.65" stroke="None"><path d="
M 318.00 428.00 
C 318.80 427.87 319.11 426.91 320.00 427.00
C 325.30 420.22 332.65 414.82 338.00 408.00
C 331.04 414.12 324.18 421.01 318.00 428.00 Z"/>
</g>
<g fill="#251217" fill-opacity="0.19" stroke="None"><path d="
M 320.00 427.00 
C 319.11 426.91 318.80 427.87 318.00 428.00
C 310.71 436.35 302.54 444.26 294.00 451.00
C 293.60 451.20 293.00 451.00 293.00 451.00
C 292.19 453.04 289.73 453.97 289.00 456.00
C 306.86 441.46 323.89 424.96 340.00 408.00
C 332.89 413.63 327.16 421.32 320.00 427.00 Z"/>
</g>
<g fill="#58222F" fill-opacity="0.46" stroke="None"><path d="
M 310.00 435.00 
C 307.46 438.30 304.31 441.56 301.00 444.00
C 300.11 443.91 299.80 444.87 299.00 445.00
C 297.89 447.41 295.04 448.62 294.00 451.00
C 302.54 444.26 310.71 436.35 318.00 428.00
C 314.92 429.67 313.11 433.27 310.00 435.00 Z"/>
</g>
<g fill="#832F42" fill-opacity="0.68" stroke="None"><path d="
M 301.00 444.00 
C 304.31 441.56 307.46 438.30 310.00 435.00
C 306.69 437.44 303.54 440.70 301.00 444.00 Z"/>
</g>
<g fill="#792F3F" fill-opacity="0.62" stroke="None"><path d="
M 195.00 452.00 
C 196.29 452.17 196.75 453.70 198.00 454.00
C 199.93 455.26 201.91 457.00 203.00 459.00
C 203.89 458.91 204.20 459.87 205.00 460.00
C 214.88 467.86 225.37 476.09 238.00 478.00
C 225.95 473.53 212.80 467.44 204.00 457.00
C 201.96 455.70 200.05 454.35 198.00 453.00
C 194.58 451.00 192.45 447.05 189.00 445.00
C 190.35 447.73 193.58 449.24 195.00 452.00 Z"/>
</g>
<g fill="#842B3F" fill-opacity="0.68" stroke="None"><path d="
M 293.00 451.00 
C 293.00 451.00 293.60 451.20 294.00 451.00
C 295.04 448.62 297.89 447.41 299.00 445.00
C 296.67 446.43 294.57 448.72 293.00 451.00 Z"/>
</g>
<g fill="#7D2C3D" fill-opacity="0.64" stroke="None"><path d="
M 289.00 453.00 
C 284.51 458.99 276.94 461.80 272.00 467.00
C 272.80 466.87 273.11 465.91 274.00 466.00
C 278.91 462.96 283.12 459.02 288.00 456.00
C 288.81 453.96 291.27 453.03 292.00 451.00
C 290.71 451.17 290.25 452.70 289.00 453.00 Z"/>
</g>
<g fill="#501E29" fill-opacity="0.41" stroke="None"><path d="
M 288.00 456.00 
C 288.00 456.00 288.60 456.20 289.00 456.00
C 289.73 453.97 292.19 453.04 293.00 451.00
C 293.00 451.00 292.16 450.77 292.00 451.00
C 291.27 453.03 288.81 453.96 288.00 456.00 Z"/>
</g>
<g fill="#B73B55" fill-opacity="0.87" stroke="None"><path d="
M 271.00 467.00 
C 271.15 466.77 272.00 467.00 272.00 467.00
C 276.94 461.80 284.51 458.99 289.00 453.00
C 283.11 457.79 276.08 461.33 271.00 467.00 Z"/>
</g>
<g fill="#3B1E25" fill-opacity="0.27" stroke="None"><path d="
M 203.00 459.00 
C 201.91 457.00 199.93 455.26 198.00 454.00
C 199.09 456.00 201.07 457.74 203.00 459.00 Z"/>
</g>
<g fill="#2A1016" fill-opacity="0.21" stroke="None"><path d="
M 274.00 466.00 
C 273.70 467.25 272.17 467.71 272.00 469.00
C 276.94 465.39 284.88 461.76 288.00 456.00
C 283.12 459.02 278.91 462.96 274.00 466.00 Z"/>
</g>
<g fill="#BB3250" fill-opacity="0.92" stroke="None"><path d="
M 238.00 478.00 
C 238.50 478.01 239.00 478.00 239.00 478.00
C 247.27 478.66 255.07 477.08 262.00 473.00
C 262.43 472.83 263.00 473.00 263.00 473.00
C 264.43 470.09 268.61 469.92 270.00 467.00
C 249.03 485.14 221.72 473.65 204.00 457.00
C 212.80 467.44 225.95 473.53 238.00 478.00 Z"/>
</g>
<g fill="#361920" fill-opacity="0.27" stroke="None"><path d="
M 263.00 474.00 
C 262.20 474.13 261.89 475.09 261.00 475.00
C 254.46 477.84 245.80 480.72 239.00 478.00
C 239.00 478.00 238.50 478.01 238.00 478.00
C 225.37 476.09 214.88 467.86 205.00 460.00
C 218.98 474.72 244.67 488.32 263.00 474.00 Z"/>
</g>
<g fill="#4D1B27" fill-opacity="0.40" stroke="None"><path d="
M 272.00 467.00 
C 272.00 467.00 271.15 466.77 271.00 467.00
C 269.24 470.02 265.86 471.36 263.00 473.00
C 263.00 473.00 262.43 472.83 262.00 473.00
C 261.87 473.80 260.91 474.11 261.00 475.00
C 261.89 475.09 262.20 474.13 263.00 474.00
C 266.31 472.90 268.58 469.62 272.00 469.00
C 272.17 467.71 273.70 467.25 274.00 466.00
C 273.11 465.91 272.80 466.87 272.00 467.00 Z"/>
</g>
<g fill="#89293E" fill-opacity="0.69" stroke="None"><path d="
M 263.00 473.00 
C 265.86 471.36 269.24 470.02 271.00 467.00
C 271.00 467.00 270.44 466.84 270.00 467.00
C 268.61 469.92 264.43 470.09 263.00 473.00 Z"/>
</g>
<g fill="#7A273B" fill-opacity="0.62" stroke="None"><path d="
M 239.00 478.00 
C 245.80 480.72 254.46 477.84 261.00 475.00
C 260.91 474.11 261.87 473.80 262.00 473.00
C 255.07 477.08 247.27 478.66 239.00 478.00 Z"/>
</g>
</svg>