<svg xmlns="http://www.w3.org/2000/svg" xmlns:v="https://svgstorm.com"
viewBox = "0 0 552 552"
width="552"
height="552">
<g fill="#000000" fill-opacity="0.00" stroke="None"><path d="
M 0.00 552.00 
L 552.00 552.00
L 552.00 0.00
L 0.00 0.00
L 0.00 552.00
M 172.00 61.00 
C 172.49 60.95 173.00 61.00 173.00 61.00
C 178.82 61.50 185.66 62.49 190.00 66.00
C 190.49 66.08 191.00 66.00 191.00 66.00
C 224.01 76.24 253.11 103.83 266.00 136.00
C 267.30 139.37 270.07 142.20 270.00 146.00
C 272.92 147.20 273.38 150.36 274.00 153.00
C 280.99 149.26 281.23 138.21 287.00 133.00
C 287.66 130.54 288.55 127.28 291.00 126.00
C 291.09 125.52 291.00 125.00 291.00 125.00
C 292.36 120.09 297.21 116.83 299.00 112.00
C 313.26 91.02 335.05 75.44 358.00 67.00
C 358.49 66.92 359.00 67.00 359.00 67.00
C 362.02 63.83 366.88 63.80 371.00 63.00
C 371.49 62.92 372.00 63.00 372.00 63.00
C 373.47 60.84 376.51 60.88 379.00 61.00
C 401.02 57.28 425.10 58.42 446.00 65.00
C 457.46 68.14 469.14 73.08 478.00 81.00
C 481.85 82.14 484.45 86.06 488.00 88.00
C 494.81 93.88 501.58 100.40 506.00 108.00
C 506.55 109.46 508.40 110.18 508.00 112.00
C 515.84 120.03 517.75 132.24 520.00 143.00
C 519.94 145.12 519.77 147.23 521.00 149.00
C 526.17 166.61 524.72 186.82 525.00 206.00
C 524.53 207.88 526.06 210.93 524.00 212.00
C 524.00 213.00 524.00 214.00 524.00 215.00
C 524.08 219.78 524.14 225.17 522.00 229.00
C 522.00 229.50 522.00 230.00 522.00 230.00
C 521.35 234.99 520.88 240.04 520.00 245.00
C 520.24 250.99 518.08 256.98 516.00 262.00
C 516.23 263.83 515.93 265.47 515.00 267.00
C 512.43 280.42 508.30 294.12 502.00 306.00
C 501.92 306.49 502.00 307.00 502.00 307.00
C 494.93 323.20 489.07 341.07 478.00 355.00
C 475.38 360.79 471.34 365.65 468.00 371.00
C 459.49 386.44 447.09 399.75 437.00 414.00
C 425.46 428.26 411.27 441.21 398.00 454.00
C 397.60 454.20 397.00 454.00 397.00 454.00
C 376.96 474.89 353.33 491.83 329.00 507.00
C 328.52 507.10 328.00 507.00 328.00 507.00
C 326.81 509.56 324.04 510.40 322.00 512.00
C 321.06 512.57 320.18 513.15 319.00 513.00
C 318.07 515.17 315.95 516.11 314.00 517.00
C 313.56 517.16 313.00 517.00 313.00 517.00
C 306.45 524.10 296.79 526.90 288.00 530.00
C 286.44 529.59 285.31 530.46 284.00 531.00
C 263.58 535.97 244.21 522.91 229.00 511.00
C 228.56 510.84 228.00 511.00 228.00 511.00
C 222.32 507.63 215.96 504.61 212.00 499.00
C 211.60 498.80 211.00 499.00 211.00 499.00
C 209.03 497.28 206.05 496.63 205.00 494.00
C 201.77 492.28 199.39 489.38 196.00 488.00
C 190.57 484.86 185.39 480.82 181.00 476.00
C 179.54 475.45 178.82 473.60 177.00 474.00
C 155.78 457.64 136.18 437.63 119.00 417.00
C 118.80 416.60 119.00 416.00 119.00 416.00
C 115.37 413.87 113.52 410.08 111.00 407.00
C 106.43 402.12 102.00 396.49 98.00 391.00
C 96.89 389.33 95.70 387.87 95.00 386.00
C 94.84 385.56 95.00 385.00 95.00 385.00
C 71.02 356.87 55.04 322.43 43.00 288.00
C 42.91 287.52 43.00 287.00 43.00 287.00
C 36.63 276.34 35.39 262.45 33.00 250.00
C 31.65 246.52 31.48 242.73 31.00 239.00
C 29.55 235.97 29.16 231.72 29.00 228.00
C 29.00 227.00 29.00 226.00 29.00 225.00
C 23.54 202.61 25.54 175.45 29.00 153.00
C 29.00 152.50 29.00 152.00 29.00 152.00
C 29.78 147.68 29.67 141.96 33.00 139.00
C 33.11 138.52 32.94 137.49 33.00 137.00
C 34.66 131.19 36.06 124.67 40.00 120.00
C 40.07 119.51 40.00 119.00 40.00 119.00
C 40.66 116.54 41.55 113.28 44.00 112.00
C 43.73 110.72 44.77 109.28 46.00 109.00
C 46.00 108.50 46.00 108.00 46.00 108.00
C 49.92 100.08 57.52 93.98 64.00 88.00
C 64.80 87.87 65.11 86.91 66.00 87.00
C 75.18 77.63 87.19 70.44 100.00 68.00
C 111.18 63.61 122.98 61.36 135.00 60.00
C 146.26 58.71 161.21 57.41 172.00 61.00
M 539.00 163.00 
C 538.59 164.56 539.46 165.69 540.00 167.00
C 542.56 174.69 545.46 183.17 545.00 192.00
C 545.00 192.50 545.00 193.50 545.00 194.00
C 546.96 195.45 545.56 198.80 546.00 201.00
C 546.56 203.24 547.38 205.48 547.00 208.00
C 548.66 219.59 548.67 234.48 547.00 246.00
C 547.00 246.50 547.00 247.00 547.00 247.00
C 547.05 250.09 546.68 253.73 545.00 256.00
C 545.00 256.50 545.00 257.00 545.00 257.00
C 544.61 258.57 545.94 261.22 544.00 262.00
C 544.00 262.50 544.00 263.00 544.00 263.00
C 544.68 266.94 542.97 270.21 543.00 274.00
C 539.13 303.81 525.22 331.80 510.00 357.00
C 506.17 363.14 501.22 368.73 498.00 375.00
C 494.92 379.68 491.90 384.82 487.00 388.00
C 486.80 388.40 487.00 389.00 487.00 389.00
C 477.08 400.48 466.38 411.82 455.00 422.00
C 453.75 422.30 453.29 423.83 452.00 424.00
C 447.93 430.61 441.17 434.59 435.00 439.00
C 434.68 439.24 434.00 439.00 434.00 439.00
C 432.81 441.56 430.04 442.40 428.00 444.00
C 427.64 444.22 427.00 444.00 427.00 444.00
C 425.17 447.12 421.48 448.82 418.00 449.00
C 448.60 415.41 479.46 381.35 501.00 342.00
C 501.86 338.07 504.44 334.72 506.00 331.00
C 512.08 317.48 515.95 302.83 523.00 290.00
C 522.59 288.44 523.46 287.31 524.00 286.00
C 525.85 275.94 528.96 265.65 531.00 256.00
C 530.95 255.51 531.00 255.00 531.00 255.00
C 532.01 249.10 532.10 242.30 534.00 237.00
C 536.98 212.65 536.05 187.43 534.00 163.00
C 532.13 161.86 533.39 158.87 533.00 157.00
C 533.03 156.50 533.03 155.50 533.00 155.00
C 531.50 153.36 531.28 148.57 533.00 147.00
C 536.74 150.93 537.87 157.52 539.00 163.00
M 20.00 261.00 
C 19.97 261.50 20.00 262.00 20.00 262.00
C 22.96 271.89 24.94 282.79 28.00 293.00
C 27.59 294.56 28.46 295.69 29.00 297.00
C 30.78 299.54 32.66 302.72 33.00 306.00
C 33.62 309.43 35.38 312.53 36.00 316.00
C 47.23 337.74 57.99 360.70 73.00 381.00
C 73.22 381.36 73.00 382.00 73.00 382.00
C 76.43 385.46 79.85 389.51 82.00 394.00
C 82.16 394.44 82.00 395.00 82.00 395.00
C 90.66 403.53 99.01 413.48 106.77 423.23 C 114.71 433.21 127.44 440.40 133.00 451.00
C 121.49 448.73 112.43 438.88 104.00 431.00
C 103.20 430.87 102.89 429.91 102.00 430.00
C 78.05 409.94 56.51 386.14 41.00 360.00
C 40.84 359.56 41.00 359.00 41.00 359.00
C 28.73 342.15 19.72 322.10 14.00 302.00
C 13.98 301.50 14.00 301.00 14.00 301.00
C 8.44 286.20 5.74 269.49 5.00 253.00
C 5.00 252.50 5.00 251.50 5.00 251.00
C 2.84 248.24 4.55 243.51 4.00 240.00
C 4.00 233.00 4.00 226.00 4.00 219.00
C 4.52 216.81 2.86 213.38 5.00 212.00
C 4.72 203.76 6.35 195.37 8.00 188.00
C 8.00 187.50 7.99 186.50 8.00 186.00
C 9.33 181.53 7.65 175.46 11.00 172.00
C 10.59 170.44 11.46 169.31 12.00 168.00
C 12.44 164.87 12.99 160.73 16.00 159.00
C 12.77 191.65 13.71 228.19 20.00 261.00 Z"/>
</g>
<g fill="#3A2326" fill-opacity="0.25" stroke="None"><path d="
M 135.00 60.00 
C 136.00 60.00 137.00 60.00 138.00 60.00
C 149.41 60.04 160.93 59.58 172.00 61.00
C 161.21 57.41 146.26 58.71 135.00 60.00 Z"/>
</g>
<g fill="#43262C" fill-opacity="0.30" stroke="None"><path d="
M 379.00 61.00 
C 378.87 61.04 379.00 62.00 379.00 62.00
C 382.01 61.79 384.77 60.44 388.00 61.00
C 388.50 61.03 389.50 61.00 390.00 61.00
C 404.54 58.00 420.48 61.22 435.00 63.00
C 437.56 64.06 441.26 63.55 443.00 66.00
C 444.94 65.38 446.13 67.20 448.00 67.00
C 447.92 65.74 445.94 66.44 446.00 65.00
C 425.10 58.42 401.02 57.28 379.00 61.00 Z"/>
</g>
<g fill="#65323C" fill-opacity="0.47" stroke="None"><path d="
M 100.00 68.00 
C 99.78 68.13 100.00 69.00 100.00 69.00
C 106.86 68.07 112.84 63.89 120.00 64.00
C 122.89 62.04 127.21 61.84 131.00 62.00
C 132.97 60.41 135.66 61.20 138.00 61.00
C 137.98 61.00 138.00 60.00 138.00 60.00
C 137.00 60.00 136.00 60.00 135.00 60.00
C 122.98 61.36 111.18 63.61 100.00 68.00 Z"/>
</g>
<g fill="#873E4C" fill-opacity="0.63" stroke="None"><path d="
M 138.00 61.00 
C 156.81 60.20 175.05 61.62 192.00 68.00
C 191.75 67.75 192.00 67.00 192.00 67.00
C 191.65 66.87 191.26 66.12 191.00 66.00
C 191.00 66.00 190.49 66.08 190.00 66.00
C 184.50 64.06 178.18 62.85 173.00 61.00
C 173.00 61.00 172.49 60.95 172.00 61.00
C 160.93 59.58 149.41 60.04 138.00 60.00
C 138.00 60.00 137.98 61.00 138.00 61.00 Z"/>
</g>
<g fill="#983B4F" fill-opacity="0.75" stroke="None"><path d="
M 390.00 61.00 
C 425.15 58.89 458.52 68.41 486.00 89.00
C 476.07 78.19 461.28 73.32 449.00 67.00
C 448.50 66.99 448.00 67.00 448.00 67.00
C 446.13 67.20 444.94 65.38 443.00 66.00
C 440.44 64.94 436.74 65.45 435.00 63.00
C 420.48 61.22 404.54 58.00 390.00 61.00 Z"/>
</g>
<g fill="#CC4360" fill-opacity="0.93" stroke="None"><path d="
M 131.00 62.00 
C 127.98 63.54 123.62 63.37 120.00 64.00
C 112.84 63.89 106.86 68.07 100.00 69.00
C 99.52 69.09 99.00 69.00 99.00 69.00
C 97.89 70.20 95.71 70.66 94.00 71.00
C 75.09 79.86 56.88 94.26 45.00 112.00
C 42.55 116.21 41.12 120.68 39.00 125.00
C 37.47 129.27 36.91 134.55 34.00 138.00
C 34.62 139.94 32.80 141.13 33.00 143.00
C 42.24 113.47 62.66 84.56 93.08 73.08 C 127.16 60.34 167.84 58.66 201.08 73.92 C 229.85 86.49 252.24 113.21 266.00 140.00
C 265.83 139.57 266.00 139.00 266.00 139.00
C 265.43 138.06 264.85 137.18 265.00 136.00
C 261.24 129.72 256.98 123.40 253.00 117.00
C 252.84 116.56 253.00 116.00 253.00 116.00
C 245.29 104.36 233.55 95.49 224.00 85.00
C 221.69 85.45 220.93 82.47 219.00 82.00
C 213.74 79.90 208.29 76.53 204.00 73.00
C 202.72 73.53 202.14 72.03 201.00 72.00
C 198.30 71.11 194.44 70.92 193.00 68.00
C 192.64 67.77 192.00 68.00 192.00 68.00
C 175.05 61.62 156.81 60.20 138.00 61.00
C 135.66 61.20 132.97 60.41 131.00 62.00 Z"/>
</g>
<g fill="#2E1D20" fill-opacity="0.19" stroke="None"><path d="
M 190.00 66.00 
C 185.66 62.49 178.82 61.50 173.00 61.00
C 178.18 62.85 184.50 64.06 190.00 66.00 Z"/>
</g>
<g fill="#231218" fill-opacity="0.15" stroke="None"><path d="
M 372.00 63.00 
C 374.24 62.44 376.48 61.62 379.00 62.00
C 379.00 62.00 378.87 61.04 379.00 61.00
C 376.51 60.88 373.47 60.84 372.00 63.00 Z"/>
</g>
<g fill="#7F3846" fill-opacity="0.60" stroke="None"><path d="
M 379.00 62.00 
C 376.48 61.62 374.24 62.44 372.00 63.00
C 372.00 63.00 371.49 62.92 371.00 63.00
C 370.76 64.67 368.15 63.17 368.00 65.00
C 369.94 65.62 371.13 63.80 373.00 64.00
C 377.99 63.33 383.63 62.64 388.00 61.00
C 384.77 60.44 382.01 61.79 379.00 62.00 Z"/>
</g>
<g fill="#E33C5F" fill-opacity="1.00" stroke="None"><path d="
M 373.00 64.00 
C 372.94 64.01 373.00 65.00 373.00 65.00
C 399.60 60.59 433.81 57.54 453.00 79.00
C 450.23 80.54 448.52 79.19 446.00 78.00
C 453.16 84.64 465.23 89.64 466.98 102.02 C 473.58 112.19 475.73 124.32 479.33 135.67 C 481.49 146.98 485.01 154.99 483.00 166.00
C 488.57 168.82 484.12 180.97 486.00 188.00 C 485.16 211.78 483.61 234.71 476.68 256.68 C 471.89 267.53 474.65 285.31 462.00 293.00
C 464.41 291.93 466.32 291.98 467.00 295.00
C 453.70 319.00 444.33 343.07 427.25 365.25 C 422.86 369.84 419.85 378.78 414.00 379.00
C 415.68 382.01 413.32 381.89 411.00 383.00
C 413.03 386.48 406.61 388.21 404.75 391.75 C 402.09 394.95 399.59 400.79 395.00 396.00
C 396.52 406.61 382.43 412.94 374.75 420.75 C 370.21 423.01 364.98 430.93 361.00 428.00
C 357.77 435.16 344.46 441.81 334.98 445.98 C 306.85 462.29 264.87 474.38 230.30 462.69 C 206.96 458.06 185.44 445.09 164.92 433.08 C 157.54 424.69 142.33 420.95 140.00 409.00
C 135.17 415.57 130.08 401.39 123.78 400.22 C 101.49 377.71 82.28 355.42 66.75 329.25 C 63.10 322.03 58.49 316.43 54.00 310.00
C 54.01 310.50 54.00 311.00 54.00 311.00
C 54.00 311.50 54.00 312.00 54.00 312.00
C 67.34 337.35 80.67 363.84 98.00 387.00
C 100.22 391.01 103.82 394.02 106.00 398.00
C 108.42 399.30 110.04 401.57 111.00 404.00
C 112.74 406.36 114.55 408.51 116.00 411.00
C 122.38 416.80 127.98 423.74 134.00 430.00
C 134.20 430.40 134.00 431.00 134.00 431.00
C 152.48 449.75 172.25 466.88 192.00 483.00
C 194.43 484.24 196.24 486.67 199.00 487.00
C 207.94 494.10 218.37 499.39 226.00 508.00
C 231.40 509.98 236.06 513.93 241.00 517.00
C 254.76 522.76 269.28 535.10 285.23 528.23 C 299.65 525.05 311.67 515.83 324.00 508.00
C 324.36 507.78 325.00 508.00 325.00 508.00
C 325.98 505.99 328.36 505.36 330.00 504.00
C 330.36 503.78 331.00 504.00 331.00 504.00
C 331.98 501.99 334.36 501.36 336.00 500.00
C 336.36 499.78 337.00 500.00 337.00 500.00
C 354.89 485.97 373.72 472.41 391.00 457.00
C 391.32 456.76 392.00 457.00 392.00 457.00
C 406.15 441.65 422.02 427.06 436.00 412.00
C 436.23 411.84 436.00 411.00 436.00 411.00
C 438.86 405.90 443.33 400.84 448.00 397.00
C 452.35 391.34 455.88 384.82 461.00 380.00
C 461.22 379.64 461.00 379.00 461.00 379.00
C 462.72 377.03 463.37 374.05 466.00 373.00
C 466.22 372.64 466.00 372.00 466.00 372.00
C 467.75 367.65 471.75 364.45 473.00 360.00
C 475.57 356.48 476.66 351.72 480.00 349.00
C 480.17 348.57 480.00 348.00 480.00 348.00
C 486.62 337.56 490.62 325.36 497.00 315.00
C 497.57 314.06 498.15 313.18 498.00 312.00
C 506.58 289.28 514.19 265.52 519.00 242.00
C 519.00 241.00 519.00 240.00 519.00 239.00
C 519.22 229.81 520.70 220.29 523.00 212.00
C 523.00 210.00 523.00 208.00 523.00 206.00
C 523.00 195.00 523.00 184.00 523.00 173.00
C 523.00 172.50 523.00 172.00 523.00 172.00
C 521.09 160.70 519.91 148.38 517.00 137.00
C 516.99 136.50 517.00 136.00 517.00 136.00
C 513.80 127.45 510.37 118.02 505.00 110.00
C 504.84 109.56 505.00 109.00 505.00 109.00
C 501.74 107.18 500.32 103.66 498.00 101.00
C 497.76 100.68 498.00 100.00 498.00 100.00
C 494.02 96.81 490.11 92.97 487.00 89.00
C 486.60 88.80 486.00 89.00 486.00 89.00
C 458.52 68.41 425.15 58.89 390.00 61.00
C 389.50 61.00 388.50 61.03 388.00 61.00
C 383.63 62.64 377.99 63.33 373.00 64.00 Z"/>
</g>
<g fill="#A93E52" fill-opacity="0.80" stroke="None"><path d="
M 120.00 64.00 
C 123.62 63.37 127.98 63.54 131.00 62.00
C 127.21 61.84 122.89 62.04 120.00 64.00 Z"/>
</g>
<g fill="#F5466C" fill-opacity="1.00" stroke="None"><path d="
M 373.00 65.00 
C 345.75 72.58 320.70 88.50 302.00 111.00
C 301.79 111.39 302.00 112.00 302.00 112.00
C 295.05 123.75 286.55 134.93 282.08 148.08 C 280.95 157.54 268.76 158.61 269.00 148.00
C 268.94 147.51 269.00 146.50 269.00 146.00
C 269.00 145.50 269.00 145.00 269.00 145.00
C 267.51 143.84 266.98 141.66 266.00 140.00
C 252.24 113.21 229.85 86.49 201.08 73.92 C 167.84 58.66 127.16 60.34 93.08 73.08 C 62.66 84.56 42.24 113.47 33.00 143.00
C 33.41 144.56 32.54 145.69 32.00 147.00
C 29.83 167.02 28.20 187.22 29.00 208.00
C 29.00 211.33 29.00 214.67 29.00 218.00
C 31.70 224.89 32.23 233.25 33.00 241.00
C 33.00 242.00 33.00 243.00 33.00 244.00
C 37.21 258.55 40.35 274.24 45.00 289.00
C 48.68 295.38 52.27 302.66 54.00 310.00
C 58.49 316.43 63.10 322.03 66.75 329.25 C 82.28 355.42 101.49 377.71 123.78 400.22 C 130.08 401.39 135.17 415.57 140.00 409.00
C 142.33 420.95 157.54 424.69 164.92 433.08 C 185.44 445.09 206.96 458.06 230.30 462.69 C 264.87 474.38 306.85 462.29 334.98 445.98 C 344.46 441.81 357.77 435.16 361.00 428.00
C 364.98 430.93 370.21 423.01 374.75 420.75 C 382.43 412.94 396.52 406.61 395.00 396.00
C 399.59 400.79 402.09 394.95 404.75 391.75 C 406.61 388.21 413.03 386.48 411.00 383.00
C 413.32 381.89 415.68 382.01 414.00 379.00
C 419.85 378.78 422.86 369.84 427.25 365.25 C 444.33 343.07 453.70 319.00 467.00 295.00
C 466.32 291.98 464.41 291.93 462.00 293.00
C 474.65 285.31 471.89 267.53 476.68 256.68 C 483.61 234.71 485.16 211.78 486.00 188.00 C 484.12 180.97 488.57 168.82 483.00 166.00
C 485.01 154.99 481.49 146.98 479.33 135.67 C 475.73 124.32 473.58 112.19 466.98 102.02 C 465.23 89.64 453.16 84.64 446.00 78.00
C 448.52 79.19 450.23 80.54 453.00 79.00
C 433.81 57.54 399.60 60.59 373.00 65.00 Z"/>
</g>
<g fill="#2B181D" fill-opacity="0.18" stroke="None"><path d="
M 359.00 67.00 
C 361.77 66.73 364.07 64.78 367.00 65.00
C 367.50 64.98 368.00 65.00 368.00 65.00
C 368.15 63.17 370.76 64.67 371.00 63.00
C 366.88 63.80 362.02 63.83 359.00 67.00 Z"/>
</g>
<g fill="#763A45" fill-opacity="0.54" stroke="None"><path d="
M 443.00 66.00 
C 441.26 63.55 437.56 64.06 435.00 63.00
C 436.74 65.45 440.44 64.94 443.00 66.00 Z"/>
</g>
<g fill="#B43F58" fill-opacity="0.83" stroke="None"><path d="
M 368.00 65.00 
C 368.00 65.00 367.50 64.98 367.00 65.00
C 343.92 73.44 322.43 87.16 305.00 106.00
C 305.00 106.50 305.00 107.00 305.00 107.00
C 304.46 108.66 302.44 109.33 302.00 111.00
C 320.70 88.50 345.75 72.58 373.00 65.00
C 373.00 65.00 372.94 64.01 373.00 64.00
C 371.13 63.80 369.94 65.62 368.00 65.00 Z"/>
</g>
<g fill="#6A2D3A" fill-opacity="0.51" stroke="None"><path d="
M 359.00 67.00 
C 359.00 67.00 358.49 66.92 358.00 67.00
C 344.82 74.04 330.44 80.47 319.00 91.00
C 314.82 95.99 309.96 100.89 305.00 105.00
C 304.80 105.40 305.00 106.00 305.00 106.00
C 322.43 87.16 343.92 73.44 367.00 65.00
C 364.07 64.78 361.77 66.73 359.00 67.00 Z"/>
</g>
<g fill="#231518" fill-opacity="0.15" stroke="None"><path d="
M 448.00 67.00 
C 448.00 67.00 448.50 66.99 449.00 67.00
C 459.43 69.54 468.71 75.64 478.00 81.00
C 469.14 73.08 457.46 68.14 446.00 65.00
C 445.94 66.44 447.92 65.74 448.00 67.00 Z"/>
</g>
<g fill="#27191B" fill-opacity="0.16" stroke="None"><path d="
M 192.00 67.00 
C 203.27 71.27 215.27 76.44 224.00 85.00
C 224.16 85.23 225.00 85.00 225.00 85.00
C 233.59 90.87 240.88 99.40 248.00 107.00
C 248.20 107.40 248.00 108.00 248.00 108.00
C 252.59 113.00 256.17 119.28 260.00 125.00
C 261.58 128.73 264.13 132.04 265.00 136.00
C 265.06 136.16 266.00 136.00 266.00 136.00
C 253.11 103.83 224.01 76.24 191.00 66.00
C 191.26 66.12 191.65 66.87 192.00 67.00 Z"/>
</g>
<g fill="#653640" fill-opacity="0.46" stroke="None"><path d="
M 192.00 68.00 
C 192.00 68.00 192.64 67.77 193.00 68.00
C 195.40 69.96 199.14 69.58 201.00 72.00
C 202.14 72.03 202.72 73.53 204.00 73.00
C 209.20 75.64 214.67 78.33 219.00 82.00
C 220.93 82.47 221.69 85.45 224.00 85.00
C 215.27 76.44 203.27 71.27 192.00 67.00
C 192.00 67.00 191.75 67.75 192.00 68.00 Z"/>
</g>
<g fill="#231216" fill-opacity="0.15" stroke="None"><path d="
M 299.00 112.00 
C 299.80 111.87 300.11 110.91 301.00 111.00
C 301.96 109.43 303.32 107.75 305.00 107.00
C 305.00 107.00 305.00 106.50 305.00 106.00
C 305.00 106.00 304.80 105.40 305.00 105.00
C 309.19 100.01 314.04 95.11 319.00 91.00
C 330.44 80.47 344.82 74.04 358.00 67.00
C 335.05 75.44 313.26 91.02 299.00 112.00 Z"/>
</g>
<g fill="#5A313A" fill-opacity="0.43" stroke="None"><path d="
M 486.00 89.00 
C 486.00 89.00 486.60 88.80 487.00 89.00
C 490.98 92.19 494.89 96.03 498.00 100.00
C 498.00 100.00 497.76 100.68 498.00 101.00
C 501.26 102.82 502.68 106.34 505.00 109.00
C 505.00 109.00 504.84 109.56 505.00 110.00
C 507.22 110.49 506.74 113.57 509.00 114.00
C 508.87 113.20 507.91 112.89 508.00 112.00
C 508.40 110.18 506.55 109.46 506.00 108.00
C 500.52 101.30 494.01 94.60 488.00 88.00
C 484.45 86.06 481.85 82.14 478.00 81.00
C 468.71 75.64 459.43 69.54 449.00 67.00
C 461.28 73.32 476.07 78.19 486.00 89.00 Z"/>
</g>
<g fill="#351C21" fill-opacity="0.24" stroke="None"><path d="
M 66.00 87.00 
C 74.67 80.95 83.21 74.84 93.00 71.00
C 94.41 69.71 96.86 68.96 99.00 69.00
C 99.00 69.00 99.52 69.09 100.00 69.00
C 100.00 69.00 99.78 68.13 100.00 68.00
C 87.19 70.44 75.18 77.63 66.00 87.00 Z"/>
</g>
<g fill="#A0445A" fill-opacity="0.75" stroke="None"><path d="
M 201.00 72.00 
C 199.14 69.58 195.40 69.96 193.00 68.00
C 194.44 70.92 198.30 71.11 201.00 72.00 Z"/>
</g>
<g fill="#68343F" fill-opacity="0.48" stroke="None"><path d="
M 93.00 71.00 
C 93.36 70.77 94.00 71.00 94.00 71.00
C 95.71 70.66 97.89 70.20 99.00 69.00
C 96.86 68.96 94.41 69.71 93.00 71.00 Z"/>
</g>
<g fill="#8C3447" fill-opacity="0.67" stroke="None"><path d="
M 66.00 87.00 
C 61.82 91.99 56.96 96.89 52.00 101.00
C 50.17 103.43 48.95 106.63 46.00 108.00
C 46.00 108.00 46.00 108.50 46.00 109.00
C 46.53 110.28 45.03 110.86 45.00 112.00
C 56.88 94.26 75.09 79.86 94.00 71.00
C 94.00 71.00 93.36 70.77 93.00 71.00
C 83.21 74.84 74.67 80.95 66.00 87.00 Z"/>
</g>
<g fill="#9E3F54" fill-opacity="0.76" stroke="None"><path d="
M 219.00 82.00 
C 214.67 78.33 209.20 75.64 204.00 73.00
C 208.29 76.53 213.74 79.90 219.00 82.00 Z"/>
</g>
<g fill="#9E485A" fill-opacity="0.75" stroke="None"><path d="
M 253.00 116.00 
C 251.31 113.29 249.28 110.92 248.00 108.00
C 248.00 108.00 248.20 107.40 248.00 107.00
C 240.11 99.98 232.54 91.96 225.00 85.00
C 225.00 85.00 224.16 85.23 224.00 85.00
C 233.55 95.49 245.29 104.36 253.00 116.00 Z"/>
</g>
<g fill="#613A41" fill-opacity="0.44" stroke="None"><path d="
M 248.00 107.00 
C 240.88 99.40 233.59 90.87 225.00 85.00
C 232.54 91.96 240.11 99.98 248.00 107.00 Z"/>
</g>
<g fill="#F8778F" fill-opacity="1.00" stroke="None"><path d="
M 150.00 86.00 
C 116.40 82.50 88.72 107.41 71.92 133.92 C 64.10 144.42 55.92 175.79 77.77 173.77 C 96.70 150.51 117.68 125.79 147.77 117.77 C 165.96 115.96 169.72 87.98 150.00 86.00 Z"/>
</g>
<g fill="#6F2B3B" fill-opacity="0.53" stroke="None"><path d="
M 64.00 88.00 
C 60.64 92.81 55.31 96.23 52.00 101.00
C 56.96 96.89 61.82 91.99 66.00 87.00
C 65.11 86.91 64.80 87.87 64.00 88.00 Z"/>
</g>
<g fill="#3B1C23" fill-opacity="0.27" stroke="None"><path d="
M 46.00 108.00 
C 48.95 106.63 50.17 103.43 52.00 101.00
C 55.31 96.23 60.64 92.81 64.00 88.00
C 57.52 93.98 49.92 100.08 46.00 108.00 Z"/>
</g>
<g fill="#322124" fill-opacity="0.22" stroke="None"><path d="
M 506.00 108.00 
C 501.58 100.40 494.81 93.88 488.00 88.00
C 494.01 94.60 500.52 101.30 506.00 108.00 Z"/>
</g>
<g fill="#8F3C4F" fill-opacity="0.74" stroke="None"><path d="
M 498.00 100.00 
C 494.89 96.03 490.98 92.19 487.00 89.00
C 490.11 92.97 494.02 96.81 498.00 100.00 Z"/>
</g>
<g fill="#461E27" fill-opacity="0.34" stroke="None"><path d="
M 305.00 105.00 
C 309.96 100.89 314.82 95.99 319.00 91.00
C 314.04 95.11 309.19 100.01 305.00 105.00 Z"/>
</g>
<g fill="#993A4F" fill-opacity="0.78" stroke="None"><path d="
M 505.00 109.00 
C 502.68 106.34 501.26 102.82 498.00 101.00
C 500.32 103.66 501.74 107.18 505.00 109.00 Z"/>
</g>
<g fill="#752F3F" fill-opacity="0.57" stroke="None"><path d="
M 301.00 111.00 
C 300.70 112.25 299.17 112.71 299.00 114.00
C 300.25 113.70 300.71 112.17 302.00 112.00
C 302.00 112.00 301.79 111.39 302.00 111.00
C 302.44 109.33 304.46 108.66 305.00 107.00
C 303.32 107.75 301.96 109.43 301.00 111.00 Z"/>
</g>
<g fill="#69343F" fill-opacity="0.49" stroke="None"><path d="
M 253.00 116.00 
C 253.00 116.00 252.84 116.56 253.00 117.00
C 256.18 118.79 256.48 123.47 260.00 125.00
C 256.17 119.28 252.59 113.00 248.00 108.00
C 249.28 110.92 251.31 113.29 253.00 116.00 Z"/>
</g>
<g fill="#6E2B3A" fill-opacity="0.52" stroke="None"><path d="
M 44.00 112.00 
C 42.49 114.23 42.05 117.34 40.00 119.00
C 40.00 119.00 40.07 119.51 40.00 120.00
C 40.06 121.89 38.58 123.29 38.00 125.00
C 38.04 124.87 39.00 125.00 39.00 125.00
C 41.12 120.68 42.55 116.21 45.00 112.00
C 45.03 110.86 46.53 110.28 46.00 109.00
C 44.77 109.28 43.73 110.72 44.00 112.00 Z"/>
</g>
<g fill="#88394B" fill-opacity="0.69" stroke="None"><path d="
M 517.00 136.00 
C 516.49 128.01 512.57 121.02 509.00 114.00
C 506.74 113.57 507.22 110.49 505.00 110.00
C 510.37 118.02 513.80 127.45 517.00 136.00 Z"/>
</g>
<g fill="#421C24" fill-opacity="0.32" stroke="None"><path d="
M 299.00 112.00 
C 297.21 116.83 292.36 120.09 291.00 125.00
C 293.91 123.57 294.08 119.39 297.00 118.00
C 297.55 116.54 299.40 115.82 299.00 114.00
C 299.17 112.71 300.70 112.25 301.00 111.00
C 300.11 110.91 299.80 111.87 299.00 112.00 Z"/>
</g>
<g fill="#33181F" fill-opacity="0.24" stroke="None"><path d="
M 40.00 119.00 
C 42.05 117.34 42.49 114.23 44.00 112.00
C 41.55 113.28 40.66 116.54 40.00 119.00 Z"/>
</g>
<g fill="#BD405B" fill-opacity="0.84" stroke="None"><path d="
M 299.00 114.00 
C 299.40 115.82 297.55 116.54 297.00 118.00
C 294.92 121.46 293.10 125.48 290.00 128.00
C 287.70 131.85 287.12 136.83 284.00 140.00
C 283.89 140.47 284.00 141.00 284.00 141.00
C 282.38 149.38 273.31 161.61 269.00 148.00
C 268.76 158.61 280.95 157.54 282.08 148.08 C 286.55 134.93 295.05 123.75 302.00 112.00
C 300.71 112.17 300.25 113.70 299.00 114.00 Z"/>
</g>
<g fill="#3A2327" fill-opacity="0.26" stroke="None"><path d="
M 509.00 114.00 
C 512.57 121.02 516.49 128.01 517.00 136.00
C 517.00 136.00 516.99 136.50 517.00 137.00
C 518.89 138.26 518.05 141.80 520.00 143.00
C 517.75 132.24 515.84 120.03 508.00 112.00
C 507.91 112.89 508.87 113.20 509.00 114.00 Z"/>
</g>
<g fill="#8B3E4F" fill-opacity="0.67" stroke="None"><path d="
M 265.00 136.00 
C 264.13 132.04 261.58 128.73 260.00 125.00
C 256.48 123.47 256.18 118.79 253.00 117.00
C 256.98 123.40 261.24 129.72 265.00 136.00 Z"/>
</g>
<g fill="#862E42" fill-opacity="0.63" stroke="None"><path d="
M 291.00 125.00 
C 291.00 125.00 291.09 125.52 291.00 126.00
C 290.87 126.80 289.91 127.11 290.00 128.00
C 293.10 125.48 294.92 121.46 297.00 118.00
C 294.08 119.39 293.91 123.57 291.00 125.00 Z"/>
</g>
<g fill="#3C1D24" fill-opacity="0.28" stroke="None"><path d="
M 33.00 137.00 
C 33.34 136.77 34.00 137.00 34.00 137.00
C 35.60 133.07 36.91 129.10 38.00 125.00
C 38.58 123.29 40.06 121.89 40.00 120.00
C 36.06 124.67 34.66 131.19 33.00 137.00 Z"/>
</g>
<g fill="#943A4D" fill-opacity="0.69" stroke="None"><path d="
M 34.00 137.00 
C 33.82 137.43 34.00 138.00 34.00 138.00
C 36.91 134.55 37.47 129.27 39.00 125.00
C 39.00 125.00 38.04 124.87 38.00 125.00
C 36.91 129.10 35.60 133.07 34.00 137.00 Z"/>
</g>
<g fill="#5D232F" fill-opacity="0.45" stroke="None"><path d="
M 287.00 133.00 
C 286.03 135.37 284.25 137.39 284.00 140.00
C 287.12 136.83 287.70 131.85 290.00 128.00
C 289.91 127.11 290.87 126.80 291.00 126.00
C 288.55 127.28 287.66 130.54 287.00 133.00 Z"/>
</g>
<g fill="#2B1318" fill-opacity="0.19" stroke="None"><path d="
M 270.00 146.00 
C 273.50 160.36 280.55 147.88 284.00 141.00
C 284.00 141.00 283.89 140.47 284.00 140.00
C 284.25 137.39 286.03 135.37 287.00 133.00
C 281.23 138.21 280.99 149.26 274.00 153.00
C 273.38 150.36 272.92 147.20 270.00 146.00 Z"/>
</g>
<g fill="#4C252E" fill-opacity="0.37" stroke="None"><path d="
M 266.00 139.00 
C 267.47 140.49 268.74 142.78 269.00 145.00
C 269.00 145.00 269.00 145.50 269.00 146.00
C 269.25 146.25 270.00 146.00 270.00 146.00
C 270.07 142.20 267.30 139.37 266.00 136.00
C 266.00 136.00 265.06 136.16 265.00 136.00
C 264.85 137.18 265.43 138.06 266.00 139.00 Z"/>
</g>
<g fill="#75303F" fill-opacity="0.55" stroke="None"><path d="
M 33.00 139.00 
C 31.86 141.53 31.30 144.22 31.00 147.00
C 31.25 146.75 32.00 147.00 32.00 147.00
C 32.54 145.69 33.41 144.56 33.00 143.00
C 32.80 141.13 34.62 139.94 34.00 138.00
C 34.00 138.00 33.82 137.43 34.00 137.00
C 34.00 137.00 33.34 136.77 33.00 137.00
C 32.94 137.49 33.11 138.52 33.00 139.00 Z"/>
</g>
<g fill="#8D394C" fill-opacity="0.73" stroke="None"><path d="
M 523.00 172.00 
C 523.76 163.97 521.00 156.86 521.00 149.00
C 519.77 147.23 519.94 145.12 520.00 143.00
C 518.05 141.80 518.89 138.26 517.00 137.00
C 519.91 148.38 521.09 160.70 523.00 172.00 Z"/>
</g>
<g fill="#2A161B" fill-opacity="0.18" stroke="None"><path d="
M 29.00 152.00 
C 30.98 151.53 28.89 148.40 31.00 148.00
C 31.01 147.50 31.00 147.00 31.00 147.00
C 31.30 144.22 31.86 141.53 33.00 139.00
C 29.67 141.96 29.78 147.68 29.00 152.00 Z"/>
</g>
<g fill="#853446" fill-opacity="0.65" stroke="None"><path d="
M 266.00 140.00 
C 266.98 141.66 267.51 143.84 269.00 145.00
C 268.74 142.78 267.47 140.49 266.00 139.00
C 266.00 139.00 265.83 139.57 266.00 140.00 Z"/>
</g>
<g fill="#73313F" fill-opacity="0.53" stroke="None"><path d="
M 270.00 146.00 
C 270.00 146.00 269.25 146.25 269.00 146.00
C 269.00 146.50 268.94 147.51 269.00 148.00
C 273.31 161.61 282.38 149.38 284.00 141.00
C 280.55 147.88 273.50 160.36 270.00 146.00 Z"/>
</g>
<g fill="#C6385B" fill-opacity="0.90" stroke="None"><path d="
M 31.00 148.00 
C 28.94 167.39 26.14 188.61 29.00 208.00
C 28.20 187.22 29.83 167.02 32.00 147.00
C 32.00 147.00 31.25 146.75 31.00 147.00
C 31.00 147.00 31.01 147.50 31.00 148.00 Z"/>
</g>
<g fill="#241D1F" fill-opacity="0.17" stroke="None"><path d="
M 533.00 155.00 
C 533.47 153.12 531.94 150.07 534.00 149.00
C 535.23 153.73 537.12 158.82 539.00 163.00
C 537.87 157.52 536.74 150.93 533.00 147.00
C 531.28 148.57 531.50 153.36 533.00 155.00 Z"/>
</g>
<g fill="#822F42" fill-opacity="0.62" stroke="None"><path d="
M 29.00 152.00 
C 29.00 152.00 29.00 152.50 29.00 153.00
C 27.86 174.44 24.46 198.16 29.00 219.00
C 29.00 218.50 29.00 218.00 29.00 218.00
C 29.00 214.67 29.00 211.33 29.00 208.00
C 26.14 188.61 28.94 167.39 31.00 148.00
C 28.89 148.40 30.98 151.53 29.00 152.00 Z"/>
</g>
<g fill="#4E2730" fill-opacity="0.38" stroke="None"><path d="
M 523.00 172.00 
C 523.00 172.00 523.00 172.50 523.00 173.00
C 525.32 183.09 523.34 195.16 524.00 206.00
C 524.02 205.90 525.00 206.00 525.00 206.00
C 524.72 186.82 526.17 166.61 521.00 149.00
C 521.00 156.86 523.76 163.97 523.00 172.00 Z"/>
</g>
<g fill="#4D2D33" fill-opacity="0.36" stroke="None"><path d="
M 533.00 155.00 
C 533.03 155.50 533.03 156.50 533.00 157.00
C 534.87 158.14 533.61 161.13 534.00 163.00
C 536.05 187.43 536.98 212.65 534.00 237.00
C 534.74 241.28 532.67 244.80 533.00 249.00
C 535.20 248.26 532.69 244.67 535.00 244.00
C 534.98 243.50 535.00 242.50 535.00 242.00
C 534.42 236.11 536.72 230.94 536.00 225.00
C 536.59 222.16 534.78 218.02 537.00 216.00
C 537.00 206.33 537.00 196.67 537.00 187.00
C 534.92 184.90 536.50 180.85 536.00 178.00
C 537.02 171.01 532.92 163.28 536.00 157.00
C 537.63 160.44 536.60 165.72 540.00 168.00
C 540.03 167.50 540.00 167.00 540.00 167.00
C 539.46 165.69 538.59 164.56 539.00 163.00
C 537.12 158.82 535.23 153.73 534.00 149.00
C 531.94 150.07 533.47 153.12 533.00 155.00 Z"/>
</g>
<g fill="#351B20" fill-opacity="0.24" stroke="None"><path d="
M 29.00 225.00 
C 29.00 224.00 29.00 223.00 29.00 222.00
C 29.00 221.00 29.00 220.00 29.00 219.00
C 24.46 198.16 27.86 174.44 29.00 153.00
C 25.54 175.45 23.54 202.61 29.00 225.00 Z"/>
</g>
<g fill="#291F20" fill-opacity="0.17" stroke="None"><path d="
M 534.00 163.00 
C 533.61 161.13 534.87 158.14 533.00 157.00
C 533.39 158.87 532.13 161.86 534.00 163.00 Z"/>
</g>
<g fill="#9B4658" fill-opacity="0.76" stroke="None"><path d="
M 536.00 178.00 
C 536.00 177.96 537.00 178.00 537.00 178.00
C 537.61 174.83 535.75 170.35 538.00 168.00
C 545.88 196.12 546.13 227.11 544.00 257.00
C 544.34 256.77 545.00 257.00 545.00 257.00
C 545.00 257.00 545.00 256.50 545.00 256.00
C 545.26 252.97 544.26 249.63 546.00 247.00
C 545.53 231.70 547.06 215.91 545.00 201.00
C 545.00 200.00 545.00 199.00 545.00 198.00
C 543.13 196.86 544.39 193.87 544.00 192.00
C 544.18 183.60 540.69 176.16 540.00 168.00
C 536.60 165.72 537.63 160.44 536.00 157.00
C 532.92 163.28 537.02 171.01 536.00 178.00 Z"/>
</g>
<g fill="#312225" fill-opacity="0.22" stroke="None"><path d="
M 12.00 168.00 
C 13.67 167.76 12.17 165.15 14.00 165.00
C 14.13 180.11 12.27 194.73 13.00 210.00
C 13.00 213.00 13.00 216.00 13.00 219.00
C 14.96 220.45 13.56 223.80 14.00 226.00
C 14.00 228.00 14.00 230.00 14.00 232.00
C 14.00 232.50 14.00 233.00 14.00 233.00
C 16.74 241.66 16.56 252.57 20.00 261.00
C 13.71 228.19 12.77 191.65 16.00 159.00
C 12.99 160.73 12.44 164.87 12.00 168.00 Z"/>
</g>
<g fill="#6D424B" fill-opacity="0.52" stroke="None"><path d="
M 12.00 168.00 
C 11.46 169.31 10.59 170.44 11.00 172.00
C 11.04 172.50 11.00 173.00 11.00 173.00
C 12.26 172.92 11.56 170.94 13.00 171.00
C 12.38 174.50 14.27 179.32 12.00 182.00
C 12.66 191.17 10.67 201.66 13.00 210.00
C 12.27 194.73 14.13 180.11 14.00 165.00
C 12.17 165.15 13.67 167.76 12.00 168.00 Z"/>
</g>
<g fill="#342426" fill-opacity="0.22" stroke="None"><path d="
M 540.00 168.00 
C 540.69 176.16 544.18 183.60 544.00 192.00
C 544.00 191.98 545.00 192.00 545.00 192.00
C 545.46 183.17 542.56 174.69 540.00 167.00
C 540.00 167.00 540.03 167.50 540.00 168.00 Z"/>
</g>
<g fill="#E64366" fill-opacity="0.99" stroke="None"><path d="
M 537.00 178.00 
C 537.00 179.33 537.00 180.67 537.00 182.00
C 538.66 194.26 538.67 209.81 537.00 222.00
C 537.00 223.00 537.00 224.00 537.00 225.00
C 537.10 230.78 536.89 237.11 535.00 242.00
C 535.00 242.50 534.98 243.50 535.00 244.00
C 534.31 249.32 534.47 255.52 532.00 260.00
C 532.23 261.83 531.93 263.47 531.00 265.00
C 530.08 275.14 525.57 284.29 523.00 294.00
C 515.90 316.25 506.91 339.09 493.00 358.00
C 490.29 364.70 485.44 370.55 482.00 377.00
C 478.11 383.20 473.56 389.96 468.00 395.00
C 467.76 395.32 468.00 396.00 468.00 396.00
C 458.23 408.76 446.71 420.26 437.00 433.00
C 450.81 425.06 461.65 411.57 474.00 401.00
C 474.13 400.20 475.09 399.89 475.00 399.00
C 476.57 396.72 478.67 394.43 481.00 393.00
C 481.30 391.75 482.83 391.29 483.00 390.00
C 488.04 384.01 492.23 377.16 498.00 372.00
C 498.24 371.68 498.00 371.00 498.00 371.00
C 500.36 368.55 500.64 364.48 504.00 363.00
C 505.24 360.57 507.67 358.76 508.00 356.00
C 514.11 346.78 518.32 336.19 524.00 327.00
C 533.81 305.35 539.73 281.92 544.00 259.00
C 543.82 258.92 544.00 257.50 544.00 257.00
C 546.13 227.11 545.88 196.12 538.00 168.00
C 535.75 170.35 537.61 174.83 537.00 178.00 Z"/>
</g>
<g fill="#884454" fill-opacity="0.71" stroke="None"><path d="
M 11.00 173.00 
C 9.91 177.22 10.32 182.47 8.00 186.00
C 7.99 186.50 8.00 187.50 8.00 188.00
C 8.00 188.50 8.00 189.00 8.00 189.00
C 10.26 185.44 11.15 180.56 11.00 176.00
C 12.87 177.14 11.61 180.13 12.00 182.00
C 14.27 179.32 12.38 174.50 13.00 171.00
C 11.56 170.94 12.26 172.92 11.00 173.00 Z"/>
</g>
<g fill="#482C32" fill-opacity="0.33" stroke="None"><path d="
M 8.00 186.00 
C 10.32 182.47 9.91 177.22 11.00 173.00
C 11.00 173.00 11.04 172.50 11.00 172.00
C 7.65 175.46 9.33 181.53 8.00 186.00 Z"/>
</g>
<g fill="#9C354D" fill-opacity="0.78" stroke="None"><path d="
M 523.00 206.00 
C 523.02 205.90 524.00 206.00 524.00 206.00
C 523.34 195.16 525.32 183.09 523.00 173.00
C 523.00 184.00 523.00 195.00 523.00 206.00 Z"/>
</g>
<g fill="#AA435A" fill-opacity="0.85" stroke="None"><path d="
M 8.00 189.00 
C 8.72 196.02 5.72 202.07 6.00 209.00
C 8.52 204.06 7.70 197.33 10.00 192.00
C 12.27 200.53 10.08 211.69 13.00 220.00
C 13.00 219.50 13.00 219.00 13.00 219.00
C 13.00 216.00 13.00 213.00 13.00 210.00
C 10.67 201.66 12.66 191.17 12.00 182.00
C 11.61 180.13 12.87 177.14 11.00 176.00
C 11.15 180.56 10.26 185.44 8.00 189.00 Z"/>
</g>
<g fill="#85404F" fill-opacity="0.59" stroke="None"><path d="
M 537.00 187.00 
C 537.00 185.33 537.00 183.67 537.00 182.00
C 537.00 180.67 537.00 179.33 537.00 178.00
C 537.00 178.00 536.00 177.96 536.00 178.00
C 536.50 180.85 534.92 184.90 537.00 187.00 Z"/>
</g>
<g fill="#A03F53" fill-opacity="0.75" stroke="None"><path d="
M 537.00 187.00 
C 537.00 196.67 537.00 206.33 537.00 216.00
C 537.00 218.00 537.00 220.00 537.00 222.00
C 538.67 209.81 538.66 194.26 537.00 182.00
C 537.00 183.67 537.00 185.33 537.00 187.00 Z"/>
</g>
<g fill="#572D36" fill-opacity="0.41" stroke="None"><path d="
M 5.00 212.00 
C 5.01 211.93 6.00 212.00 6.00 212.00
C 6.00 211.00 6.00 210.00 6.00 209.00
C 5.72 202.07 8.72 196.02 8.00 189.00
C 8.00 189.00 8.00 188.50 8.00 188.00
C 6.35 195.37 4.72 203.76 5.00 212.00 Z"/>
</g>
<g fill="#E74367" fill-opacity="0.99" stroke="None"><path d="
M 6.00 209.00 
C 6.00 210.00 6.00 211.00 6.00 212.00
C 5.19 243.05 7.55 273.32 16.00 302.00
C 16.02 302.50 16.00 303.00 16.00 303.00
C 25.30 323.32 32.78 345.16 46.00 364.00
C 48.33 367.73 51.09 371.06 53.00 375.00
C 71.60 395.99 90.54 419.86 114.00 436.00
C 106.36 424.69 93.80 415.86 87.00 404.00
C 84.65 400.41 81.64 397.35 79.00 394.00
C 78.80 393.60 79.00 393.00 79.00 393.00
C 61.85 371.97 47.47 348.31 38.00 323.00
C 36.73 319.94 34.55 317.29 34.00 314.00
C 33.89 313.53 34.00 313.00 34.00 313.00
C 31.35 309.73 30.64 304.95 29.00 301.00
C 28.38 297.57 26.62 294.47 26.00 291.00
C 24.26 286.12 22.41 281.26 22.00 276.00
C 20.67 274.27 20.25 271.38 20.00 269.00
C 19.94 268.51 20.00 267.50 20.00 267.00
C 16.50 256.48 14.00 244.78 14.00 233.00
C 14.00 233.00 14.00 232.50 14.00 232.00
C 12.13 230.86 13.39 227.87 13.00 226.00
C 13.00 224.00 13.00 222.00 13.00 220.00
C 10.08 211.69 12.27 200.53 10.00 192.00
C 7.70 197.33 8.52 204.06 6.00 209.00 Z"/>
</g>
<g fill="#75444D" fill-opacity="0.51" stroke="None"><path d="
M 545.00 198.00 
C 545.00 196.67 545.00 195.33 545.00 194.00
C 545.00 193.50 545.00 192.50 545.00 192.00
C 545.00 192.00 544.00 191.98 544.00 192.00
C 544.39 193.87 543.13 196.86 545.00 198.00 Z"/>
</g>
<g fill="#3D292C" fill-opacity="0.25" stroke="None"><path d="
M 545.00 198.00 
C 545.00 199.00 545.00 200.00 545.00 201.00
C 545.27 201.25 546.00 201.00 546.00 201.00
C 545.56 198.80 546.96 195.45 545.00 194.00
C 545.00 195.33 545.00 196.67 545.00 198.00 Z"/>
</g>
<g fill="#643A42" fill-opacity="0.45" stroke="None"><path d="
M 546.00 247.00 
C 546.20 246.76 547.00 247.00 547.00 247.00
C 547.00 247.00 547.00 246.50 547.00 246.00
C 547.00 233.33 547.00 220.67 547.00 208.00
C 547.38 205.48 546.56 203.24 546.00 201.00
C 546.00 201.00 545.27 201.25 545.00 201.00
C 547.06 215.91 545.53 231.70 546.00 247.00 Z"/>
</g>
<g fill="#732E3E" fill-opacity="0.58" stroke="None"><path d="
M 523.00 212.00 
C 523.00 213.00 523.00 214.00 523.00 215.00
C 523.27 215.25 524.00 215.00 524.00 215.00
C 524.00 214.00 524.00 213.00 524.00 212.00
C 524.00 210.00 524.00 208.00 524.00 206.00
C 524.00 206.00 523.02 205.90 523.00 206.00
C 523.00 208.00 523.00 210.00 523.00 212.00 Z"/>
</g>
<g fill="#2F1B1E" fill-opacity="0.22" stroke="None"><path d="
M 524.00 212.00 
C 526.06 210.93 524.53 207.88 525.00 206.00
C 525.00 206.00 524.02 205.90 524.00 206.00
C 524.00 208.00 524.00 210.00 524.00 212.00 Z"/>
</g>
<g fill="#211618" fill-opacity="0.14" stroke="None"><path d="
M 547.00 246.00 
C 548.67 234.48 548.66 219.59 547.00 208.00
C 547.00 220.67 547.00 233.33 547.00 246.00 Z"/>
</g>
<g fill="#2C1A1D" fill-opacity="0.20" stroke="None"><path d="
M 4.00 219.00 
C 4.00 218.96 5.00 219.00 5.00 219.00
C 5.00 216.67 5.00 214.33 5.00 212.00
C 2.86 213.38 4.52 216.81 4.00 219.00 Z"/>
</g>
<g fill="#98374C" fill-opacity="0.73" stroke="None"><path d="
M 5.00 219.00 
C 5.00 226.00 5.00 233.00 5.00 240.00
C 5.00 241.33 5.00 242.67 5.00 244.00
C 7.08 246.10 5.50 250.15 6.00 253.00
C 6.45 267.81 9.99 281.82 13.00 296.00
C 14.89 297.26 14.05 300.80 16.00 302.00
C 7.55 273.32 5.19 243.05 6.00 212.00
C 6.00 212.00 5.01 211.93 5.00 212.00
C 5.00 214.33 5.00 216.67 5.00 219.00 Z"/>
</g>
<g fill="#AC3752" fill-opacity="0.86" stroke="None"><path d="
M 519.00 239.00 
C 520.90 236.74 519.49 232.73 521.00 230.00
C 521.39 228.43 520.06 225.78 522.00 225.00
C 522.00 224.50 522.00 224.00 522.00 224.00
C 522.39 222.43 521.06 219.78 523.00 219.00
C 523.00 217.67 523.00 216.33 523.00 215.00
C 523.00 214.00 523.00 213.00 523.00 212.00
C 520.70 220.29 519.22 229.81 519.00 239.00 Z"/>
</g>
<g fill="#371C23" fill-opacity="0.27" stroke="None"><path d="
M 523.00 219.00 
C 522.61 220.57 523.94 223.22 522.00 224.00
C 522.00 224.00 522.00 224.50 522.00 225.00
C 522.00 226.33 522.00 227.67 522.00 229.00
C 524.14 225.17 524.08 219.78 524.00 215.00
C 524.00 215.00 523.27 215.25 523.00 215.00
C 523.00 216.33 523.00 217.67 523.00 219.00 Z"/>
</g>
<g fill="#712E3C" fill-opacity="0.53" stroke="None"><path d="
M 536.00 225.00 
C 536.00 224.96 537.00 225.00 537.00 225.00
C 537.00 224.00 537.00 223.00 537.00 222.00
C 537.00 220.00 537.00 218.00 537.00 216.00
C 534.78 218.02 536.59 222.16 536.00 225.00 Z"/>
</g>
<g fill="#AB3A51" fill-opacity="0.77" stroke="None"><path d="
M 29.00 219.00 
C 29.00 220.00 29.00 221.00 29.00 222.00
C 30.87 223.14 29.61 226.13 30.00 228.00
C 29.53 230.57 30.54 232.65 31.00 235.00
C 33.37 236.03 30.54 240.04 33.00 241.00
C 32.23 233.25 31.70 224.89 29.00 218.00
C 29.00 218.00 29.00 218.50 29.00 219.00 Z"/>
</g>
<g fill="#502830" fill-opacity="0.38" stroke="None"><path d="
M 4.00 240.00 
C 4.00 239.96 5.00 240.00 5.00 240.00
C 5.00 233.00 5.00 226.00 5.00 219.00
C 5.00 219.00 4.00 218.96 4.00 219.00
C 4.00 226.00 4.00 233.00 4.00 240.00 Z"/>
</g>
<g fill="#6E3844" fill-opacity="0.52" stroke="None"><path d="
M 13.00 220.00 
C 13.00 222.00 13.00 224.00 13.00 226.00
C 13.02 226.10 14.00 226.00 14.00 226.00
C 13.56 223.80 14.96 220.45 13.00 219.00
C 13.00 219.00 13.00 219.50 13.00 220.00 Z"/>
</g>
<g fill="#6F2E3D" fill-opacity="0.56" stroke="None"><path d="
M 522.00 224.00 
C 523.94 223.22 522.61 220.57 523.00 219.00
C 521.06 219.78 522.39 222.43 522.00 224.00 Z"/>
</g>
<g fill="#6E2A38" fill-opacity="0.52" stroke="None"><path d="
M 29.00 225.00 
C 29.00 226.00 29.00 227.00 29.00 228.00
C 29.27 228.25 30.00 228.00 30.00 228.00
C 29.61 226.13 30.87 223.14 29.00 222.00
C 29.00 223.00 29.00 224.00 29.00 225.00 Z"/>
</g>
<g fill="#762D3E" fill-opacity="0.61" stroke="None"><path d="
M 521.00 230.00 
C 521.11 229.79 522.00 230.00 522.00 230.00
C 522.00 230.00 522.00 229.50 522.00 229.00
C 522.00 227.67 522.00 226.33 522.00 225.00
C 520.06 225.78 521.39 228.43 521.00 230.00 Z"/>
</g>
<g fill="#9C2A44" fill-opacity="0.74" stroke="None"><path d="
M 535.00 242.00 
C 536.89 237.11 537.10 230.78 537.00 225.00
C 537.00 225.00 536.00 224.96 536.00 225.00
C 536.72 230.94 534.42 236.11 535.00 242.00 Z"/>
</g>
<g fill="#8D3E4E" fill-opacity="0.67" stroke="None"><path d="
M 14.00 232.00 
C 14.00 230.00 14.00 228.00 14.00 226.00
C 14.00 226.00 13.02 226.10 13.00 226.00
C 13.39 227.87 12.13 230.86 14.00 232.00 Z"/>
</g>
<g fill="#2D1218" fill-opacity="0.21" stroke="None"><path d="
M 31.00 239.00 
C 31.00 237.67 31.00 236.33 31.00 235.00
C 30.54 232.65 29.53 230.57 30.00 228.00
C 30.00 228.00 29.27 228.25 29.00 228.00
C 29.16 231.72 29.55 235.97 31.00 239.00 Z"/>
</g>
<g fill="#4F262F" fill-opacity="0.40" stroke="None"><path d="
M 519.00 239.00 
C 519.00 240.00 519.00 241.00 519.00 242.00
C 519.00 243.00 519.00 244.00 519.00 245.00
C 519.27 245.25 520.00 245.00 520.00 245.00
C 520.88 240.04 521.35 234.99 522.00 230.00
C 522.00 230.00 521.11 229.79 521.00 230.00
C 519.49 232.73 520.90 236.74 519.00 239.00 Z"/>
</g>
<g fill="#7F3645" fill-opacity="0.61" stroke="None"><path d="
M 20.00 267.00 
C 20.00 265.33 20.00 263.67 20.00 262.00
C 20.00 262.00 19.97 261.50 20.00 261.00
C 16.56 252.57 16.74 241.66 14.00 233.00
C 14.00 244.78 16.50 256.48 20.00 267.00 Z"/>
</g>
<g fill="#551D2A" fill-opacity="0.41" stroke="None"><path d="
M 31.00 239.00 
C 31.48 242.73 31.65 246.52 33.00 250.00
C 33.20 250.24 34.00 250.00 34.00 250.00
C 33.72 248.01 32.52 246.22 33.00 244.00
C 33.00 243.00 33.00 242.00 33.00 241.00
C 30.54 240.04 33.37 236.03 31.00 235.00
C 31.00 236.33 31.00 237.67 31.00 239.00 Z"/>
</g>
<g fill="#2B171B" fill-opacity="0.19" stroke="None"><path d="
M 531.00 255.00 
C 532.98 254.53 530.89 251.40 533.00 251.00
C 533.01 250.50 533.02 249.50 533.00 249.00
C 532.67 244.80 534.74 241.28 534.00 237.00
C 532.10 242.30 532.01 249.10 531.00 255.00 Z"/>
</g>
<g fill="#321D20" fill-opacity="0.22" stroke="None"><path d="
M 5.00 251.00 
C 5.00 248.67 5.00 246.33 5.00 244.00
C 5.00 242.67 5.00 241.33 5.00 240.00
C 5.00 240.00 4.00 239.96 4.00 240.00
C 4.55 243.51 2.84 248.24 5.00 251.00 Z"/>
</g>
<g fill="#843546" fill-opacity="0.67" stroke="None"><path d="
M 498.00 312.00 
C 499.26 311.92 498.56 309.94 500.00 310.00
C 500.95 309.13 500.54 307.32 502.00 307.00
C 502.00 307.00 501.92 306.49 502.00 306.00
C 506.11 293.05 511.07 280.35 514.00 267.00
C 514.91 265.17 514.34 262.26 516.00 261.00
C 517.24 255.75 518.33 250.44 519.00 245.00
C 519.00 244.00 519.00 243.00 519.00 242.00
C 514.19 265.52 506.58 289.28 498.00 312.00 Z"/>
</g>
<g fill="#72343F" fill-opacity="0.54" stroke="None"><path d="
M 5.00 251.00 
C 5.00 251.50 5.00 252.50 5.00 253.00
C 5.34 253.23 6.00 253.00 6.00 253.00
C 5.50 250.15 7.08 246.10 5.00 244.00
C 5.00 246.33 5.00 248.67 5.00 251.00 Z"/>
</g>
<g fill="#883345" fill-opacity="0.65" stroke="None"><path d="
M 34.00 250.00 
C 35.56 262.71 39.41 274.84 43.00 287.00
C 43.00 287.00 42.91 287.52 43.00 288.00
C 44.26 288.08 43.56 290.06 45.00 290.00
C 44.92 289.51 45.00 289.00 45.00 289.00
C 40.35 274.24 37.21 258.55 33.00 244.00
C 32.52 246.22 33.72 248.01 34.00 250.00 Z"/>
</g>
<g fill="#A3324C" fill-opacity="0.76" stroke="None"><path d="
M 533.00 249.00 
C 533.02 249.50 533.01 250.50 533.00 251.00
C 533.41 254.18 531.31 256.72 532.00 260.00
C 534.47 255.52 534.31 249.32 535.00 244.00
C 532.69 244.67 535.20 248.26 533.00 249.00 Z"/>
</g>
<g fill="#2E1B1F" fill-opacity="0.22" stroke="None"><path d="
M 516.00 261.00 
C 515.98 261.50 516.00 262.00 516.00 262.00
C 518.08 256.98 520.24 250.99 520.00 245.00
C 520.00 245.00 519.27 245.25 519.00 245.00
C 518.33 250.44 517.24 255.75 516.00 261.00 Z"/>
</g>
<g fill="#3F262C" fill-opacity="0.28" stroke="None"><path d="
M 545.00 256.00 
C 546.68 253.73 547.05 250.09 547.00 247.00
C 547.00 247.00 546.20 246.76 546.00 247.00
C 544.26 249.63 545.26 252.97 545.00 256.00 Z"/>
</g>
<g fill="#2B1418" fill-opacity="0.20" stroke="None"><path d="
M 43.00 287.00 
C 39.41 274.84 35.56 262.71 34.00 250.00
C 34.00 250.00 33.20 250.24 33.00 250.00
C 35.39 262.45 36.63 276.34 43.00 287.00 Z"/>
</g>
<g fill="#692935" fill-opacity="0.50" stroke="None"><path d="
M 531.00 255.00 
C 531.00 255.00 530.95 255.51 531.00 256.00
C 531.60 259.26 530.17 261.91 530.00 265.00
C 530.00 265.01 531.00 265.00 531.00 265.00
C 531.93 263.47 532.23 261.83 532.00 260.00
C 531.31 256.72 533.41 254.18 533.00 251.00
C 530.89 251.40 532.98 254.53 531.00 255.00 Z"/>
</g>
<g fill="#3B1D23" fill-opacity="0.28" stroke="None"><path d="
M 14.00 301.00 
C 14.05 299.24 12.47 297.93 13.00 296.00
C 9.99 281.82 6.45 267.81 6.00 253.00
C 6.00 253.00 5.34 253.23 5.00 253.00
C 5.74 269.49 8.44 286.20 14.00 301.00 Z"/>
</g>
<g fill="#32171B" fill-opacity="0.24" stroke="None"><path d="
M 524.00 286.00 
C 527.14 279.67 528.23 271.90 530.00 265.00
C 530.17 261.91 531.60 259.26 531.00 256.00
C 528.96 265.65 525.85 275.94 524.00 286.00 Z"/>
</g>
<g fill="#513238" fill-opacity="0.35" stroke="None"><path d="
M 544.00 259.00 
C 544.00 260.00 544.00 261.00 544.00 262.00
C 545.94 261.22 544.61 258.57 545.00 257.00
C 545.00 257.00 544.34 256.77 544.00 257.00
C 544.00 257.50 543.82 258.92 544.00 259.00 Z"/>
</g>
<g fill="#8B4553" fill-opacity="0.65" stroke="None"><path d="
M 524.00 327.00 
C 523.82 327.43 524.00 328.00 524.00 328.00
C 533.05 311.45 539.34 292.94 542.00 274.00
C 542.72 270.45 542.35 265.92 544.00 263.00
C 544.00 263.00 544.00 262.50 544.00 262.00
C 544.00 261.00 544.00 260.00 544.00 259.00
C 539.73 281.92 533.81 305.35 524.00 327.00 Z"/>
</g>
<g fill="#532630" fill-opacity="0.41" stroke="None"><path d="
M 514.00 267.00 
C 514.01 266.93 515.00 267.00 515.00 267.00
C 515.93 265.47 516.23 263.83 516.00 262.00
C 516.00 262.00 515.98 261.50 516.00 261.00
C 514.34 262.26 514.91 265.17 514.00 267.00 Z"/>
</g>
<g fill="#4D2730" fill-opacity="0.36" stroke="None"><path d="
M 20.00 267.00 
C 20.00 267.50 19.94 268.51 20.00 269.00
C 21.50 270.68 22.19 273.50 22.00 276.00
C 22.41 281.26 24.26 286.12 26.00 291.00
C 27.26 291.08 26.56 293.06 28.00 293.00
C 24.94 282.79 22.96 271.89 20.00 262.00
C 20.00 263.67 20.00 265.33 20.00 267.00 Z"/>
</g>
<g fill="#4E3035" fill-opacity="0.35" stroke="None"><path d="
M 542.00 274.00 
C 542.04 273.87 543.00 274.00 543.00 274.00
C 542.97 270.21 544.68 266.94 544.00 263.00
C 542.35 265.92 542.72 270.45 542.00 274.00 Z"/>
</g>
<g fill="#8C2E41" fill-opacity="0.66" stroke="None"><path d="
M 524.00 286.00 
C 523.46 287.31 522.59 288.44 523.00 290.00
C 523.37 291.54 521.57 292.40 522.00 294.00
C 522.25 293.75 523.00 294.00 523.00 294.00
C 525.57 284.29 530.08 275.14 531.00 265.00
C 531.00 265.00 530.00 265.01 530.00 265.00
C 528.23 271.90 527.14 279.67 524.00 286.00 Z"/>
</g>
<g fill="#2E1A1D" fill-opacity="0.22" stroke="None"><path d="
M 502.00 306.00 
C 508.30 294.12 512.43 280.42 515.00 267.00
C 515.00 267.00 514.01 266.93 514.00 267.00
C 511.07 280.35 506.11 293.05 502.00 306.00 Z"/>
</g>
<g fill="#893B4D" fill-opacity="0.65" stroke="None"><path d="
M 22.00 276.00 
C 22.19 273.50 21.50 270.68 20.00 269.00
C 20.25 271.38 20.67 274.27 22.00 276.00 Z"/>
</g>
<g fill="#2E1E20" fill-opacity="0.20" stroke="None"><path d="
M 524.00 328.00 
C 523.14 331.93 520.57 335.28 519.00 339.00
C 517.29 343.43 515.56 348.78 512.00 352.00
C 511.43 352.94 510.85 353.82 511.00 355.00
C 510.87 355.80 509.91 356.11 510.00 357.00
C 525.22 331.80 539.13 303.81 543.00 274.00
C 543.00 274.00 542.04 273.87 542.00 274.00
C 539.34 292.94 533.05 311.45 524.00 328.00 Z"/>
</g>
<g fill="#2A1117" fill-opacity="0.22" stroke="None"><path d="
M 95.00 385.00 
C 93.01 382.27 90.95 379.71 89.00 377.00
C 88.45 375.54 86.60 374.82 87.00 373.00
C 76.12 359.92 68.97 344.04 61.00 329.00
C 59.17 323.51 56.11 318.44 54.00 313.00
C 50.96 308.75 48.88 303.30 48.00 298.00
C 46.58 295.45 45.55 292.84 45.00 290.00
C 43.56 290.06 44.26 288.08 43.00 288.00
C 55.04 322.43 71.02 356.87 95.00 385.00 Z"/>
</g>
<g fill="#AA3551" fill-opacity="0.79" stroke="None"><path d="
M 45.00 290.00 
C 45.55 292.84 46.58 295.45 48.00 298.00
C 50.60 301.72 51.40 307.33 54.00 311.00
C 54.00 311.00 54.01 310.50 54.00 310.00
C 52.27 302.66 48.68 295.38 45.00 289.00
C 45.00 289.00 44.92 289.51 45.00 290.00 Z"/>
</g>
<g fill="#35191F" fill-opacity="0.25" stroke="None"><path d="
M 506.00 331.00 
C 507.63 330.29 507.29 327.62 509.00 327.00
C 509.63 323.40 512.02 320.41 513.00 317.00
C 515.80 309.70 517.98 301.54 522.00 295.00
C 522.08 294.51 522.00 294.00 522.00 294.00
C 521.57 292.40 523.37 291.54 523.00 290.00
C 515.95 302.83 512.08 317.48 506.00 331.00 Z"/>
</g>
<g fill="#722E3D" fill-opacity="0.55" stroke="None"><path d="
M 29.00 301.00 
C 29.04 301.13 30.00 301.00 30.00 301.00
C 30.37 299.46 28.57 298.60 29.00 297.00
C 28.46 295.69 27.59 294.56 28.00 293.00
C 26.56 293.06 27.26 291.08 26.00 291.00
C 26.62 294.47 28.38 297.57 29.00 301.00 Z"/>
</g>
<g fill="#B23953" fill-opacity="0.82" stroke="None"><path d="
M 522.00 295.00 
C 519.32 302.34 517.16 310.52 513.00 317.00
C 512.02 320.41 509.63 323.40 509.00 327.00
C 506.29 333.42 503.58 340.80 499.00 346.00
C 498.43 346.94 497.85 347.82 498.00 349.00
C 496.72 352.26 494.47 354.86 493.00 358.00
C 506.91 339.09 515.90 316.25 523.00 294.00
C 523.00 294.00 522.25 293.75 522.00 294.00
C 522.00 294.00 522.08 294.51 522.00 295.00 Z"/>
</g>
<g fill="#722B3A" fill-opacity="0.56" stroke="None"><path d="
M 513.00 317.00 
C 517.16 310.52 519.32 302.34 522.00 295.00
C 517.98 301.54 515.80 309.70 513.00 317.00 Z"/>
</g>
<g fill="#582830" fill-opacity="0.43" stroke="None"><path d="
M 14.00 301.00 
C 14.00 301.00 13.98 301.50 14.00 302.00
C 15.67 302.24 14.17 304.85 16.00 305.00
C 15.83 304.57 16.00 303.50 16.00 303.00
C 16.00 303.00 16.02 302.50 16.00 302.00
C 14.05 300.80 14.89 297.26 13.00 296.00
C 12.47 297.93 14.05 299.24 14.00 301.00 Z"/>
</g>
<g fill="#30151B" fill-opacity="0.23" stroke="None"><path d="
M 30.00 301.00 
C 31.13 302.53 30.91 304.45 32.00 306.00
C 32.13 306.22 33.00 306.00 33.00 306.00
C 32.66 302.72 30.78 299.54 29.00 297.00
C 28.57 298.60 30.37 299.46 30.00 301.00 Z"/>
</g>
<g fill="#612131" fill-opacity="0.49" stroke="None"><path d="
M 54.00 313.00 
C 53.77 312.64 54.00 312.00 54.00 312.00
C 54.00 312.00 54.00 311.50 54.00 311.00
C 51.40 307.33 50.60 301.72 48.00 298.00
C 48.88 303.30 50.96 308.75 54.00 313.00 Z"/>
</g>
<g fill="#923047" fill-opacity="0.71" stroke="None"><path d="
M 34.00 313.00 
C 33.74 310.56 32.24 308.48 32.00 306.00
C 30.91 304.45 31.13 302.53 30.00 301.00
C 30.00 301.00 29.04 301.13 29.00 301.00
C 30.64 304.95 31.35 309.73 34.00 313.00 Z"/>
</g>
<g fill="#31171B" fill-opacity="0.24" stroke="None"><path d="
M 41.00 359.00 
C 39.28 354.60 35.99 351.22 34.00 347.00
C 32.09 342.60 29.19 338.63 28.00 334.00
C 26.53 332.51 25.26 330.22 25.00 328.00
C 21.21 320.58 19.35 312.56 16.00 305.00
C 14.17 304.85 15.67 302.24 14.00 302.00
C 19.72 322.10 28.73 342.15 41.00 359.00 Z"/>
</g>
<g fill="#A0384F" fill-opacity="0.76" stroke="None"><path d="
M 16.00 305.00 
C 19.35 312.56 21.21 320.58 25.00 328.00
C 26.47 329.49 27.74 331.78 28.00 334.00
C 29.19 338.63 32.09 342.60 34.00 347.00
C 39.27 351.54 41.10 359.28 46.00 364.00
C 32.78 345.16 25.30 323.32 16.00 303.00
C 16.00 303.50 15.83 304.57 16.00 305.00 Z"/>
</g>
<g fill="#4F222D" fill-opacity="0.38" stroke="None"><path d="
M 34.00 313.00 
C 34.00 313.00 33.89 313.53 34.00 314.00
C 35.26 314.08 34.56 316.06 36.00 316.00
C 35.38 312.53 33.62 309.43 33.00 306.00
C 33.00 306.00 32.13 306.22 32.00 306.00
C 32.24 308.48 33.74 310.56 34.00 313.00 Z"/>
</g>
<g fill="#2E181D" fill-opacity="0.22" stroke="None"><path d="
M 500.00 310.00 
C 499.60 312.11 498.62 314.66 497.00 316.00
C 493.44 325.59 488.61 334.75 484.00 344.00
C 481.99 347.71 479.67 351.11 478.00 355.00
C 489.07 341.07 494.93 323.20 502.00 307.00
C 500.54 307.32 500.95 309.13 500.00 310.00 Z"/>
</g>
<g fill="#632F39" fill-opacity="0.49" stroke="None"><path d="
M 498.00 312.00 
C 498.15 313.18 497.57 314.06 497.00 315.00
C 496.84 315.44 497.00 316.00 497.00 316.00
C 498.62 314.66 499.60 312.11 500.00 310.00
C 498.56 309.94 499.26 311.92 498.00 312.00 Z"/>
</g>
<g fill="#AC3650" fill-opacity="0.82" stroke="None"><path d="
M 54.00 313.00 
C 56.11 318.44 59.17 323.51 61.00 329.00
C 70.39 343.00 77.34 358.87 87.00 373.00
C 86.60 374.82 88.45 375.54 89.00 377.00
C 93.17 379.27 94.37 384.44 98.00 387.00
C 80.67 363.84 67.34 337.35 54.00 312.00
C 54.00 312.00 53.77 312.64 54.00 313.00 Z"/>
</g>
<g fill="#7E3041" fill-opacity="0.61" stroke="None"><path d="
M 38.00 323.00 
C 38.12 323.22 39.00 323.00 39.00 323.00
C 38.76 320.42 36.92 318.38 36.00 316.00
C 34.56 316.06 35.26 314.08 34.00 314.00
C 34.55 317.29 36.73 319.94 38.00 323.00 Z"/>
</g>
<g fill="#8D3348" fill-opacity="0.73" stroke="None"><path d="
M 480.00 348.00 
C 482.22 347.51 481.74 344.43 484.00 344.00
C 488.61 334.75 493.44 325.59 497.00 316.00
C 497.00 316.00 496.84 315.44 497.00 315.00
C 490.62 325.36 486.62 337.56 480.00 348.00 Z"/>
</g>
<g fill="#2F181C" fill-opacity="0.22" stroke="None"><path d="
M 39.00 323.00 
C 42.06 332.00 47.10 340.40 51.00 349.00
C 53.86 350.67 54.25 354.39 56.00 357.00
C 56.17 357.43 56.00 358.00 56.00 358.00
C 58.01 358.98 58.64 361.36 60.00 363.00
C 60.22 363.36 60.00 364.00 60.00 364.00
C 65.30 368.71 67.34 376.57 73.00 381.00
C 57.99 360.70 47.23 337.74 36.00 316.00
C 36.92 318.38 38.76 320.42 39.00 323.00 Z"/>
</g>
<g fill="#A23951" fill-opacity="0.77" stroke="None"><path d="
M 79.00 393.00 
C 72.79 383.18 65.38 374.25 60.00 364.00
C 60.00 364.00 60.22 363.36 60.00 363.00
C 57.83 362.07 56.89 359.95 56.00 358.00
C 56.00 358.00 56.17 357.43 56.00 357.00
C 53.14 355.33 52.75 351.61 51.00 349.00
C 47.10 340.40 42.06 332.00 39.00 323.00
C 39.00 323.00 38.12 323.22 38.00 323.00
C 47.47 348.31 61.85 371.97 79.00 393.00 Z"/>
</g>
<g fill="#632531" fill-opacity="0.49" stroke="None"><path d="
M 506.00 331.00 
C 504.44 334.72 501.86 338.07 501.00 342.00
C 500.27 343.34 499.66 344.64 499.00 346.00
C 503.58 340.80 506.29 333.42 509.00 327.00
C 507.29 327.62 507.63 330.29 506.00 331.00 Z"/>
</g>
<g fill="#9E3C50" fill-opacity="0.78" stroke="None"><path d="
M 508.00 356.00 
C 510.22 355.51 509.74 352.43 512.00 352.00
C 514.04 347.73 516.23 342.78 519.00 339.00
C 520.57 335.28 523.14 331.93 524.00 328.00
C 524.00 328.00 523.82 327.43 524.00 327.00
C 518.32 336.19 514.11 346.78 508.00 356.00 Z"/>
</g>
<g fill="#6A2833" fill-opacity="0.52" stroke="None"><path d="
M 28.00 334.00 
C 27.74 331.78 26.47 329.49 25.00 328.00
C 25.26 330.22 26.53 332.51 28.00 334.00 Z"/>
</g>
<g fill="#672534" fill-opacity="0.52" stroke="None"><path d="
M 87.00 373.00 
C 77.34 358.87 70.39 343.00 61.00 329.00
C 68.97 344.04 76.12 359.92 87.00 373.00 Z"/>
</g>
<g fill="#662F3B" fill-opacity="0.49" stroke="None"><path d="
M 512.00 352.00 
C 515.56 348.78 517.29 343.43 519.00 339.00
C 516.23 342.78 514.04 347.73 512.00 352.00 Z"/>
</g>
<g fill="#2A181B" fill-opacity="0.19" stroke="None"><path d="
M 427.00 444.00 
C 424.82 445.41 422.85 447.38 420.00 447.00
C 420.41 446.17 420.97 445.13 422.00 445.00
C 427.18 439.01 433.04 433.11 439.00 428.00
C 439.20 427.60 439.00 427.00 439.00 427.00
C 441.54 423.70 444.69 420.44 448.00 418.00
C 448.20 417.60 448.00 417.00 448.00 417.00
C 452.70 411.47 457.08 405.39 463.00 401.00
C 463.20 400.60 463.00 400.00 463.00 400.00
C 469.56 391.40 476.58 383.24 482.00 374.00
C 482.97 372.15 483.79 369.76 486.00 369.00
C 489.04 362.04 493.29 354.85 498.00 349.00
C 497.85 347.82 498.43 346.94 499.00 346.00
C 499.66 344.64 500.27 343.34 501.00 342.00
C 479.46 381.35 448.60 415.41 418.00 449.00
C 421.48 448.82 425.17 447.12 427.00 444.00 Z"/>
</g>
<g fill="#672937" fill-opacity="0.53" stroke="None"><path d="
M 480.00 348.00 
C 480.00 348.00 480.17 348.57 480.00 349.00
C 477.86 352.75 476.53 357.40 473.00 360.00
C 471.75 364.45 467.75 367.65 466.00 372.00
C 466.80 371.87 467.11 370.91 468.00 371.00
C 471.34 365.65 475.38 360.79 478.00 355.00
C 479.67 351.11 481.99 347.71 484.00 344.00
C 481.74 344.43 482.22 347.51 480.00 348.00 Z"/>
</g>
<g fill="#6D2838" fill-opacity="0.54" stroke="None"><path d="
M 41.00 359.00 
C 41.00 359.00 40.84 359.56 41.00 360.00
C 51.46 371.99 58.26 387.38 71.00 398.00
C 70.19 395.96 67.73 395.03 67.00 393.00
C 64.21 391.44 63.07 388.27 61.00 386.00
C 58.78 381.99 55.18 378.98 53.00 375.00
C 51.09 371.06 48.33 367.73 46.00 364.00
C 41.10 359.28 39.27 351.54 34.00 347.00
C 35.99 351.22 39.28 354.60 41.00 359.00 Z"/>
</g>
<g fill="#5D2B37" fill-opacity="0.46" stroke="None"><path d="
M 56.00 357.00 
C 54.25 354.39 53.86 350.67 51.00 349.00
C 52.75 351.61 53.14 355.33 56.00 357.00 Z"/>
</g>
<g fill="#A8314D" fill-opacity="0.87" stroke="None"><path d="
M 473.00 360.00 
C 476.53 357.40 477.86 352.75 480.00 349.00
C 476.66 351.72 475.57 356.48 473.00 360.00 Z"/>
</g>
<g fill="#732B3A" fill-opacity="0.56" stroke="None"><path d="
M 486.00 369.00 
C 484.45 370.55 484.17 373.18 482.00 374.00
C 476.58 383.24 469.56 391.40 463.00 400.00
C 465.04 399.19 465.97 396.73 468.00 396.00
C 468.00 396.00 467.76 395.32 468.00 395.00
C 472.80 389.07 476.81 382.34 482.00 377.00
C 485.44 370.55 490.29 364.70 493.00 358.00
C 494.47 354.86 496.72 352.26 498.00 349.00
C 493.29 354.85 489.04 362.04 486.00 369.00 Z"/>
</g>
<g fill="#803042" fill-opacity="0.63" stroke="None"><path d="
M 508.00 356.00 
C 507.67 358.76 505.24 360.57 504.00 363.00
C 507.56 361.42 507.79 356.75 511.00 355.00
C 510.85 353.82 511.43 352.94 512.00 352.00
C 509.74 352.43 510.22 355.51 508.00 356.00 Z"/>
</g>
<g fill="#552730" fill-opacity="0.42" stroke="None"><path d="
M 504.00 363.00 
C 501.64 365.45 501.36 369.52 498.00 371.00
C 498.00 371.00 498.24 371.68 498.00 372.00
C 494.38 377.63 490.02 382.65 486.00 388.00
C 485.19 390.04 482.73 390.97 482.00 393.00
C 484.04 392.19 484.97 389.73 487.00 389.00
C 487.00 389.00 486.80 388.40 487.00 388.00
C 491.11 383.92 493.65 378.57 498.00 375.00
C 501.22 368.73 506.17 363.14 510.00 357.00
C 509.91 356.11 510.87 355.80 511.00 355.00
C 507.79 356.75 507.56 361.42 504.00 363.00 Z"/>
</g>
<g fill="#632B37" fill-opacity="0.47" stroke="None"><path d="
M 60.00 363.00 
C 58.64 361.36 58.01 358.98 56.00 358.00
C 56.89 359.95 57.83 362.07 60.00 363.00 Z"/>
</g>
<g fill="#2A1419" fill-opacity="0.21" stroke="None"><path d="
M 102.00 430.00 
C 101.70 428.75 100.17 428.29 100.00 427.00
C 98.75 426.70 98.29 425.17 97.00 425.00
C 88.00 416.83 79.12 407.96 71.00 399.00
C 70.80 398.60 71.00 398.00 71.00 398.00
C 58.26 387.38 51.46 371.99 41.00 360.00
C 56.51 386.14 78.05 409.94 102.00 430.00 Z"/>
</g>
<g fill="#A7364E" fill-opacity="0.82" stroke="None"><path d="
M 498.00 371.00 
C 501.36 369.52 501.64 365.45 504.00 363.00
C 500.64 364.48 500.36 368.55 498.00 371.00 Z"/>
</g>
<g fill="#652836" fill-opacity="0.50" stroke="None"><path d="
M 79.00 393.00 
C 79.00 393.00 78.80 393.60 79.00 394.00
C 81.04 394.81 81.97 397.27 84.00 398.00
C 83.70 396.75 82.17 396.29 82.00 395.00
C 82.00 395.00 82.16 394.44 82.00 394.00
C 77.68 391.10 75.59 386.22 73.00 382.00
C 73.00 382.00 73.22 381.36 73.00 381.00
C 67.34 376.57 65.30 368.71 60.00 364.00
C 65.38 374.25 72.79 383.18 79.00 393.00 Z"/>
</g>
<g fill="#4F1F29" fill-opacity="0.38" stroke="None"><path d="
M 482.00 374.00 
C 484.17 373.18 484.45 370.55 486.00 369.00
C 483.79 369.76 482.97 372.15 482.00 374.00 Z"/>
</g>
<g fill="#49232B" fill-opacity="0.37" stroke="None"><path d="
M 466.00 372.00 
C 466.00 372.00 466.22 372.64 466.00 373.00
C 464.28 374.97 463.63 377.95 461.00 379.00
C 461.00 379.00 461.22 379.64 461.00 380.00
C 456.60 385.61 454.05 392.77 448.00 397.00
C 448.45 399.31 445.47 400.07 445.00 402.00
C 441.91 405.29 439.95 409.62 436.00 412.00
C 435.15 414.35 431.76 415.23 432.00 418.00
C 434.04 417.19 434.97 414.73 437.00 414.00
C 447.09 399.75 459.49 386.44 468.00 371.00
C 467.11 370.91 466.80 371.87 466.00 372.00 Z"/>
</g>
<g fill="#A33B4F" fill-opacity="0.80" stroke="None"><path d="
M 483.00 390.00 
C 484.25 389.70 484.71 388.17 486.00 388.00
C 490.02 382.65 494.38 377.63 498.00 372.00
C 492.23 377.16 488.04 384.01 483.00 390.00 Z"/>
</g>
<g fill="#863A49" fill-opacity="0.70" stroke="None"><path d="
M 461.00 379.00 
C 463.63 377.95 464.28 374.97 466.00 373.00
C 463.37 374.05 462.72 377.03 461.00 379.00 Z"/>
</g>
<g fill="#AF3F58" fill-opacity="0.85" stroke="None"><path d="
M 61.00 386.00 
C 63.93 387.51 65.25 390.51 67.00 393.00
C 67.73 395.03 70.19 395.96 71.00 398.00
C 81.00 407.17 90.88 417.04 100.00 427.00
C 107.97 431.90 114.34 439.67 123.00 443.00
C 118.65 437.18 112.30 432.77 108.00 427.00
C 107.80 426.60 108.00 426.00 108.00 426.00
C 101.68 421.23 97.14 414.75 92.00 409.00
C 91.46 407.34 89.44 406.67 89.00 405.00
C 88.20 404.87 87.89 403.91 87.00 404.00
C 93.80 415.86 106.36 424.69 114.00 436.00
C 90.54 419.86 71.60 395.99 53.00 375.00
C 55.18 378.98 58.78 381.99 61.00 386.00 Z"/>
</g>
<g fill="#211417" fill-opacity="0.15" stroke="None"><path d="
M 487.00 388.00 
C 491.90 384.82 494.92 379.68 498.00 375.00
C 493.65 378.57 491.11 383.92 487.00 388.00 Z"/>
</g>
<g fill="#812B3F" fill-opacity="0.64" stroke="None"><path d="
M 95.00 385.00 
C 95.00 385.00 94.84 385.56 95.00 386.00
C 99.49 389.13 101.31 395.05 106.00 398.00
C 103.82 394.02 100.22 391.01 98.00 387.00
C 94.37 384.44 93.17 379.27 89.00 377.00
C 90.95 379.71 93.01 382.27 95.00 385.00 Z"/>
</g>
<g fill="#AE4358" fill-opacity="0.81" stroke="None"><path d="
M 468.00 395.00 
C 473.56 389.96 478.11 383.20 482.00 377.00
C 476.81 382.34 472.80 389.07 468.00 395.00 Z"/>
</g>
<g fill="#883647" fill-opacity="0.70" stroke="None"><path d="
M 448.00 397.00 
C 454.05 392.77 456.60 385.61 461.00 380.00
C 455.88 384.82 452.35 391.34 448.00 397.00 Z"/>
</g>
<g fill="#271116" fill-opacity="0.18" stroke="None"><path d="
M 82.00 394.00 
C 79.85 389.51 76.43 385.46 73.00 382.00
C 75.59 386.22 77.68 391.10 82.00 394.00 Z"/>
</g>
<g fill="#902B45" fill-opacity="0.70" stroke="None"><path d="
M 67.00 393.00 
C 65.25 390.51 63.93 387.51 61.00 386.00
C 63.07 388.27 64.21 391.44 67.00 393.00 Z"/>
</g>
<g fill="#401922" fill-opacity="0.33" stroke="None"><path d="
M 98.00 391.00 
C 101.37 392.88 102.29 397.40 106.00 399.00
C 105.77 398.85 106.00 398.00 106.00 398.00
C 101.31 395.05 99.49 389.13 95.00 386.00
C 95.70 387.87 96.89 389.33 98.00 391.00 Z"/>
</g>
<g fill="#6E313E" fill-opacity="0.54" stroke="None"><path d="
M 483.00 390.00 
C 482.83 391.29 481.30 391.75 481.00 393.00
C 479.43 395.28 477.33 397.57 475.00 399.00
C 475.09 399.89 474.13 400.20 474.00 401.00
C 465.40 411.82 453.78 419.58 445.00 430.00
C 447.76 428.58 449.27 425.35 452.00 424.00
C 453.29 423.83 453.75 422.30 455.00 422.00
C 463.47 411.91 474.46 403.59 482.00 393.00
C 482.73 390.97 485.19 390.04 486.00 388.00
C 484.71 388.17 484.25 389.70 483.00 390.00 Z"/>
</g>
<g fill="#341C21" fill-opacity="0.24" stroke="None"><path d="
M 482.00 393.00 
C 474.46 403.59 463.47 411.91 455.00 422.00
C 466.38 411.82 477.08 400.48 487.00 389.00
C 484.97 389.73 484.04 392.19 482.00 393.00 Z"/>
</g>
<g fill="#1D0B10" fill-opacity="0.15" stroke="None"><path d="
M 111.00 407.00 
C 110.87 406.20 109.91 405.89 110.00 405.00
C 108.68 402.91 106.71 401.40 106.00 399.00
C 102.29 397.40 101.37 392.88 98.00 391.00
C 102.00 396.49 106.43 402.12 111.00 407.00 Z"/>
</g>
<g fill="#B34960" fill-opacity="0.84" stroke="None"><path d="
M 475.00 399.00 
C 477.33 397.57 479.43 395.28 481.00 393.00
C 478.67 394.43 476.57 396.72 475.00 399.00 Z"/>
</g>
<g fill="#94394E" fill-opacity="0.71" stroke="None"><path d="
M 87.00 404.00 
C 87.89 403.91 88.20 404.87 89.00 405.00
C 88.46 403.34 86.44 402.67 86.00 401.00
C 85.70 399.75 84.17 399.29 84.00 398.00
C 81.97 397.27 81.04 394.81 79.00 394.00
C 81.64 397.35 84.65 400.41 87.00 404.00 Z"/>
</g>
<g fill="#1F1214" fill-opacity="0.15" stroke="None"><path d="
M 84.00 398.00 
C 84.17 399.29 85.70 399.75 86.00 401.00
C 91.29 404.78 94.63 410.39 99.00 415.00
C 101.05 419.31 105.30 422.16 108.00 426.00
C 115.79 433.60 125.23 441.11 131.00 450.00
C 129.04 449.89 127.24 448.21 126.00 447.00
C 125.74 446.75 125.00 447.00 125.00 447.00
C 123.15 446.03 120.76 445.21 120.00 443.00
C 114.18 440.13 109.63 434.49 104.00 431.00
C 112.43 438.88 121.49 448.73 133.00 451.00
C 127.44 440.40 114.71 433.21 106.77 423.23 C 99.01 413.48 90.66 403.53 82.00 395.00
C 82.17 396.29 83.70 396.75 84.00 398.00 Z"/>
</g>
<g fill="#9E3F53" fill-opacity="0.80" stroke="None"><path d="
M 463.00 400.00 
C 463.00 400.00 463.20 400.60 463.00 401.00
C 457.82 406.24 453.83 412.54 448.00 417.00
C 448.00 417.00 448.20 417.60 448.00 418.00
C 445.46 421.30 442.31 424.56 439.00 427.00
C 439.00 427.00 439.20 427.60 439.00 428.00
C 436.22 432.43 430.81 435.05 429.00 440.00
C 434.85 438.47 439.11 433.45 444.00 430.00
C 444.40 429.80 445.00 430.00 445.00 430.00
C 453.78 419.58 465.40 411.82 474.00 401.00
C 461.65 411.57 450.81 425.06 437.00 433.00
C 446.71 420.26 458.23 408.76 468.00 396.00
C 465.97 396.73 465.04 399.19 463.00 400.00 Z"/>
</g>
<g fill="#AC2F4C" fill-opacity="0.87" stroke="None"><path d="
M 436.00 411.00 
C 439.94 408.93 440.92 403.92 445.00 402.00
C 445.47 400.07 448.45 399.31 448.00 397.00
C 443.33 400.84 438.86 405.90 436.00 411.00 Z"/>
</g>
<g fill="#90374C" fill-opacity="0.71" stroke="None"><path d="
M 71.00 399.00 
C 80.00 407.17 88.88 416.04 97.00 425.00
C 98.29 425.17 98.75 426.70 100.00 427.00
C 90.88 417.04 81.00 407.17 71.00 398.00
C 71.00 398.00 70.80 398.60 71.00 399.00 Z"/>
</g>
<g fill="#B03B56" fill-opacity="0.82" stroke="None"><path d="
M 106.00 399.00 
C 108.70 399.74 108.57 403.14 111.00 404.00
C 110.04 401.57 108.42 399.30 106.00 398.00
C 106.00 398.00 105.77 398.85 106.00 399.00 Z"/>
</g>
<g fill="#5B2934" fill-opacity="0.45" stroke="None"><path d="
M 97.00 425.00 
C 88.88 416.04 80.00 407.17 71.00 399.00
C 79.12 407.96 88.00 416.83 97.00 425.00 Z"/>
</g>
<g fill="#782A3E" fill-opacity="0.61" stroke="None"><path d="
M 110.00 405.00 
C 113.40 408.12 115.82 412.49 119.00 416.00
C 119.00 416.00 118.80 416.60 119.00 417.00
C 121.62 418.89 124.24 421.35 126.00 424.00
C 128.62 425.89 131.24 428.35 133.00 431.00
C 134.42 433.76 137.65 435.27 139.00 438.00
C 145.49 443.02 150.56 450.03 157.00 455.00
C 149.99 446.51 140.96 439.45 134.00 431.00
C 134.00 431.00 134.20 430.40 134.00 430.00
C 127.15 424.48 121.40 417.67 116.00 411.00
C 114.55 408.51 112.74 406.36 111.00 404.00
C 108.57 403.14 108.70 399.74 106.00 399.00
C 106.71 401.40 108.68 402.91 110.00 405.00 Z"/>
</g>
<g fill="#46252D" fill-opacity="0.34" stroke="None"><path d="
M 89.00 405.00 
C 89.44 406.67 91.46 407.34 92.00 409.00
C 94.76 410.42 96.27 413.65 99.00 415.00
C 94.63 410.39 91.29 404.78 86.00 401.00
C 86.44 402.67 88.46 403.34 89.00 405.00 Z"/>
</g>
<g fill="#662F3B" fill-opacity="0.49" stroke="None"><path d="
M 448.00 417.00 
C 453.83 412.54 457.82 406.24 463.00 401.00
C 457.08 405.39 452.70 411.47 448.00 417.00 Z"/>
</g>
<g fill="#822A3F" fill-opacity="0.67" stroke="None"><path d="
M 436.00 411.00 
C 436.00 411.00 436.23 411.84 436.00 412.00
C 439.95 409.62 441.91 405.29 445.00 402.00
C 440.92 403.92 439.94 408.93 436.00 411.00 Z"/>
</g>
<g fill="#39151E" fill-opacity="0.29" stroke="None"><path d="
M 111.00 407.00 
C 113.52 410.08 115.37 413.87 119.00 416.00
C 115.82 412.49 113.40 408.12 110.00 405.00
C 109.91 405.89 110.87 406.20 111.00 407.00 Z"/>
</g>
<g fill="#68303D" fill-opacity="0.52" stroke="None"><path d="
M 108.00 426.00 
C 105.30 422.16 101.05 419.31 99.00 415.00
C 96.27 413.65 94.76 410.42 92.00 409.00
C 97.14 414.75 101.68 421.23 108.00 426.00 Z"/>
</g>
<g fill="#AF3251" fill-opacity="0.84" stroke="None"><path d="
M 134.00 430.00 
C 127.98 423.74 122.38 416.80 116.00 411.00
C 121.40 417.67 127.15 424.48 134.00 430.00 Z"/>
</g>
<g fill="#A13A50" fill-opacity="0.82" stroke="None"><path d="
M 392.00 457.00 
C 393.66 456.46 394.33 454.44 396.00 454.00
C 407.50 441.67 419.71 429.45 432.00 418.00
C 431.76 415.23 435.15 414.35 436.00 412.00
C 422.02 427.06 406.15 441.65 392.00 457.00 Z"/>
</g>
<g fill="#1B1013" fill-opacity="0.12" stroke="None"><path d="
M 432.00 418.00 
C 431.87 418.80 430.91 419.11 431.00 420.00
C 420.66 431.83 408.29 442.22 398.00 454.00
C 411.27 441.21 425.46 428.26 437.00 414.00
C 434.97 414.73 434.04 417.19 432.00 418.00 Z"/>
</g>
<g fill="#241115" fill-opacity="0.18" stroke="None"><path d="
M 177.00 474.00 
C 164.86 461.74 150.21 451.64 139.00 438.00
C 137.65 435.27 134.42 433.76 133.00 431.00
C 130.38 429.11 127.76 426.65 126.00 424.00
C 124.24 421.35 121.62 418.89 119.00 417.00
C 136.18 437.63 155.78 457.64 177.00 474.00 Z"/>
</g>
<g fill="#71323F" fill-opacity="0.58" stroke="None"><path d="
M 396.00 454.00 
C 396.16 453.77 397.00 454.00 397.00 454.00
C 407.84 442.33 419.38 430.79 431.00 420.00
C 430.91 419.11 431.87 418.80 432.00 418.00
C 419.71 429.45 407.50 441.67 396.00 454.00 Z"/>
</g>
<g fill="#5A2C36" fill-opacity="0.43" stroke="None"><path d="
M 439.00 427.00 
C 442.31 424.56 445.46 421.30 448.00 418.00
C 444.69 420.44 441.54 423.70 439.00 427.00 Z"/>
</g>
<g fill="#3F2228" fill-opacity="0.32" stroke="None"><path d="
M 397.00 454.00 
C 397.00 454.00 397.60 454.20 398.00 454.00
C 408.29 442.22 420.66 431.83 431.00 420.00
C 419.38 430.79 407.84 442.33 397.00 454.00 Z"/>
</g>
<g fill="#501D2A" fill-opacity="0.41" stroke="None"><path d="
M 133.00 431.00 
C 131.24 428.35 128.62 425.89 126.00 424.00
C 127.76 426.65 130.38 429.11 133.00 431.00 Z"/>
</g>
<g fill="#271719" fill-opacity="0.17" stroke="None"><path d="
M 445.00 430.00 
C 445.00 430.00 444.40 429.80 444.00 430.00
C 442.03 434.12 437.03 435.07 435.00 439.00
C 441.17 434.59 447.93 430.61 452.00 424.00
C 449.27 425.35 447.76 428.58 445.00 430.00 Z"/>
</g>
<g fill="#43292E" fill-opacity="0.34" stroke="None"><path d="
M 108.00 427.00 
C 111.99 429.89 115.11 433.91 118.75 437.25 C 120.46 440.26 129.58 445.26 126.00 447.00
C 127.24 448.21 129.04 449.89 131.00 450.00
C 125.23 441.11 115.79 433.60 108.00 426.00
C 108.00 426.00 107.80 426.60 108.00 427.00 Z"/>
</g>
<g fill="#6C333F" fill-opacity="0.58" stroke="None"><path d="
M 102.00 430.00 
C 102.89 429.91 103.20 430.87 104.00 431.00
C 109.63 434.49 114.18 440.13 120.00 443.00
C 121.55 444.55 124.17 444.83 125.00 447.00
C 125.00 447.00 125.74 446.75 126.00 447.00
C 129.58 445.26 120.46 440.26 118.75 437.25 C 115.11 433.91 111.99 429.89 108.00 427.00
C 112.30 432.77 118.65 437.18 123.00 443.00
C 114.34 439.67 107.97 431.90 100.00 427.00
C 100.17 428.29 101.70 428.75 102.00 430.00 Z"/>
</g>
<g fill="#5F3C43" fill-opacity="0.49" stroke="None"><path d="
M 422.00 445.00 
C 424.34 446.30 427.43 441.98 430.00 441.00
C 431.82 441.55 432.47 439.25 434.00 439.00
C 434.00 439.00 434.68 439.24 435.00 439.00
C 437.03 435.07 442.03 434.12 444.00 430.00
C 439.11 433.45 434.85 438.47 429.00 440.00
C 430.81 435.05 436.22 432.43 439.00 428.00
C 433.04 433.11 427.18 439.01 422.00 445.00 Z"/>
</g>
<g fill="#A1344E" fill-opacity="0.81" stroke="None"><path d="
M 157.00 455.00 
C 166.52 462.73 176.16 470.80 185.00 479.00
C 186.28 478.47 186.86 479.97 188.00 480.00
C 189.66 480.54 190.33 482.56 192.00 483.00
C 172.25 466.88 152.48 449.75 134.00 431.00
C 140.96 439.45 149.99 446.51 157.00 455.00 Z"/>
</g>
<g fill="#52212D" fill-opacity="0.43" stroke="None"><path d="
M 177.00 474.00 
C 178.82 473.60 179.54 475.45 181.00 476.00
C 182.66 476.54 183.33 478.56 185.00 479.00
C 176.16 470.80 166.52 462.73 157.00 455.00
C 150.56 450.03 145.49 443.02 139.00 438.00
C 150.21 451.64 164.86 461.74 177.00 474.00 Z"/>
</g>
<g fill="#281C1F" fill-opacity="0.18" stroke="None"><path d="
M 430.00 441.00 
C 429.70 442.25 428.17 442.71 428.00 444.00
C 430.04 442.40 432.81 441.56 434.00 439.00
C 432.47 439.25 431.82 441.55 430.00 441.00 Z"/>
</g>
<g fill="#473437" fill-opacity="0.37" stroke="None"><path d="
M 422.00 445.00 
C 420.97 445.13 420.41 446.17 420.00 447.00
C 422.85 447.38 424.82 445.41 427.00 444.00
C 427.00 444.00 427.64 444.22 428.00 444.00
C 428.17 442.71 429.70 442.25 430.00 441.00
C 427.43 441.98 424.34 446.30 422.00 445.00 Z"/>
</g>
<g fill="#3D2229" fill-opacity="0.33" stroke="None"><path d="
M 125.00 447.00 
C 124.17 444.83 121.55 444.55 120.00 443.00
C 120.76 445.21 123.15 446.03 125.00 447.00 Z"/>
</g>
<g fill="#462329" fill-opacity="0.36" stroke="None"><path d="
M 392.00 457.00 
C 391.19 459.04 388.73 459.97 388.00 462.00
C 390.96 459.79 393.90 456.98 396.00 454.00
C 394.33 454.44 393.66 456.46 392.00 457.00 Z"/>
</g>
<g fill="#221316" fill-opacity="0.16" stroke="None"><path d="
M 388.00 462.00 
C 384.19 464.87 380.69 468.02 377.00 471.00
C 376.60 471.20 376.00 471.00 376.00 471.00
C 367.21 480.47 356.36 487.63 346.00 495.00
C 342.89 494.66 342.12 499.38 339.00 499.00
C 336.60 502.64 331.55 503.69 329.00 507.00
C 353.33 491.83 376.96 474.89 397.00 454.00
C 397.00 454.00 396.16 453.77 396.00 454.00
C 393.90 456.98 390.96 459.79 388.00 462.00 Z"/>
</g>
<g fill="#8F3749" fill-opacity="0.75" stroke="None"><path d="
M 337.00 500.00 
C 337.80 499.87 338.11 498.91 339.00 499.00
C 342.12 499.38 342.89 494.66 346.00 495.00
C 355.33 486.43 366.46 479.66 376.00 471.00
C 376.00 471.00 376.60 471.20 377.00 471.00
C 380.72 465.35 386.95 462.01 391.00 457.00
C 373.72 472.41 354.89 485.97 337.00 500.00 Z"/>
</g>
<g fill="#622D37" fill-opacity="0.51" stroke="None"><path d="
M 377.00 471.00 
C 380.69 468.02 384.19 464.87 388.00 462.00
C 388.73 459.97 391.19 459.04 392.00 457.00
C 392.00 457.00 391.32 456.76 391.00 457.00
C 386.95 462.01 380.72 465.35 377.00 471.00 Z"/>
</g>
<g fill="#4F272F" fill-opacity="0.41" stroke="None"><path d="
M 346.00 495.00 
C 356.36 487.63 367.21 480.47 376.00 471.00
C 366.46 479.66 355.33 486.43 346.00 495.00 Z"/>
</g>
<g fill="#2C1219" fill-opacity="0.23" stroke="None"><path d="
M 196.00 488.00 
C 195.87 487.20 194.91 486.89 195.00 486.00
C 192.57 484.17 189.37 482.95 188.00 480.00
C 186.86 479.97 186.28 478.47 185.00 479.00
C 183.33 478.56 182.66 476.54 181.00 476.00
C 185.39 480.82 190.57 484.86 196.00 488.00 Z"/>
</g>
<g fill="#7C2D3F" fill-opacity="0.62" stroke="None"><path d="
M 195.00 486.00 
C 198.37 488.60 202.57 490.46 205.00 494.00
C 206.46 494.55 207.18 496.40 209.00 496.00
C 206.65 491.98 201.31 491.00 199.00 487.00
C 196.24 486.67 194.43 484.24 192.00 483.00
C 190.33 482.56 189.66 480.54 188.00 480.00
C 189.37 482.95 192.57 484.17 195.00 486.00 Z"/>
</g>
<g fill="#4D1F29" fill-opacity="0.39" stroke="None"><path d="
M 196.00 488.00 
C 199.39 489.38 201.77 492.28 205.00 494.00
C 202.57 490.46 198.37 488.60 195.00 486.00
C 194.91 486.89 195.87 487.20 196.00 488.00 Z"/>
</g>
<g fill="#AC3751" fill-opacity="0.82" stroke="None"><path d="
M 209.00 496.00 
C 214.75 499.99 220.04 504.43 226.00 508.00
C 218.37 499.39 207.94 494.10 199.00 487.00
C 201.31 491.00 206.65 491.98 209.00 496.00 Z"/>
</g>
<g fill="#261216" fill-opacity="0.20" stroke="None"><path d="
M 211.00 499.00 
C 210.70 497.75 209.17 497.29 209.00 496.00
C 207.18 496.40 206.46 494.55 205.00 494.00
C 206.05 496.63 209.03 497.28 211.00 499.00 Z"/>
</g>
<g fill="#5F222E" fill-opacity="0.49" stroke="None"><path d="
M 211.00 499.00 
C 211.00 499.00 211.60 498.80 212.00 499.00
C 216.87 503.78 223.44 506.28 228.00 511.00
C 228.00 511.00 228.56 510.84 229.00 511.00
C 238.38 516.29 246.80 523.47 257.00 527.00
C 252.22 523.21 245.29 521.42 241.00 517.00
C 236.06 513.93 231.40 509.98 226.00 508.00
C 220.04 504.43 214.75 499.99 209.00 496.00
C 209.17 497.29 210.70 497.75 211.00 499.00 Z"/>
</g>
<g fill="#200C10" fill-opacity="0.16" stroke="None"><path d="
M 228.00 511.00 
C 223.44 506.28 216.87 503.78 212.00 499.00
C 215.96 504.61 222.32 507.63 228.00 511.00 Z"/>
</g>
<g fill="#632C38" fill-opacity="0.52" stroke="None"><path d="
M 337.00 500.00 
C 337.00 500.00 336.36 499.78 336.00 500.00
C 335.07 502.17 332.95 503.11 331.00 504.00
C 331.00 504.00 330.36 503.78 330.00 504.00
C 329.70 505.25 328.17 505.71 328.00 507.00
C 328.00 507.00 328.52 507.10 329.00 507.00
C 331.55 503.69 336.60 502.64 339.00 499.00
C 338.11 498.91 337.80 499.87 337.00 500.00 Z"/>
</g>
<g fill="#98384D" fill-opacity="0.79" stroke="None"><path d="
M 331.00 504.00 
C 332.95 503.11 335.07 502.17 336.00 500.00
C 334.36 501.36 331.98 501.99 331.00 504.00 Z"/>
</g>
<g fill="#99394F" fill-opacity="0.79" stroke="None"><path d="
M 325.00 508.00 
C 325.80 507.87 326.11 506.91 327.00 507.00
C 327.48 506.91 328.00 507.00 328.00 507.00
C 328.17 505.71 329.70 505.25 330.00 504.00
C 328.36 505.36 325.98 505.99 325.00 508.00 Z"/>
</g>
<g fill="#622F3A" fill-opacity="0.51" stroke="None"><path d="
M 325.00 508.00 
C 325.00 508.00 324.36 507.78 324.00 508.00
C 323.26 510.70 319.86 510.57 319.00 513.00
C 320.18 513.15 321.06 512.57 322.00 512.00
C 322.74 509.30 326.14 509.43 327.00 507.00
C 326.11 506.91 325.80 507.87 325.00 508.00 Z"/>
</g>
<g fill="#392025" fill-opacity="0.28" stroke="None"><path d="
M 322.00 512.00 
C 324.04 510.40 326.81 509.56 328.00 507.00
C 328.00 507.00 327.48 506.91 327.00 507.00
C 326.14 509.43 322.74 509.30 322.00 512.00 Z"/>
</g>
<g fill="#953448" fill-opacity="0.75" stroke="None"><path d="
M 241.00 517.00 
C 245.29 521.42 252.22 523.21 257.00 527.00
C 265.17 530.12 273.75 531.95 283.00 531.00
C 284.65 529.07 287.58 528.64 290.00 528.00
C 293.77 528.09 296.63 525.26 300.00 524.00
C 301.16 522.51 303.34 521.98 305.00 521.00
C 308.16 520.87 310.11 517.91 313.00 517.00
C 313.00 517.00 313.56 517.16 314.00 517.00
C 315.19 515.29 316.65 512.88 319.00 513.00
C 319.86 510.57 323.26 510.70 324.00 508.00
C 311.67 515.83 299.65 525.05 285.23 528.23 C 269.28 535.10 254.76 522.76 241.00 517.00 Z"/>
</g>
<g fill="#2D1318" fill-opacity="0.24" stroke="None"><path d="
M 284.00 531.00 
C 283.61 531.21 283.00 531.00 283.00 531.00
C 273.75 531.95 265.17 530.12 257.00 527.00
C 246.80 523.47 238.38 516.29 229.00 511.00
C 244.21 522.91 263.58 535.97 284.00 531.00 Z"/>
</g>
<g fill="#44242B" fill-opacity="0.35" stroke="None"><path d="
M 314.00 517.00 
C 315.95 516.11 318.07 515.17 319.00 513.00
C 316.65 512.88 315.19 515.29 314.00 517.00 Z"/>
</g>
<g fill="#30161B" fill-opacity="0.24" stroke="None"><path d="
M 305.00 521.00 
C 304.15 522.92 301.95 523.78 300.00 524.00
C 296.63 525.26 293.77 528.09 290.00 528.00
C 289.92 529.26 287.94 528.56 288.00 530.00
C 296.79 526.90 306.45 524.10 313.00 517.00
C 310.11 517.91 308.16 520.87 305.00 521.00 Z"/>
</g>
<g fill="#632937" fill-opacity="0.51" stroke="None"><path d="
M 300.00 524.00 
C 301.95 523.78 304.15 522.92 305.00 521.00
C 303.34 521.98 301.16 522.51 300.00 524.00 Z"/>
</g>
<g fill="#662533" fill-opacity="0.52" stroke="None"><path d="
M 283.00 531.00 
C 283.00 531.00 283.61 531.21 284.00 531.00
C 285.31 530.46 286.44 529.59 288.00 530.00
C 287.94 528.56 289.92 529.26 290.00 528.00
C 287.58 528.64 284.65 529.07 283.00 531.00 Z"/>
</g>
</svg>