<svg xmlns="http://www.w3.org/2000/svg" xmlns:v="https://svgstorm.com"
viewBox = "0 0 550 550"
width="550"
height="550">
<g fill="#000000" fill-opacity="0.00" stroke="None"><path d="
M 0.00 550.00 
L 550.00 550.00
L 550.00 0.00
L 0.00 0.00
L 0.00 550.00
M 408.00 75.00 
C 428.17 75.00 446.04 79.25 464.00 87.00
C 467.92 88.69 471.48 91.08 475.00 93.00
C 495.09 101.67 512.17 118.95 524.30 137.70 C 536.43 156.45 549.46 185.52 548.00 209.00
C 547.97 209.50 548.00 210.50 548.00 211.00
C 550.00 215.70 551.14 234.75 548.00 239.00
C 548.00 239.50 548.00 240.00 548.00 240.00
C 548.00 269.63 535.48 302.97 523.70 328.69 C 511.91 354.42 497.24 376.63 480.08 398.08 C 462.92 419.54 445.38 438.19 424.75 455.75 C 404.12 473.32 384.21 491.69 361.30 505.30 C 338.39 518.91 315.38 539.77 289.00 546.00
C 288.53 546.11 288.00 546.00 288.00 546.00
C 274.10 557.28 252.86 541.44 239.75 535.25 C 226.65 529.05 212.06 518.72 199.30 510.70 C 186.55 502.67 172.87 492.60 160.75 483.25 C 148.64 473.89 136.66 464.18 125.25 453.75 C 113.83 443.33 102.32 432.61 92.00 421.00
C 90.15 419.22 88.78 416.93 87.00 415.00
C 79.08 406.43 71.43 398.81 64.75 389.25 C 58.06 379.70 51.42 370.86 45.23 360.77 C 39.04 350.68 32.94 341.12 28.08 329.92 C 23.21 318.73 18.28 307.73 14.22 295.78 C 10.17 283.82 6.90 269.88 5.01 256.99 C 3.12 244.10 0.23 225.95 2.93 212.93 C 5.62 199.91 2.56 182.40 11.00 172.00
C 11.02 171.50 11.00 171.00 11.00 171.00
C 14.46 149.84 30.02 130.94 44.75 114.75 C 59.48 98.56 79.84 88.68 101.07 81.07 C 122.30 73.47 158.74 73.40 181.07 78.93 C 203.40 84.46 223.07 93.89 239.25 110.75 C 255.43 127.61 268.33 144.21 275.00 166.00
C 284.95 146.24 295.68 124.39 314.25 108.25 C 332.81 92.11 355.32 79.36 380.00 77.00
C 380.50 77.02 381.50 77.00 382.00 77.00
C 383.91 76.23 385.56 76.11 388.00 76.00
C 389.84 75.76 392.53 75.05 395.00 75.00
C 397.66 74.95 400.34 75.00 403.00 75.00
C 404.50 74.87 406.56 74.87 408.00 75.00 Z"/>
</g>
<g fill="#FFFFFF" fill-opacity="0.01" stroke="None"><path d="
M 403.00 75.00 
C 404.67 75.00 406.33 75.00 408.00 75.00
C 406.56 74.87 404.50 74.87 403.00 75.00 Z"/>
</g>
<g fill="#DAD5D6" fill-opacity="0.17" stroke="None"><path d="
M 11.00 171.00 
C 12.28 169.51 14.17 166.62 15.00 165.00
C 20.33 150.55 27.77 137.42 37.00 125.00
C 40.58 120.19 45.52 115.83 50.00 112.00
C 52.26 110.06 54.83 108.52 57.00 107.00
C 59.57 104.89 61.05 102.71 64.00 101.00
C 78.59 92.52 96.29 80.60 114.00 80.00
C 117.52 79.10 120.66 77.59 125.00 78.00
C 125.50 78.05 126.00 78.00 126.00 78.00
C 132.27 73.36 150.91 75.68 159.00 76.00
C 161.13 76.09 162.45 76.54 164.00 77.00
C 165.49 77.14 166.46 77.85 168.00 78.00
C 168.98 78.10 170.01 77.97 171.00 78.00
C 176.17 78.18 181.57 80.33 186.00 82.00
C 189.66 82.89 193.33 84.02 197.00 85.00
C 201.86 86.30 205.78 88.65 210.00 91.00
C 211.66 91.92 213.39 92.24 215.00 93.00
C 220.32 95.50 227.61 100.15 231.00 105.00
C 231.16 105.23 232.00 105.00 232.00 105.00
C 241.53 109.66 251.58 124.59 257.00 133.00
C 264.19 144.15 270.31 155.67 275.00 168.00
C 276.28 168.53 276.86 167.03 278.00 167.00
C 278.15 166.55 278.00 166.00 278.00 166.00
C 278.58 164.30 279.49 162.38 280.00 161.00
C 282.27 154.87 284.76 148.87 288.00 143.00
C 289.89 139.58 291.95 136.30 294.00 133.00
C 296.60 128.81 299.58 125.42 303.00 122.00
C 307.92 117.08 313.13 111.87 318.00 107.00
C 320.68 104.32 322.65 101.85 326.00 100.00
C 327.21 99.33 328.71 98.82 330.00 98.00
C 336.62 92.74 344.66 87.43 353.00 85.00
C 359.86 83.00 367.88 79.74 375.00 79.00
C 376.28 78.59 378.75 77.36 380.00 77.00
C 355.32 79.36 332.81 92.11 314.25 108.25 C 295.68 124.39 284.95 146.24 275.00 166.00
C 268.33 144.21 255.43 127.61 239.25 110.75 C 223.07 93.89 203.40 84.46 181.07 78.93 C 158.74 73.40 122.30 73.47 101.07 81.07 C 79.84 88.68 59.48 98.56 44.75 114.75 C 30.02 130.94 14.46 149.84 11.00 171.00 Z"/>
</g>
<g fill="#E3E1E1" fill-opacity="0.09" stroke="None"><path d="
M 388.00 76.00 
C 390.36 75.89 393.34 75.16 395.00 75.00
C 392.53 75.05 389.84 75.76 388.00 76.00 Z"/>
</g>
<g fill="#CEC3C5" fill-opacity="0.24" stroke="None"><path d="
M 388.00 76.00 
C 385.56 76.11 383.91 76.23 382.00 77.00
C 383.00 77.00 384.00 77.00 385.00 77.00
C 387.00 77.00 389.00 77.00 391.00 77.00
C 392.33 77.00 393.67 77.00 395.00 77.00
C 401.80 76.07 410.25 75.52 417.00 77.00
C 418.00 77.00 419.00 77.00 420.00 77.00
C 423.73 76.98 426.93 78.37 430.00 79.00
C 432.21 79.24 433.98 79.65 436.00 80.00
C 471.04 86.03 504.79 108.97 524.00 140.00
C 530.03 149.73 535.09 160.12 538.00 171.00
C 539.49 174.93 541.03 178.54 542.00 183.00
C 543.13 188.20 543.69 193.79 545.00 199.00
C 546.12 201.76 546.92 203.90 547.00 207.00
C 547.01 207.50 547.03 208.50 547.00 209.00
C 547.34 209.23 548.00 209.00 548.00 209.00
C 549.46 185.52 536.43 156.45 524.30 137.70 C 512.17 118.95 495.09 101.67 475.00 93.00
C 471.13 91.33 467.42 88.99 464.00 87.00
C 446.04 79.25 428.17 75.00 408.00 75.00
C 406.33 75.00 404.67 75.00 403.00 75.00
C 400.34 75.00 397.66 74.95 395.00 75.00
C 393.34 75.16 390.36 75.89 388.00 76.00 Z"/>
</g>
<g fill="#B58A94" fill-opacity="0.59" stroke="None"><path d="
M 126.00 78.00 
C 127.00 78.00 128.00 78.00 129.00 78.00
C 131.00 78.00 133.00 78.00 135.00 78.00
C 142.33 77.29 150.97 77.00 159.00 77.00
C 158.75 76.73 159.00 76.00 159.00 76.00
C 150.91 75.68 132.27 73.36 126.00 78.00 Z"/>
</g>
<g fill="#BCACB0" fill-opacity="0.38" stroke="None"><path d="
M 159.00 77.00 
C 160.00 77.00 161.00 77.00 162.00 77.00
C 162.50 77.00 163.50 76.95 164.00 77.00
C 162.45 76.54 161.13 76.09 159.00 76.00
C 159.00 76.00 158.75 76.73 159.00 77.00 Z"/>
</g>
<g fill="#B57988" fill-opacity="0.69" stroke="None"><path d="
M 395.00 77.00 
C 402.33 77.00 409.67 77.00 417.00 77.00
C 410.25 75.52 401.80 76.07 395.00 77.00 Z"/>
</g>
<g fill="#C45B73" fill-opacity="0.88" stroke="None"><path d="
M 135.00 78.00 
C 143.02 78.00 155.07 79.95 162.00 77.00
C 161.00 77.00 160.00 77.00 159.00 77.00
C 150.97 77.00 142.33 77.29 135.00 78.00 Z"/>
</g>
<g fill="#F5466C" fill-opacity="1.00" stroke="None"><path d="
M 135.00 78.00 
C 133.00 78.00 131.00 78.00 129.00 78.00
C 125.52 78.52 122.34 80.41 118.00 80.00
C 117.50 79.95 117.00 80.00 117.00 80.00
C 105.41 86.34 88.50 86.94 76.92 94.92 C 65.35 102.91 54.66 108.23 44.75 118.75 C 34.85 129.27 29.13 138.83 22.08 151.08 C 15.04 163.33 12.47 179.51 7.00 192.00
C 6.73 193.03 6.27 193.91 6.00 195.00
C 5.82 212.11 6.00 231.86 6.00 250.00
C 6.00 250.50 6.00 251.00 6.00 251.00
C 9.25 256.95 9.33 265.25 10.78 272.22 C 12.23 279.20 14.50 287.00 16.00 294.00
C 19.13 308.59 26.49 322.84 33.00 336.00
C 35.66 339.69 38.10 343.60 40.00 348.00
C 43.45 356.00 48.69 362.35 53.00 370.00
C 54.92 372.36 57.21 374.40 59.00 377.00
C 63.26 381.60 68.01 386.94 71.32 391.68 C 74.63 396.42 80.38 402.05 83.30 406.70 C 86.23 411.34 97.07 419.82 93.00 412.00
C 97.62 411.27 97.17 419.71 102.00 417.00
C 102.52 421.10 102.14 419.38 105.70 422.30 C 109.25 425.23 103.00 425.12 104.00 428.00
C 111.16 433.46 117.94 439.39 126.03 444.97 C 134.11 450.56 140.43 453.61 149.74 458.26 C 159.06 462.90 164.79 467.36 174.23 469.79 C 183.67 472.21 191.59 477.40 201.69 477.31 C 211.80 477.22 222.81 480.68 233.03 480.02 C 243.25 479.36 252.58 479.37 263.00 477.00 C 273.43 474.63 282.29 473.81 291.07 470.07 C 299.86 466.34 310.11 462.30 318.25 458.80 C 326.38 455.31 335.75 449.27 343.08 445.08 C 350.40 440.88 359.56 435.21 366.68 430.68 C 373.80 426.15 379.25 418.64 387.30 414.30 C 395.34 409.95 399.35 401.12 408.00 403.00
C 403.35 399.18 410.44 393.89 414.10 391.10 C 417.76 388.31 422.13 382.85 426.25 378.25 C 430.38 373.65 435.38 369.53 438.75 364.75 C 442.13 359.97 446.50 354.33 450.75 349.75 C 455.00 345.17 457.22 338.76 460.77 333.77 C 464.32 328.78 468.61 322.53 471.33 317.33 C 474.04 312.12 477.95 302.69 481.00 304.00
C 483.94 293.13 488.92 286.04 492.92 274.92 C 496.93 263.81 498.78 257.45 501.64 246.30 C 504.50 235.16 504.97 221.49 505.79 209.77 C 506.60 198.05 506.85 185.13 505.01 172.99 C 503.17 160.85 501.95 153.10 498.22 141.78 C 494.50 130.46 487.61 120.90 487.00 109.00
C 489.06 110.42 488.53 113.31 493.00 113.00
C 490.81 102.64 477.89 98.50 468.77 93.23 C 459.65 87.96 446.11 85.93 437.00 81.00
C 436.66 80.84 436.26 80.22 436.00 80.00
C 433.98 79.65 432.21 79.24 430.00 79.00
C 426.48 78.62 422.96 77.54 420.00 77.00
C 419.00 77.00 418.00 77.00 417.00 77.00
C 409.67 77.00 402.33 77.00 395.00 77.00
C 393.67 77.00 392.33 77.00 391.00 77.00
C 387.69 77.43 383.95 79.15 380.00 79.00
C 379.50 78.98 378.50 79.00 378.00 79.00
C 363.72 83.98 347.93 89.08 334.32 96.32 C 320.71 103.57 313.49 116.27 301.00 125.00
C 300.84 125.44 301.00 126.00 301.00 126.00
C 292.81 136.73 285.86 151.92 280.00 161.00
C 279.49 162.38 278.58 164.30 278.00 166.00
C 280.31 168.23 276.41 170.41 274.00 168.00
C 269.43 163.43 267.48 153.75 265.00 148.00
C 253.53 129.66 237.85 112.17 221.00 98.00
C 219.56 97.09 218.41 96.69 217.00 96.00
C 215.63 95.33 214.35 94.67 213.00 94.00
C 202.26 88.67 190.01 85.07 179.00 81.00
C 177.60 80.67 176.54 80.23 175.00 80.00
C 171.87 79.54 170.51 79.00 168.00 78.00
C 166.46 77.85 165.49 77.14 164.00 77.00
C 163.50 76.95 162.50 77.00 162.00 77.00
C 155.07 79.95 143.02 78.00 135.00 78.00 Z"/>
</g>
<g fill="#BCA8AD" fill-opacity="0.42" stroke="None"><path d="
M 375.00 79.00 
C 375.97 78.90 377.02 79.00 378.00 79.00
C 378.50 79.00 379.50 78.98 380.00 79.00
C 381.10 78.69 383.96 77.14 385.00 77.00
C 384.00 77.00 383.00 77.00 382.00 77.00
C 381.50 77.00 380.50 77.02 380.00 77.00
C 378.75 77.36 376.28 78.59 375.00 79.00 Z"/>
</g>
<g fill="#B67683" fill-opacity="0.71" stroke="None"><path d="
M 380.00 79.00 
C 383.95 79.15 387.69 77.43 391.00 77.00
C 389.00 77.00 387.00 77.00 385.00 77.00
C 383.96 77.14 381.10 78.69 380.00 79.00 Z"/>
</g>
<g fill="#B97585" fill-opacity="0.74" stroke="None"><path d="
M 430.00 79.00 
C 426.93 78.37 423.73 76.98 420.00 77.00
C 422.96 77.54 426.48 78.62 430.00 79.00 Z"/>
</g>
<g fill="#B8979D" fill-opacity="0.51" stroke="None"><path d="
M 114.00 80.00 
C 115.00 79.97 116.00 80.00 117.00 80.00
C 117.00 80.00 117.50 79.95 118.00 80.00
C 120.05 78.48 122.96 79.51 125.00 78.00
C 120.66 77.59 117.52 79.10 114.00 80.00 Z"/>
</g>
<g fill="#BF6173" fill-opacity="0.82" stroke="None"><path d="
M 118.00 80.00 
C 122.34 80.41 125.52 78.52 129.00 78.00
C 128.00 78.00 127.00 78.00 126.00 78.00
C 126.00 78.00 125.50 78.05 125.00 78.00
C 122.96 79.51 120.05 78.48 118.00 80.00 Z"/>
</g>
<g fill="#B9707F" fill-opacity="0.76" stroke="None"><path d="
M 175.00 80.00 
C 174.15 79.75 171.80 78.14 171.00 78.00
C 170.01 77.97 168.98 78.10 168.00 78.00
C 170.51 79.00 171.87 79.54 175.00 80.00 Z"/>
</g>
<g fill="#B6989F" fill-opacity="0.50" stroke="None"><path d="
M 175.00 80.00 
C 176.54 80.23 177.60 80.67 179.00 81.00
C 181.32 81.54 183.66 81.43 186.00 82.00
C 181.57 80.33 176.17 78.18 171.00 78.00
C 171.80 78.14 174.15 79.75 175.00 80.00 Z"/>
</g>
<g fill="#BA6F7E" fill-opacity="0.76" stroke="None"><path d="
M 353.00 85.00 
C 345.38 88.14 337.12 93.49 330.00 98.00
C 328.71 98.82 327.21 99.33 326.00 100.00
C 323.43 101.89 320.41 104.90 318.00 107.00
C 313.03 111.33 307.42 117.19 303.00 122.00
C 302.30 122.76 301.35 124.04 301.00 125.00
C 313.49 116.27 320.71 103.57 334.32 96.32 C 347.93 89.08 363.72 83.98 378.00 79.00
C 377.02 79.00 375.97 78.90 375.00 79.00
C 367.88 79.74 359.86 83.00 353.00 85.00 Z"/>
</g>
<g fill="#B87782" fill-opacity="0.71" stroke="None"><path d="
M 64.00 101.00 
C 61.69 102.68 59.48 105.26 57.00 107.00
C 54.83 108.52 52.26 110.06 50.00 112.00
C 45.87 116.13 40.77 120.68 37.00 125.00
C 27.77 137.42 20.33 150.55 15.00 165.00
C 13.17 169.96 10.52 175.33 9.00 180.00
C 8.12 183.95 8.03 188.06 7.00 192.00
C 12.47 179.51 15.04 163.33 22.08 151.08 C 29.13 138.83 34.85 129.27 44.75 118.75 C 54.66 108.23 65.35 102.91 76.92 94.92 C 88.50 86.94 105.41 86.34 117.00 80.00
C 116.00 80.00 115.00 79.97 114.00 80.00
C 96.29 80.60 78.59 92.52 64.00 101.00 Z"/>
</g>
<g fill="#B3727F" fill-opacity="0.68" stroke="None"><path d="
M 437.00 81.00 
C 455.55 82.71 477.06 95.33 492.00 106.00
C 502.34 113.39 513.35 124.32 520.00 135.00
C 520.22 135.36 520.00 136.00 520.00 136.00
C 521.29 137.24 522.94 138.63 524.00 140.00
C 504.79 108.97 471.04 86.03 436.00 80.00
C 436.26 80.22 436.66 80.84 437.00 81.00 Z"/>
</g>
<g fill="#C16B7B" fill-opacity="0.78" stroke="None"><path d="
M 213.00 94.00 
C 212.06 93.37 210.88 91.56 210.00 91.00
C 206.56 88.83 200.60 86.41 197.00 85.00
C 193.33 84.02 189.66 82.89 186.00 82.00
C 183.66 81.43 181.32 81.54 179.00 81.00
C 190.01 85.07 202.26 88.67 213.00 94.00 Z"/>
</g>
<g fill="#E43B5F" fill-opacity="1.00" stroke="None"><path d="
M 59.00 377.00 
C 65.61 386.64 73.37 395.43 80.00 405.00
C 80.67 405.97 81.60 406.91 82.00 408.00
C 102.52 430.36 126.34 450.79 148.00 471.00
C 148.67 471.42 149.32 471.65 150.00 472.00
C 172.52 483.57 190.92 505.17 213.70 516.31 C 236.47 527.44 262.25 553.63 289.08 543.08 C 315.90 532.52 334.23 517.64 359.00 504.00
C 360.20 503.34 361.71 502.78 363.00 502.00
C 377.42 490.54 392.23 479.27 407.00 468.00
C 407.32 467.76 408.00 468.00 408.00 468.00
C 419.05 452.19 437.23 442.94 449.75 427.75 C 462.27 412.57 477.05 399.22 487.77 382.77 C 498.49 366.32 511.16 349.30 520.00 332.00
C 527.26 312.35 534.72 296.70 539.93 275.93 C 545.14 255.16 546.37 228.84 547.00 207.00
C 546.92 203.90 546.12 201.76 545.00 199.00
C 540.80 188.68 538.58 175.74 535.02 164.98 C 531.47 154.21 523.72 146.37 520.00 136.00
C 520.00 136.00 520.22 135.36 520.00 135.00
C 509.71 128.29 501.70 114.13 492.00 106.00
C 477.06 95.33 455.55 82.71 437.00 81.00
C 446.11 85.93 459.65 87.96 468.77 93.23 C 477.89 98.50 490.81 102.64 493.00 113.00
C 488.53 113.31 489.06 110.42 487.00 109.00
C 487.61 120.90 494.50 130.46 498.22 141.78 C 501.95 153.10 503.17 160.85 505.01 172.99 C 506.85 185.13 506.60 198.05 505.79 209.77 C 504.97 221.49 504.50 235.16 501.64 246.30 C 498.78 257.45 496.93 263.81 492.92 274.92 C 488.92 286.04 483.94 293.13 481.00 304.00
C 477.95 302.69 474.04 312.12 471.33 317.33 C 468.61 322.53 464.32 328.78 460.77 333.77 C 457.22 338.76 455.00 345.17 450.75 349.75 C 446.50 354.33 442.13 359.97 438.75 364.75 C 435.38 369.53 430.38 373.65 426.25 378.25 C 422.13 382.85 417.76 388.31 414.10 391.10 C 410.44 393.89 403.35 399.18 408.00 403.00
C 399.35 401.12 395.34 409.95 387.30 414.30 C 379.25 418.64 373.80 426.15 366.68 430.68 C 359.56 435.21 350.40 440.88 343.08 445.08 C 335.75 449.27 326.38 455.31 318.25 458.80 C 310.11 462.30 299.86 466.34 291.07 470.07 C 282.29 473.81 273.43 474.63 263.00 477.00 C 252.58 479.37 243.25 479.36 233.03 480.02 C 222.81 480.68 211.80 477.22 201.69 477.31 C 191.59 477.40 183.67 472.21 174.23 469.79 C 164.79 467.36 159.06 462.90 149.74 458.26 C 140.43 453.61 134.11 450.56 126.03 444.97 C 117.94 439.39 111.16 433.46 104.00 428.00
C 103.00 425.12 109.25 425.23 105.70 422.30 C 102.14 419.38 102.52 421.10 102.00 417.00
C 97.17 419.71 97.62 411.27 93.00 412.00
C 97.07 419.82 86.23 411.34 83.30 406.70 C 80.38 402.05 74.63 396.42 71.32 391.68 C 68.01 386.94 63.26 381.60 59.00 377.00 Z"/>
</g>
<g fill="#BDAEB1" fill-opacity="0.38" stroke="None"><path d="
M 210.00 91.00 
C 205.78 88.65 201.86 86.30 197.00 85.00
C 200.60 86.41 206.56 88.83 210.00 91.00 Z"/>
</g>
<g fill="#BDAAAE" fill-opacity="0.40" stroke="None"><path d="
M 330.00 98.00 
C 337.12 93.49 345.38 88.14 353.00 85.00
C 344.66 87.43 336.62 92.74 330.00 98.00 Z"/>
</g>
<g fill="#ECECEC" fill-opacity="0.07" stroke="None"><path d="
M 475.00 93.00 
C 471.48 91.08 467.92 88.69 464.00 87.00
C 467.42 88.99 471.13 91.33 475.00 93.00 Z"/>
</g>
<g fill="#B68690" fill-opacity="0.60" stroke="None"><path d="
M 213.00 94.00 
C 214.35 94.67 215.63 95.33 217.00 96.00
C 216.22 95.35 215.73 93.57 215.00 93.00
C 213.39 92.24 211.66 91.92 210.00 91.00
C 210.88 91.56 212.06 93.37 213.00 94.00 Z"/>
</g>
<g fill="#BEA9AE" fill-opacity="0.39" stroke="None"><path d="
M 217.00 96.00 
C 218.41 96.69 219.56 97.09 221.00 98.00
C 224.33 100.11 228.06 102.44 231.00 105.00
C 227.61 100.15 220.32 95.50 215.00 93.00
C 215.73 93.57 216.22 95.35 217.00 96.00 Z"/>
</g>
<g fill="#C86077" fill-opacity="0.82" stroke="None"><path d="
M 265.00 148.00 
C 261.16 139.11 254.49 132.84 249.00 125.00
C 247.50 122.85 245.86 120.18 244.00 118.00
C 240.26 114.26 233.08 109.97 231.00 105.00
C 228.06 102.44 224.33 100.11 221.00 98.00
C 237.85 112.17 253.53 129.66 265.00 148.00 Z"/>
</g>
<g fill="#BDAAAF" fill-opacity="0.41" stroke="None"><path d="
M 318.00 107.00 
C 320.41 104.90 323.43 101.89 326.00 100.00
C 322.65 101.85 320.68 104.32 318.00 107.00 Z"/>
</g>
<g fill="#B8A1A5" fill-opacity="0.47" stroke="None"><path d="
M 57.00 107.00 
C 59.48 105.26 61.69 102.68 64.00 101.00
C 61.05 102.71 59.57 104.89 57.00 107.00 Z"/>
</g>
<g fill="#B27F8C" fill-opacity="0.60" stroke="None"><path d="
M 244.00 118.00 
C 240.25 113.61 235.27 109.68 232.00 105.00
C 232.00 105.00 231.16 105.23 231.00 105.00
C 233.08 109.97 240.26 114.26 244.00 118.00 Z"/>
</g>
<g fill="#C0B1B4" fill-opacity="0.35" stroke="None"><path d="
M 244.00 118.00 
C 245.86 120.18 247.50 122.85 249.00 125.00
C 251.33 127.84 254.75 130.23 257.00 133.00
C 251.58 124.59 241.53 109.66 232.00 105.00
C 235.27 109.68 240.25 113.61 244.00 118.00 Z"/>
</g>
<g fill="#BE526A" fill-opacity="0.86" stroke="None"><path d="
M 520.00 135.00 
C 513.35 124.32 502.34 113.39 492.00 106.00
C 501.70 114.13 509.71 128.29 520.00 135.00 Z"/>
</g>
<g fill="#F9758E" fill-opacity="1.00" stroke="None"><path d="
M 125.00 107.00 
C 110.59 104.94 93.37 111.77 82.08 120.08 C 70.80 128.39 62.48 135.93 54.75 148.75 C 47.03 161.58 38.92 171.62 40.00 190.00 C 41.09 208.37 60.31 203.50 66.08 189.08 C 71.86 174.66 81.22 168.17 91.75 158.75 C 102.29 149.34 114.01 144.42 126.25 137.25 C 138.49 130.08 143.70 109.67 125.00 107.00 Z"/>
</g>
<g fill="#B49097" fill-opacity="0.57" stroke="None"><path d="
M 303.00 122.00 
C 307.42 117.19 313.03 111.33 318.00 107.00
C 313.13 111.87 307.92 117.08 303.00 122.00 Z"/>
</g>
<g fill="#B8A5A8" fill-opacity="0.44" stroke="None"><path d="
M 37.00 125.00 
C 40.77 120.68 45.87 116.13 50.00 112.00
C 45.52 115.83 40.58 120.19 37.00 125.00 Z"/>
</g>
<g fill="#BDAAAE" fill-opacity="0.40" stroke="None"><path d="
M 294.00 133.00 
C 294.11 132.79 295.00 133.00 295.00 133.00
C 296.70 130.25 298.32 127.87 301.00 126.00
C 301.00 126.00 300.84 125.44 301.00 125.00
C 301.35 124.04 302.30 122.76 303.00 122.00
C 299.58 125.42 296.60 128.81 294.00 133.00 Z"/>
</g>
<g fill="#B78993" fill-opacity="0.56" stroke="None"><path d="
M 265.00 148.00 
C 267.48 153.75 269.43 163.43 274.00 168.00
C 275.61 169.05 277.30 169.17 278.00 167.00
C 276.86 167.03 276.28 168.53 275.00 168.00
C 270.31 155.67 264.19 144.15 257.00 133.00
C 254.75 130.23 251.33 127.84 249.00 125.00
C 254.49 132.84 261.16 139.11 265.00 148.00 Z"/>
</g>
<g fill="#BA6D7E" fill-opacity="0.76" stroke="None"><path d="
M 295.00 133.00 
C 292.82 136.52 290.23 139.78 288.00 143.00
C 284.76 148.87 282.27 154.87 280.00 161.00
C 285.86 151.92 292.81 136.73 301.00 126.00
C 298.32 127.87 296.70 130.25 295.00 133.00 Z"/>
</g>
<g fill="#B38793" fill-opacity="0.57" stroke="None"><path d="
M 288.00 143.00 
C 290.23 139.78 292.82 136.52 295.00 133.00
C 295.00 133.00 294.11 132.79 294.00 133.00
C 291.95 136.30 289.89 139.58 288.00 143.00 Z"/>
</g>
<g fill="#BF5C72" fill-opacity="0.82" stroke="None"><path d="
M 545.00 199.00 
C 543.69 193.79 543.13 188.20 542.00 183.00
C 540.71 179.28 539.10 175.11 538.00 171.00
C 535.09 160.12 530.03 149.73 524.00 140.00
C 522.94 138.63 521.29 137.24 520.00 136.00
C 523.72 146.37 531.47 154.21 535.02 164.98 C 538.58 175.74 540.80 188.68 545.00 199.00 Z"/>
</g>
<g fill="#B9A3A7" fill-opacity="0.47" stroke="None"><path d="
M 11.00 171.00 
C 11.00 171.00 11.02 171.50 11.00 172.00
C 10.89 174.86 9.61 177.25 9.00 180.00
C 10.52 175.33 13.17 169.96 15.00 165.00
C 14.17 166.62 12.28 169.51 11.00 171.00 Z"/>
</g>
<g fill="#C17E8D" fill-opacity="0.73" stroke="None"><path d="
M 278.00 167.00 
C 277.30 169.17 275.61 169.05 274.00 168.00
C 276.41 170.41 280.31 168.23 278.00 166.00
C 278.00 166.00 278.15 166.55 278.00 167.00 Z"/>
</g>
<g fill="#AF7B86" fill-opacity="0.63" stroke="None"><path d="
M 542.00 183.00 
C 541.03 178.54 539.49 174.93 538.00 171.00
C 539.10 175.11 540.71 179.28 542.00 183.00 Z"/>
</g>
<g fill="#CCC0C2" fill-opacity="0.19" stroke="None"><path d="
M 87.00 415.00 
C 85.43 413.43 82.96 410.96 82.00 409.00
C 81.80 408.60 82.00 408.00 82.00 408.00
C 81.60 406.91 80.67 405.97 80.00 405.00
C 78.73 403.62 77.17 402.49 76.00 401.00
C 73.88 398.88 72.63 397.47 71.00 395.00
C 65.29 386.33 58.00 378.87 53.00 370.00
C 48.69 362.35 43.45 356.00 40.00 348.00
C 37.51 344.02 35.16 340.36 33.00 336.00
C 26.49 322.84 19.13 308.59 16.00 294.00
C 11.90 281.38 4.45 265.27 6.00 251.00
C 6.00 251.00 6.00 250.50 6.00 250.00
C 1.30 243.65 4.98 231.24 4.00 223.00 C 3.02 214.76 4.03 202.93 6.00 195.00
C 6.27 193.91 6.73 193.03 7.00 192.00
C 8.03 188.06 8.12 183.95 9.00 180.00
C 9.61 177.25 10.89 174.86 11.00 172.00
C 2.56 182.40 5.62 199.91 2.93 212.93 C 0.23 225.95 3.12 244.10 5.01 256.99 C 6.90 269.88 10.17 283.82 14.22 295.78 C 18.28 307.73 23.21 318.73 28.08 329.92 C 32.94 341.12 39.04 350.68 45.23 360.77 C 51.42 370.86 58.06 379.70 64.75 389.25 C 71.43 398.81 79.08 406.43 87.00 415.00 Z"/>
</g>
<g fill="#B96B7B" fill-opacity="0.76" stroke="None"><path d="
M 6.00 250.00 
C 6.00 231.86 5.82 212.11 6.00 195.00
C 4.03 202.93 3.02 214.76 4.00 223.00 C 4.98 231.24 1.30 243.65 6.00 250.00 Z"/>
</g>
<g fill="#B96578" fill-opacity="0.72" stroke="None"><path d="
M 520.00 332.00 
C 519.72 332.76 519.26 333.22 519.00 334.00
C 532.26 308.89 544.64 279.28 546.00 250.00
C 546.10 247.88 546.81 245.46 547.00 244.00
C 547.01 242.67 547.01 241.33 547.00 240.00
C 546.99 237.54 547.83 234.73 548.00 233.00
C 548.00 227.33 548.00 221.67 548.00 216.00
C 547.82 214.18 546.84 211.53 547.00 209.00
C 547.03 208.50 547.01 207.50 547.00 207.00
C 546.37 228.84 545.14 255.16 539.93 275.93 C 534.72 296.70 527.26 312.35 520.00 332.00 Z"/>
</g>
<g fill="#B5979F" fill-opacity="0.28" stroke="None"><path d="
M 548.00 216.00 
C 548.00 214.33 548.00 212.67 548.00 211.00
C 548.00 210.50 547.97 209.50 548.00 209.00
C 548.00 209.00 547.34 209.23 547.00 209.00
C 546.84 211.53 547.82 214.18 548.00 216.00 Z"/>
</g>
<g fill="#D6D1D3" fill-opacity="0.08" stroke="None"><path d="
M 548.00 216.00 
C 548.00 221.67 548.00 227.33 548.00 233.00
C 548.00 235.00 548.00 237.00 548.00 239.00
C 551.14 234.75 550.00 215.70 548.00 211.00
C 548.00 212.67 548.00 214.33 548.00 216.00 Z"/>
</g>
<g fill="#AF9299" fill-opacity="0.32" stroke="None"><path d="
M 547.00 240.00 
C 547.13 239.78 548.00 240.00 548.00 240.00
C 548.00 240.00 548.00 239.50 548.00 239.00
C 548.00 237.00 548.00 235.00 548.00 233.00
C 547.83 234.73 546.99 237.54 547.00 240.00 Z"/>
</g>
<g fill="#CFC5C7" fill-opacity="0.16" stroke="None"><path d="
M 547.00 244.00 
C 546.99 246.22 546.21 248.48 546.00 250.00
C 544.64 279.28 532.26 308.89 519.00 334.00
C 517.47 338.64 515.35 342.59 513.00 347.00
C 511.80 349.25 511.21 351.62 509.00 353.00
C 508.90 353.48 509.00 354.00 509.00 354.00
C 507.84 355.87 506.09 357.40 505.00 359.00
C 501.52 365.45 497.27 371.84 493.00 378.00
C 484.81 392.54 473.03 405.97 461.00 418.00
C 458.53 420.89 455.61 423.39 453.00 426.00
C 446.69 433.39 439.34 440.73 432.00 447.00
C 429.67 449.33 427.49 451.88 425.00 454.00
C 423.06 455.66 420.89 457.38 419.00 459.00
C 413.09 464.91 405.56 473.30 398.00 477.00
C 397.60 477.20 397.00 477.00 397.00 477.00
C 395.59 479.02 393.96 480.63 392.00 482.00
C 390.05 483.37 387.00 484.71 385.00 486.00
C 379.97 490.13 375.59 494.52 370.00 498.00
C 369.37 498.39 368.60 498.63 368.00 499.00
C 362.92 503.72 356.95 507.32 351.00 511.00
C 346.33 513.89 341.50 516.27 337.00 519.00
C 335.15 520.41 334.21 521.85 332.00 523.00
C 330.73 523.66 329.31 524.11 328.00 525.00
C 316.16 533.09 299.92 537.24 289.00 546.00
C 315.38 539.77 338.39 518.91 361.30 505.30 C 384.21 491.69 404.12 473.32 424.75 455.75 C 445.38 438.19 462.92 419.54 480.08 398.08 C 497.24 376.63 511.91 354.42 523.70 328.69 C 535.48 302.97 548.00 269.63 548.00 240.00
C 548.00 240.00 547.13 239.78 547.00 240.00
C 547.01 241.33 547.01 242.67 547.00 244.00 Z"/>
</g>
<g fill="#AE8690" fill-opacity="0.49" stroke="None"><path d="
M 546.00 250.00 
C 546.21 248.48 546.99 246.22 547.00 244.00
C 546.81 245.46 546.10 247.88 546.00 250.00 Z"/>
</g>
<g fill="#B8707F" fill-opacity="0.74" stroke="None"><path d="
M 16.00 294.00 
C 14.50 287.00 12.23 279.20 10.78 272.22 C 9.33 265.25 9.25 256.95 6.00 251.00
C 4.45 265.27 11.90 281.38 16.00 294.00 Z"/>
</g>
<g fill="#BC576E" fill-opacity="0.83" stroke="None"><path d="
M 408.00 468.00 
C 411.82 466.13 415.80 461.74 419.00 459.00
C 420.89 457.38 423.06 455.66 425.00 454.00
C 427.33 451.67 429.51 449.12 432.00 447.00
C 439.34 440.73 446.69 433.39 453.00 426.00
C 457.52 420.71 462.12 415.88 467.00 411.00
C 476.16 400.28 485.19 389.27 493.00 378.00
C 497.27 371.84 501.52 365.45 505.00 359.00
C 506.18 356.82 506.89 355.38 509.00 354.00
C 509.00 354.00 508.90 353.48 509.00 353.00
C 509.60 350.26 511.53 349.03 513.00 347.00
C 515.35 342.59 517.47 338.64 519.00 334.00
C 519.26 333.22 519.72 332.76 520.00 332.00
C 511.16 349.30 498.49 366.32 487.77 382.77 C 477.05 399.22 462.27 412.57 449.75 427.75 C 437.23 442.94 419.05 452.19 408.00 468.00 Z"/>
</g>
<g fill="#B67281" fill-opacity="0.69" stroke="None"><path d="
M 40.00 348.00 
C 38.10 343.60 35.66 339.69 33.00 336.00
C 35.16 340.36 37.51 344.02 40.00 348.00 Z"/>
</g>
<g fill="#B0818B" fill-opacity="0.53" stroke="None"><path d="
M 509.00 353.00 
C 511.21 351.62 511.80 349.25 513.00 347.00
C 511.53 349.03 509.60 350.26 509.00 353.00 Z"/>
</g>
<g fill="#AE7382" fill-opacity="0.61" stroke="None"><path d="
M 505.00 359.00 
C 506.09 357.40 507.84 355.87 509.00 354.00
C 506.89 355.38 506.18 356.82 505.00 359.00 Z"/>
</g>
<g fill="#B77180" fill-opacity="0.71" stroke="None"><path d="
M 71.00 395.00 
C 72.57 396.91 74.39 398.96 76.00 401.00
C 77.17 402.49 78.73 403.62 80.00 405.00
C 73.37 395.43 65.61 386.64 59.00 377.00
C 57.21 374.40 54.92 372.36 53.00 370.00
C 58.00 378.87 65.29 386.33 71.00 395.00 Z"/>
</g>
<g fill="#B18F97" fill-opacity="0.41" stroke="None"><path d="
M 467.00 411.00 
C 465.04 413.30 462.92 415.75 461.00 418.00
C 473.03 405.97 484.81 392.54 493.00 378.00
C 485.19 389.27 476.16 400.28 467.00 411.00 Z"/>
</g>
<g fill="#B19096" fill-opacity="0.47" stroke="None"><path d="
M 76.00 401.00 
C 74.39 398.96 72.57 396.91 71.00 395.00
C 72.63 397.47 73.88 398.88 76.00 401.00 Z"/>
</g>
<g fill="#B9586C" fill-opacity="0.84" stroke="None"><path d="
M 82.00 409.00 
C 86.26 411.98 89.44 416.44 93.00 420.00
C 102.58 429.58 112.46 439.46 122.00 449.00
C 124.21 451.21 126.78 453.93 129.00 456.00
C 129.64 456.39 130.39 456.63 131.00 457.00
C 133.53 458.54 134.94 461.21 137.00 463.00
C 139.32 464.72 141.72 466.25 144.00 468.00
C 145.32 469.01 146.64 470.14 148.00 471.00
C 126.34 450.79 102.52 430.36 82.00 408.00
C 82.00 408.00 81.80 408.60 82.00 409.00 Z"/>
</g>
<g fill="#B08B92" fill-opacity="0.44" stroke="None"><path d="
M 87.00 415.00 
C 88.76 416.76 91.29 418.29 93.00 420.00
C 89.44 416.44 86.26 411.98 82.00 409.00
C 82.96 410.96 85.43 413.43 87.00 415.00 Z"/>
</g>
<g fill="#AD6D7D" fill-opacity="0.67" stroke="None"><path d="
M 453.00 426.00 
C 455.61 423.39 458.53 420.89 461.00 418.00
C 462.92 415.75 465.04 413.30 467.00 411.00
C 462.12 415.88 457.52 420.71 453.00 426.00 Z"/>
</g>
<g fill="#B79EA6" fill-opacity="0.21" stroke="None"><path d="
M 92.00 421.00 
C 100.52 429.20 108.91 438.54 118.00 446.00
C 109.43 437.76 101.36 428.36 93.00 420.00
C 91.29 418.29 88.76 416.76 87.00 415.00
C 88.78 416.93 90.15 419.22 92.00 421.00 Z"/>
</g>
<g fill="#AD6977" fill-opacity="0.66" stroke="None"><path d="
M 118.00 446.00 
C 119.22 447.00 120.91 447.96 122.00 449.00
C 112.46 439.46 102.58 429.58 93.00 420.00
C 101.36 428.36 109.43 437.76 118.00 446.00 Z"/>
</g>
<g fill="#CAC0C2" fill-opacity="0.14" stroke="None"><path d="
M 288.00 546.00 
C 287.50 546.00 286.49 545.94 286.00 546.00
C 279.34 546.79 272.65 547.60 266.00 546.00
C 263.88 545.49 262.46 545.79 261.00 544.00
C 260.51 543.93 260.00 544.00 260.00 544.00
C 257.85 543.80 256.13 542.81 255.00 541.00
C 254.57 540.83 254.00 541.00 254.00 541.00
C 250.61 543.08 240.19 533.81 237.00 532.00
C 236.03 531.63 235.02 531.46 234.00 531.00
C 231.75 529.98 229.32 529.12 228.00 527.00
C 227.57 526.83 227.00 527.00 227.00 527.00
C 218.84 524.05 210.64 517.14 204.00 512.00
C 185.49 501.35 169.30 487.61 152.00 475.00
C 148.99 472.81 146.64 470.44 144.00 468.00
C 141.72 466.25 139.32 464.72 137.00 463.00
C 134.66 461.26 133.01 458.88 131.00 457.00
C 130.39 456.63 129.64 456.39 129.00 456.00
C 126.10 454.23 124.31 451.22 122.00 449.00
C 120.91 447.96 119.22 447.00 118.00 446.00
C 108.91 438.54 100.52 429.20 92.00 421.00
C 102.32 432.61 113.83 443.33 125.25 453.75 C 136.66 464.18 148.64 473.89 160.75 483.25 C 172.87 492.60 186.55 502.67 199.30 510.70 C 212.06 518.72 226.65 529.05 239.75 535.25 C 252.86 541.44 274.10 557.28 288.00 546.00 Z"/>
</g>
<g fill="#AC7D88" fill-opacity="0.56" stroke="None"><path d="
M 425.00 454.00 
C 427.49 451.88 429.67 449.33 432.00 447.00
C 429.51 449.12 427.33 451.67 425.00 454.00 Z"/>
</g>
<g fill="#A98289" fill-opacity="0.44" stroke="None"><path d="
M 129.00 456.00 
C 126.78 453.93 124.21 451.21 122.00 449.00
C 124.31 451.22 126.10 454.23 129.00 456.00 Z"/>
</g>
<g fill="#AC878F" fill-opacity="0.40" stroke="None"><path d="
M 137.00 463.00 
C 134.94 461.21 133.53 458.54 131.00 457.00
C 133.01 458.88 134.66 461.26 137.00 463.00 Z"/>
</g>
<g fill="#B19097" fill-opacity="0.44" stroke="None"><path d="
M 408.00 468.00 
C 408.00 468.00 407.32 467.76 407.00 468.00
C 404.47 471.62 400.55 473.36 398.00 477.00
C 405.56 473.30 413.09 464.91 419.00 459.00
C 415.80 461.74 411.82 466.13 408.00 468.00 Z"/>
</g>
<g fill="#AC7F88" fill-opacity="0.47" stroke="None"><path d="
M 152.00 475.00 
C 151.29 474.24 150.73 472.62 150.00 472.00
C 149.32 471.65 148.67 471.42 148.00 471.00
C 146.64 470.14 145.32 469.01 144.00 468.00
C 146.64 470.44 148.99 472.81 152.00 475.00 Z"/>
</g>
<g fill="#B95B70" fill-opacity="0.81" stroke="None"><path d="
M 363.00 502.00 
C 364.69 500.98 366.34 500.03 368.00 499.00
C 368.60 498.63 369.37 498.39 370.00 498.00
C 374.60 493.73 379.64 489.46 385.00 486.00
C 387.00 484.71 390.05 483.37 392.00 482.00
C 393.81 480.51 394.74 478.10 397.00 477.00
C 397.00 477.00 397.60 477.20 398.00 477.00
C 400.55 473.36 404.47 471.62 407.00 468.00
C 392.23 479.27 377.42 490.54 363.00 502.00 Z"/>
</g>
<g fill="#B95E71" fill-opacity="0.79" stroke="None"><path d="
M 152.00 475.00 
C 169.30 487.61 185.49 501.35 204.00 512.00
C 211.43 516.27 221.17 520.92 227.00 527.00
C 227.00 527.00 227.57 526.83 228.00 527.00
C 230.49 527.98 232.04 529.73 234.00 531.00
C 235.02 531.46 236.03 531.63 237.00 532.00
C 243.05 534.33 248.00 538.63 254.00 541.00
C 254.00 541.00 254.57 540.83 255.00 541.00
C 256.90 541.75 258.56 542.85 260.00 544.00
C 260.00 544.00 260.51 543.93 261.00 544.00
C 262.90 544.26 264.54 545.50 266.00 546.00
C 272.65 547.60 279.34 546.79 286.00 546.00
C 300.24 541.13 314.34 531.67 328.00 525.00
C 329.31 524.11 330.73 523.66 332.00 523.00
C 333.64 521.93 335.15 520.12 337.00 519.00
C 341.50 516.27 346.33 513.89 351.00 511.00
C 353.64 508.86 356.26 505.90 359.00 504.00
C 334.23 517.64 315.90 532.52 289.08 543.08 C 262.25 553.63 236.47 527.44 213.70 516.31 C 190.92 505.17 172.52 483.57 150.00 472.00
C 150.73 472.62 151.29 474.24 152.00 475.00 Z"/>
</g>
<g fill="#B19298" fill-opacity="0.41" stroke="None"><path d="
M 392.00 482.00 
C 393.96 480.63 395.59 479.02 397.00 477.00
C 394.74 478.10 393.81 480.51 392.00 482.00 Z"/>
</g>
<g fill="#AF808A" fill-opacity="0.57" stroke="None"><path d="
M 370.00 498.00 
C 375.59 494.52 379.97 490.13 385.00 486.00
C 379.64 489.46 374.60 493.73 370.00 498.00 Z"/>
</g>
<g fill="#B18F97" fill-opacity="0.49" stroke="None"><path d="
M 363.00 502.00 
C 361.71 502.78 360.20 503.34 359.00 504.00
C 356.26 505.90 353.64 508.86 351.00 511.00
C 356.95 507.32 362.92 503.72 368.00 499.00
C 366.34 500.03 364.69 500.98 363.00 502.00 Z"/>
</g>
<g fill="#AF8D94" fill-opacity="0.48" stroke="None"><path d="
M 227.00 527.00 
C 221.17 520.92 211.43 516.27 204.00 512.00
C 210.64 517.14 218.84 524.05 227.00 527.00 Z"/>
</g>
<g fill="#B59A9F" fill-opacity="0.46" stroke="None"><path d="
M 332.00 523.00 
C 334.21 521.85 335.15 520.41 337.00 519.00
C 335.15 520.12 333.64 521.93 332.00 523.00 Z"/>
</g>
<g fill="#B49098" fill-opacity="0.49" stroke="None"><path d="
M 286.00 546.00 
C 286.49 545.94 287.50 546.00 288.00 546.00
C 288.00 546.00 288.53 546.11 289.00 546.00
C 299.92 537.24 316.16 533.09 328.00 525.00
C 314.34 531.67 300.24 541.13 286.00 546.00 Z"/>
</g>
<g fill="#AE8B94" fill-opacity="0.46" stroke="None"><path d="
M 234.00 531.00 
C 232.04 529.73 230.49 527.98 228.00 527.00
C 229.32 529.12 231.75 529.98 234.00 531.00 Z"/>
</g>
<g fill="#B2959B" fill-opacity="0.49" stroke="None"><path d="
M 254.00 541.00 
C 248.00 538.63 243.05 534.33 237.00 532.00
C 240.19 533.81 250.61 543.08 254.00 541.00 Z"/>
</g>
<g fill="#B09097" fill-opacity="0.50" stroke="None"><path d="
M 260.00 544.00 
C 258.56 542.85 256.90 541.75 255.00 541.00
C 256.13 542.81 257.85 543.80 260.00 544.00 Z"/>
</g>
<g fill="#B3979B" fill-opacity="0.47" stroke="None"><path d="
M 266.00 546.00 
C 264.54 545.50 262.90 544.26 261.00 544.00
C 262.46 545.79 263.88 545.49 266.00 546.00 Z"/>
</g>
</svg>